<svg xmlns="http://www.w3.org/2000/svg" width="99.986" height="100.002" viewBox="0.007 -0.001 99.986 100.002" enable-background="new 0.007 -0.001 99.986 100.002"><path fill="#EBEEEF" d="M49.985-.001c27.619 0 50.008 22.39 50.008 50.009 0 27.618-22.39 49.993-50.008 49.993s-49.978-22.375-49.978-49.993c0-27.619 22.359-50.009 49.978-50.009z"/><path fill="#0074DF" d="M49.987 6c24.305 0 44.008 19.703 44.008 44.007s-19.703 43.994-44.008 43.994c-24.305 0-43.979-19.688-43.979-43.994 0-24.304 19.675-44.007 43.979-44.007z"/><path fill="#fff" d="M22.011 59.014h4.18l6.386-11.018h-10.565v11.018h-.001zm22.876-11.017l-6.639 10.987 25.113.031-6.604-11.019h-11.87zm34.12 0h-12.034l5.317 11.019h6.718l-.001-11.019z"/><path fill="#fff" d="M52.904 26.648c-4.282-6.613-5.646-5.591-5.646-5.591s-1.401.9 1.976 8.142c8.114 17.399 13.184 24.938 13.184 24.938l4.336-2.512s-8.324-16.444-13.85-24.977zm14.51 26.125l-4.25 2.547 4.062 6.424 3.375-2.141-3.187-6.83zm10.348 17.779c-3.521-7.052-6.41-9.614-6.41-9.614l-3.406 2.08s2.17 7.709 4.772 11.063c1.431 1.844 3.884.604 3.884.604s2.406-1.637 1.16-4.133z"/><path fill="#fff" d="M26.261 62.395l5.749 3.912 12.468-21.25-6.031-3.723-12.186 21.061zm-3 10.376l7.938-5.069-5.749-3.816c-.002 0-1.598 6.406-2.189 8.885zm15.935-32.777l6.094 3.691 2.75-4.774-5.875-3.786-2.969 4.869zm10.401-5.249c-.175-1.023-2.943-2.956-4.08-2.876-1.52.106-2.383 1.887-2.383 1.887l5.75 3.724s.912-1.564.713-2.735z"/><path fill="#0167C8" d="M49.987 6c-12.91 0-24.516 5.56-32.559 14.416 7.807-7.093 18.176-11.416 29.559-11.416 24.305 0 44.008 19.703 44.008 44.008 0 11.387-4.325 21.76-11.421 29.569 8.857-8.048 14.421-19.655 14.421-32.57 0-24.304-19.703-44.007-44.008-44.007z"/></svg>