<svg xmlns="http://www.w3.org/2000/svg" xmlns:xlink="http://www.w3.org/1999/xlink" width="100" height="100"><path fill="#17A085" d="M50 0c27.613 0 50 22.386 50 50s-22.387 50-50 50c-27.614 0-50-22.386-50-50s22.386-50 50-50z"/><defs><circle id="a" cx="50" cy="50" r="50"/></defs><clipPath id="b"><use xlink:href="#a" overflow="visible"/></clipPath><g clip-path="url(#b)"><path fill="#107864" d="M17 34l-33 33v51h31l21-21v-54l-19-9z"/><path fill="#EBEDEE" d="M76 31.051v-.051h-50v.051c-.33-.028-.662-.051-1-.051-6.627 0-12 5.373-12 12 0 6.628 5.373 12 12 12 2.45 0 4.725-.738 6.621-2h.379l-4 4v49h44v-49l-4-4h.379c1.896 1.262 4.171 2 6.621 2 6.628 0 12-5.372 12-12 0-6.289-4.841-11.44-11-11.949z"/><path fill="#D3D5D6" d="M26 31v.051c-.33-.028-.662-.051-1-.051-6.627 0-12 5.373-12 12 0 6.628 5.373 12 12 12 .516 0 1.021-.036 1.519-.104l.016-.002c.498-.066.987-.164 1.466-.289v.006c1.306-.338 2.527-.885 3.621-1.611h.378l-4 4v49h22v-75h-24z"/><path fill="#BDC3C7" d="M76 36h-53c-2.891.861-5 3.83-5 7 0 3.866 3.134 7 7 7s7-3.134 7-7c0-1.075-.25-2.09-.683-3h37.365c-.432.91-.682 1.925-.682 3 0 3.866 3.134 7 7 7s7-3.134 7-7c0-3.524-2.609-6.513-6-7zm-51 10c-1.657 0-3-1.343-3-3 0-1.656 1.343-3 3-3s3 1.344 3 3c0 1.657-1.343 3-3 3zm50 0c-1.657 0-3-1.343-3-3 0-1.656 1.343-3 3-3s3 1.344 3 3c0 1.657-1.343 3-3 3z"/><circle fill="#AAAFB3" cx="41" cy="51" r="2"/><circle fill="#BDC3C7" cx="50" cy="51" r="2"/><circle fill="#BDC3C7" cx="59" cy="51" r="2"/><path fill="#AAAFB3" d="M18 43c0 3.866 3.134 7 7 7s7-3.134 7-7c0-1.075-.25-2.09-.683-3h18.683v-4h-27c-2.891.861-5 3.83-5 7zm10 0c0 1.657-1.343 3-3 3s-3-1.343-3-3c0-1.656 1.343-3 3-3s3 1.344 3 3z"/><path fill="#AAAFB3" d="M48 51c0 1.104.896 2 2 2v-4c-1.104 0-2 .896-2 2z"/><path fill="#AAAFB3" d="M46 64v41c0 .348.059.68.142 1h3.858v-46c-2.209 0-4 1.791-4 4z"/><path fill="#BDC3C7" d="M53.857 106c.084-.32.143-.652.143-1v-41c0-2.209-1.791-4-4-4s-4 1.791-4 4v41c0 .348.059.68.142 1h7.715z"/><path fill="#BDC3C7" d="M66.857 106c.084-.32.143-.652.143-1v-41c0-2.209-1.791-4-4-4s-4 1.791-4 4v41c0 .348.059.68.143 1h7.714z"/><path fill="#AAAFB3" d="M40.858 106c.083-.32.142-.652.142-1v-41c0-2.209-1.791-4-4-4s-4 1.791-4 4v41c0 .348.059.68.142 1h7.716z"/></g></svg>