<svg xmlns="http://www.w3.org/2000/svg" width="90" height="100"><path fill="#C0392C" d="M0 94c0 3.314 2.687 6 6 6h78c3.312 0 6-2.686 6-6v-19h-90v19z"/><path fill="#C0392C" d="M69 0h11c1.104 0 2 .896 2 2v16c0 1.105-.896 2-2 2h-11c-1.104 0-2-.895-2-2v-16c0-1.104.896-2 2-2z"/><path fill="#C0392C" d="M10 0h11c1.104 0 2 .896 2 2v16c0 1.105-.896 2-2 2h-11c-1.104 0-2-.895-2-2v-16c0-1.104.896-2 2-2z"/><path fill="#AC3327" d="M12 20h2v-20h-2v20zm5-20v20h2v-20h-2z"/><path fill="#AC3327" d="M71 20h2v-20h-2v20zm5-20v20h2v-20h-2z"/><path fill="#E67E21" d="M51 5v5h5l-5-5zm-12 5v-5l-5 5h5z"/><path fill="#D35400" d="M44.938 4c2.681 0 4.841.752 6.039 1.879l.023-.379c0-2.483-2.473-4.5-6.062-4.5-3.588 0-5.938 2.017-5.938 4.5l.039.328c1.171-1.099 3.26-1.828 5.899-1.828z"/><path fill="#F39C12" d="M20 10h50c11.046 0 20 8.955 20 20v45h-90v-45c0-11.044 8.954-20 20-20z"/><path fill="#D35400" d="M54.561 31.939l-8.498-8.5c-.585-.586-1.537-.586-2.125 0l-8.498 8.5c-.586.586-.586 1.537 0 2.123l8.498 8.498c.588.588 1.539.588 2.125 0l8.498-8.498c.585-.584.585-1.537 0-2.123zm-10.561 2.561c0 .828-.672 1.5-1.5 1.5s-1.5-.671-1.5-1.5v-3c0-.828.672-1.5 1.5-1.5s1.5.672 1.5 1.5v3zm5 0c0 .828-.672 1.5-1.5 1.5s-1.5-.671-1.5-1.5v-3c0-.828.672-1.5 1.5-1.5s1.5.672 1.5 1.5v3z"/><path fill="#E67E21" d="M76 58c0-2.209-1.791-4-4-4h-54c-2.209 0-4 1.791-4 4v6h2v18c0 2.209 1.791 4 4 4h50c2.209 0 4-1.791 4-4v-18h2v-6z"/><path fill="#CF7120" d="M74 66v-2h-58v2h8.312v3.625c0 1.105.896 2 2 2 .693 0 1.303-.354 1.662-.889-.289.162-.618.264-.974.264-1.104 0-2-.895-2-2v-3h49z"/><path fill="#EBEDEE" d="M25 64v5c0 1.105.896 2 2 2s2-.895 2-2v-5h-4zm2 6c-.552 0-1-.447-1-1 0-.551.448-1 1-1s1 .449 1 1c0 .553-.448 1-1 1z"/><path fill="#F4A629" d="M70 10h-50c-11.046 0-20 8.956-20 20v3c0-11.045 8.954-20 20-20h50c11.046 0 20 8.955 20 20v-3c0-11.044-8.954-20-20-20z"/><rect x="25" y="64" fill="#D3D5D6" width="4" height="2"/><path fill="#CF7120" d="M27 68c-.437 0-.798.285-.934.676l.247-.051c.552 0 1 .449 1 1 0 .115-.03.223-.065.326.428-.113.752-.486.752-.951 0-.551-.448-1-1-1z"/><rect x="24.312" y="64" fill="#BA651C" width=".688" height="2"/><path fill="#AC3327" d="M84 97h-78c-3.313 0-6-2.686-6-6v3c0 3.314 2.687 6 6 6h78c3.312 0 6-2.686 6-6v-3c0 3.314-2.688 6-6 6z"/><path fill="#AC3327" d="M70 86h-50c-2.209 0-4-1.791-4-4v2c0 2.209 1.791 4 4 4h50c2.209 0 4-1.791 4-4v-2c0 2.209-1.791 4-4 4z"/></svg>