<svg xmlns="http://www.w3.org/2000/svg" width="82.006" height="100.036" viewBox="0 -0.018 82.006 100.036" enable-background="new 0 -0.018 82.006 100.036"><path fill="#34495E" d="M40.972 72.902s-38.986.031-38.944.041c.017.865 0 4.022 0 4.022l38.943 23.052 38.944-23.052s-.035-3.198-.008-3.987c-.092-.194-38.935-.076-38.935-.076z"/><path fill="#ECF0F1" d="M40.972 25.932s-38.986.031-38.944.041c.017.865 0 46.996 0 46.996l38.944 23.051 38.944-23.051s-.004-46.171.022-46.96c-.089-.196-38.966-.077-38.966-.077z"/><path fill="#2C3E50" d="M2.028 72.943c.017.865 0 4.022 0 4.022l38.943 23.052v-27.115c.001 0-38.986.032-38.943.041z"/><path fill="#BDC3C7" d="M2.028 25.973c.017.865 0 46.996 0 46.996l38.944 23.051v-70.088s-38.987.031-38.944.041z"/><path fill="#BDC3C7" d="M40.972 23.968s-40.983.031-40.941.041c.018.865 0 4.022 0 4.022l40.94 24.051 40.94-24.051s-.033-3.198-.008-3.987c-.09-.195-40.931-.076-40.931-.076z"/><path fill="#95A5A6" d="M46.994 54.949l7.004-3.998v12.992l-7.004 3.996v-12.99z"/><path fill="#95A5A6" d="M57.001 48.952l7.005-3.998v12.993l-7.005 3.996v-12.991z"/><path fill="#95A5A6" d="M.034 28.032l40.826 23.984h.111v-27.983h-40.937v.217c.008.758.003 2.276 0 3.141v.641z"/><path fill="#95A5A6" d="M67.008 42.956l7.007-3.997v12.991l-7.007 3.997v-12.991z"/><path fill="#95A5A6" d="M46.994 71.949l7.004-3.998v12.992l-7.004 3.998v-12.992z"/><path fill="#95A5A6" d="M67.008 59.955l7.007-3.997v12.992l-7.007 3.997v-12.992z"/><path fill="#2C3E50" d="M57.008 72.955l7.005-3.997v17.421l-7.005 4.146v-17.57z"/><path fill="#C0392C" d="M57.008 65.955l7.005-3.997v3.992l-7.005 3.997v-3.992z"/><path fill="#ECF0F1" d="M40.972-.018l-40.972 24.051 40.972 24.051 41.034-24.051-41.034-24.051z"/><path fill="#D48A6D" d="M40.972 4.011l-34.981 20.022 34.981 20.022 34.981-20.022-34.981-20.022z"/><path fill="#7F8C8D" d="M34.981 54.98l-6.989-3.998v12.992l6.989 3.996v-12.99z"/><path fill="#7F8C8D" d="M24.996 48.983l-6.989-3.998v12.994l6.989 3.996v-12.992z"/><path fill="#7F8C8D" d="M15.011 42.987l-6.989-3.998v12.991l6.989 3.998v-12.991z"/><path fill="#7F8C8D" d="M34.981 71.969l-6.989-3.996v12.99l6.989 3.998v-12.992z"/><path fill="#7F8C8D" d="M24.996 65.973l-6.989-3.996v12.99l6.989 3.998v-12.992z"/><path fill="#7F8C8D" d="M15.011 59.977l-6.989-3.998v12.992l6.989 3.998v-12.992z"/><polygon fill="#BDC3C7" points="74.015,44.58 67.008,48.952 67.008,50.951 74.015,46.579"/><polygon fill="#BDC3C7" points="74.015,61.58 67.008,65.952 67.008,67.951 74.015,63.578"/><polygon fill="#BDC3C7" points="64.006,50.576 57.001,54.949 57.001,56.947 64.006,52.574"/><polygon fill="#BDC3C7" points="53.998,56.572 46.994,60.945 46.994,62.943 53.998,58.572"/><polygon fill="#BDC3C7" points="53.998,73.572 46.994,77.945 46.994,79.943 53.998,75.572"/><polygon fill="#95A5A6" points="27.992,56.604 27.992,58.604 34.981,62.975 34.981,60.977"/><polygon fill="#95A5A6" points="27.992,73.594 27.992,75.592 34.981,79.965 34.981,77.965"/><polygon fill="#95A5A6" points="18.007,67.598 18.007,69.596 24.996,73.969 24.996,71.969"/><polygon fill="#95A5A6" points="18.007,50.607 18.007,52.605 24.996,56.979 24.996,54.98"/><polygon fill="#95A5A6" points="8.019,61.6 8.019,63.598 15.011,67.973 15.011,65.973"/><polygon fill="#95A5A6" points="8.019,44.609 8.019,46.608 15.011,50.982 15.011,48.983"/><polygon fill="#AA6F57" points="40.972,6.011 74.206,25.033 75.953,24.033 40.972,4.011 5.991,24.033 7.738,25.033"/></svg>