<svg xmlns="http://www.w3.org/2000/svg" width="100" height="100"><clipPath id="a"><circle cx="50" cy="50" r="50"/></clipPath><g fill-rule="evenodd" clip-rule="evenodd" clip-path="url(#a)"><circle fill="#D7DBDE" cx="50" cy="50" r="50"/><polygon fill-rule="evenodd" clip-rule="evenodd" fill="#BDC3C7" points="10.167,147.834 79,79 21,21 -52,94"/><path fill-rule="evenodd" clip-rule="evenodd" fill="#ECF0F1" d="M-47.5 80c-3.033 0-5.5-2.468-5.5-5.5v-49c0-3.033 2.467-5.5 5.5-5.5h49c3.033 0 5.5 2.467 5.5 5.5v49c0 3.032-2.467 5.5-5.5 5.5h-49z"/><path fill="#8B9298" d="M1.25 21c2.485 0 4.75 2.015 4.75 4.5v49c0 2.485-2.015 4.5-4.5 4.5h-49c-2.485 0-4.5-2.015-4.5-4.5v-49c0-2.485 2.015-4.5 4.5-4.5h48.5m.5-2h-49c-3.584 0-6.5 2.916-6.5 6.5v49c0 3.584 2.916 6.5 6.5 6.5h49c3.584 0 6.5-2.916 6.5-6.5v-49c0-3.584-2.916-6.5-6.5-6.5z"/><path fill-rule="evenodd" clip-rule="evenodd" fill="#ECF0F1" d="M62.5 8c-3.032 0-5.5-2.467-5.5-5.5v-49c0-3.033 2.468-5.5 5.5-5.5h49c3.032 0 5.5 2.467 5.5 5.5v49c0 3.033-2.468 5.5-5.5 5.5h-49z"/><path fill="#8B9298" d="M111.25-51c2.485 0 4.75 2.015 4.75 4.5v49c0 2.485-2.015 4.5-4.5 4.5h-49c-2.485 0-4.5-2.015-4.5-4.5v-49c0-2.485 2.015-4.5 4.5-4.5h48.5m.5-2h-49c-3.584 0-6.5 2.916-6.5 6.5v49c0 3.584 2.916 6.5 6.5 6.5h49c3.584 0 6.5-2.916 6.5-6.5v-49c0-3.584-2.916-6.5-6.5-6.5z"/><path fill-rule="evenodd" clip-rule="evenodd" fill="#ECF0F1" d="M-11.5 8c-3.033 0-5.5-2.467-5.5-5.5v-49c0-3.033 2.467-5.5 5.5-5.5h49c3.033 0 5.5 2.467 5.5 5.5v49c0 3.033-2.467 5.5-5.5 5.5h-49z"/><path fill="#8B9298" d="M37.25-51c2.485 0 4.75 2.015 4.75 4.5v49c0 2.485-2.015 4.5-4.5 4.5h-49c-2.485 0-4.5-2.015-4.5-4.5v-49c0-2.485 2.015-4.5 4.5-4.5h48.5m.5-2h-49c-3.584 0-6.5 2.916-6.5 6.5v49c0 3.584 2.916 6.5 6.5 6.5h49c3.584 0 6.5-2.916 6.5-6.5v-49c0-3.584-2.916-6.5-6.5-6.5z"/><path fill-rule="evenodd" clip-rule="evenodd" fill="#ECF0F1" d="M62.5 152c-3.032 0-5.5-2.468-5.5-5.5v-49c0-3.032 2.468-5.5 5.5-5.5h49c3.032 0 5.5 2.468 5.5 5.5v49c0 3.032-2.468 5.5-5.5 5.5h-49z"/><path fill="#8B9298" d="M111.25 93c2.485 0 4.75 2.015 4.75 4.5v49c0 2.485-2.015 4.5-4.5 4.5h-49c-2.485 0-4.5-2.015-4.5-4.5v-49c0-2.485 2.015-4.5 4.5-4.5h48.5m.5-2h-49c-3.584 0-6.5 2.916-6.5 6.5v49c0 3.584 2.916 6.5 6.5 6.5h49c3.584 0 6.5-2.916 6.5-6.5v-49c0-3.584-2.916-6.5-6.5-6.5z"/><path fill-rule="evenodd" clip-rule="evenodd" fill="#ECF0F1" d="M-11.5 152c-3.033 0-5.5-2.468-5.5-5.5v-49c0-3.032 2.467-5.5 5.5-5.5h49c3.033 0 5.5 2.468 5.5 5.5v49c0 3.032-2.467 5.5-5.5 5.5h-49z"/><path fill="#8B9298" d="M37.25 93c2.485 0 4.75 2.015 4.75 4.5v49c0 2.485-2.015 4.5-4.5 4.5h-49c-2.485 0-4.5-2.015-4.5-4.5v-49c0-2.485 2.015-4.5 4.5-4.5h48.5m.5-2h-49c-3.584 0-6.5 2.916-6.5 6.5v49c0 3.584 2.916 6.5 6.5 6.5h49c3.584 0 6.5-2.916 6.5-6.5v-49c0-3.584-2.916-6.5-6.5-6.5z"/><path fill-rule="evenodd" clip-rule="evenodd" fill="#ECF0F1" d="M98.5 80c-3.032 0-5.5-2.468-5.5-5.5v-49c0-3.033 2.468-5.5 5.5-5.5h49c3.032 0 5.5 2.467 5.5 5.5v49c0 3.032-2.468 5.5-5.5 5.5h-49z"/><path fill="#8B9298" d="M147.25 21c2.485 0 4.75 2.015 4.75 4.5v49c0 2.485-2.015 4.5-4.5 4.5h-49c-2.485 0-4.5-2.015-4.5-4.5v-49c0-2.485 2.015-4.5 4.5-4.5h48.5m.5-2h-49c-3.584 0-6.5 2.916-6.5 6.5v49c0 3.584 2.916 6.5 6.5 6.5h49c3.584 0 6.5-2.916 6.5-6.5v-49c0-3.584-2.916-6.5-6.5-6.5z"/><path fill-rule="evenodd" clip-rule="evenodd" fill="#ECF0F1" d="M25.5 80c-3.033 0-5.5-2.468-5.5-5.5v-49c0-3.033 2.467-5.5 5.5-5.5h49c3.032 0 5.5 2.467 5.5 5.5v49c0 3.032-2.468 5.5-5.5 5.5h-49z"/><path fill="#8B9298" d="M74.25 21c2.485 0 4.75 2.015 4.75 4.5v49c0 2.485-2.015 4.5-4.5 4.5h-49c-2.485 0-4.5-2.015-4.5-4.5v-49c0-2.485 2.015-4.5 4.5-4.5h48.5m.5-2h-49c-3.584 0-6.5 2.916-6.5 6.5v49c0 3.584 2.916 6.5 6.5 6.5h49c3.584 0 6.5-2.916 6.5-6.5v-49c0-3.584-2.916-6.5-6.5-6.5z"/><g fill-rule="evenodd" clip-rule="evenodd"><path fill="#E1E5E6" d="M59 69c0 1.104-.896 2-2 2h-14c-1.104 0-2-.896-2-2s.896-2 2-2h14c1.104 0 2 .896 2 2z"/><path fill="#fff" d="M59 69h-18c0-1.104.896-2 2-2h14c1.104 0 2 .896 2 2z"/></g><path fill="#00A184" d="M54.5 42c.828 0 1.5-.671 1.5-1.5s-.672-1.5-1.5-1.5h-7c-.829 0-1.5.671-1.5 1.5v18c0 .828.671 1.5 1.5 1.5s1.5-.672 1.5-1.5v-7.5h4.5c.828 0 1.5-.672 1.5-1.5 0-.829-.672-1.5-1.5-1.5h-4.5v-6h5.5z"/><path fill-rule="evenodd" clip-rule="evenodd" fill="#fff" d="M74.5 21h-49c-1.76 0-3.268 1.02-4.007 2.493.606-.305 1.281-.493 2.007-.493h49c2.485 0 4.5 2.015 4.5 4.5v49c0 .726-.188 1.4-.492 2.008 1.471-.74 2.492-2.248 2.492-4.008v-49c0-2.485-2.015-4.5-4.5-4.5z"/></g><path opacity=".15" d="M50 0c-27.614 0-50 22.386-50 50l.025 1c.535-26.045 21.802-47 47.975-47 26.509 0 48 21.491 48 48 0 26.172-20.954 47.44-47 47.975l1 .025c27.614 0 50-22.387 50-50 0-27.614-22.386-50-50-50z"/></svg>