<svg xmlns="http://www.w3.org/2000/svg" width="100" height="100"><path fill="#EBEDEE" d="M4 0h92c2.209 0 4 1.791 4 4v89c0 2.21-1.791 4-4 4h-92c-2.209 0-4-1.79-4-4v-89c0-2.209 1.791-4 4-4z"/><path fill="#BDC3C7" d="M12 7h76c2.209 0 4 1.791 4 4v15c0 2.209-1.791 4-4 4h-76c-2.209 0-4-1.791-4-4v-15c0-2.209 1.791-4 4-4z"/><path fill="#3498DB" d="M12 35h17c2.209 0 4 1.791 4 4v15c0 2.209-1.791 4-4 4h-17c-2.209 0-4-1.791-4-4v-15c0-2.209 1.791-4 4-4z"/><path fill="#3498DB" d="M42 35h17c2.209 0 4 1.791 4 4v15c0 2.209-1.791 4-4 4h-17c-2.209 0-4-1.791-4-4v-15c0-2.209 1.791-4 4-4z"/><path fill="#3498DB" d="M12 65h17c2.209 0 4 1.791 4 4v15c0 2.21-1.791 4-4 4h-17c-2.209 0-4-1.79-4-4v-15c0-2.209 1.791-4 4-4z"/><path fill="#3498DB" d="M42 65h17c2.209 0 4 1.791 4 4v15c0 2.21-1.791 4-4 4h-17c-2.209 0-4-1.79-4-4v-15c0-2.209 1.791-4 4-4z"/><path fill="#34495E" d="M72 65h16c2.209 0 4 1.791 4 4v15c0 2.21-1.791 4-4 4h-16c-2.209 0-4-1.79-4-4v-15c0-2.209 1.791-4 4-4z"/><path fill="#fff" d="M84.5 78h-9c-.828 0-1.5.672-1.5 1.5s.672 1.5 1.5 1.5h9c.828 0 1.5-.672 1.5-1.5s-.672-1.5-1.5-1.5zm-9-3h9c.828 0 1.5-.672 1.5-1.5s-.672-1.5-1.5-1.5h-9c-.828 0-1.5.672-1.5 1.5s.672 1.5 1.5 1.5z"/><path fill="#E74C3C" d="M72 35h16c2.209 0 4 1.791 4 4v15c0 2.209-1.791 4-4 4h-16c-2.209 0-4-1.791-4-4v-15c0-2.209 1.791-4 4-4z"/><path fill="#fff" d="M74.999 46.5c0-3.032 2.782-5.5 6.2-5.5h1.49c.724 0 1.311.896 1.311 1.537s-.587 1.412-1.311 1.412h-1.49c-1.975 0-3.205.8-3.205 2.551s1.23 2.488 3.205 2.488h1.49c.724 0 1.373.833 1.373 1.475 0 .643-.649 1.537-1.373 1.537h-1.49c-3.418 0-6.2-2.467-6.2-5.5z"/><path fill="#fff" d="M25.5 45h-3.5v-3.5c0-.828-.671-1.5-1.5-1.5-.828 0-1.5.672-1.5 1.5v3.5h-3.5c-.828 0-1.5.672-1.5 1.5s.672 1.5 1.5 1.5h3.5v3.5c0 .828.672 1.5 1.5 1.5.829 0 1.5-.672 1.5-1.5v-3.5h3.5c.829 0 1.5-.672 1.5-1.5s-.671-1.5-1.5-1.5z"/><path fill="#fff" d="M25.5 75h-10c-.828 0-1.5.672-1.5 1.5s.672 1.5 1.5 1.5h10c.829 0 1.5-.672 1.5-1.5s-.671-1.5-1.5-1.5z"/><path fill="#fff" d="M55.5 75h-10c-.828 0-1.5.672-1.5 1.5s.672 1.5 1.5 1.5h10c.828 0 1.5-.672 1.5-1.5s-.672-1.5-1.5-1.5zm-5-2c.828 0 1.5-.672 1.5-1.5s-.672-1.5-1.5-1.5-1.5.672-1.5 1.5.672 1.5 1.5 1.5zm0 7c-.828 0-1.5.672-1.5 1.5 0 .829.672 1.5 1.5 1.5s1.5-.671 1.5-1.5c0-.828-.672-1.5-1.5-1.5z"/><path fill="#fff" d="M55.52 49.208l-2.725-2.725 2.697-2.696-.001-.001h.001c.639-.639.639-1.674 0-2.312-.639-.639-1.674-.639-2.312 0l-2.697 2.697-2.697-2.697c-.639-.639-1.673-.639-2.312 0-.638.638-.638 1.673 0 2.312v.001l2.697 2.696-2.696 2.696-.001.001c-.638.638-.638 1.673 0 2.312.639.638 1.673.638 2.312 0l2.697-2.697 2.724 2.725.004-.002c.641.609 1.652.604 2.281-.024.629-.629.635-1.642.023-2.281l.005-.005z"/><path fill="#7F8C8D" d="M85 20v4l1.562 1 1.438-1v-4l-1.438-1-1.562 1zm1.562-7.999l-1.562.999v4l1.562 1 1.438-1v-4l-1.438-.999zm-7.562 7.999l-1.438-1-1.562 1v4l1.562 1 1.438-1v-4zm0-3v-4l-1.438-.999-1.562.999v4l1.562 1 1.438-1zm5-4l2-1.438-2-1.562h-4l-2 1.562 2 1.438h4zm-4 11l-2 1.562 2 1.438h4l2-1.438-2-1.562h-4z"/><path fill="#95A5A6" d="M88 7h-76c-2.209 0-4 1.791-4 4v2c0-2.209 1.791-4 4-4h76c2.209 0 4 1.791 4 4v-2c0-2.209-1.791-4-4-4z"/><path fill="#C0392C" d="M88 58h-16c-2.209 0-4-1.791-4-4v2c0 2.209 1.791 4 4 4h16c2.209 0 4-1.791 4-4v-2c0 2.209-1.791 4-4 4z"/><path fill="#2C3E50" d="M88 88h-16c-2.209 0-4-1.79-4-4v2c0 2.209 1.791 4 4 4h16c2.209 0 4-1.791 4-4v-2c0 2.21-1.791 4-4 4z"/><path fill="#2980B9" d="M59 58h-17c-2.209 0-4-1.791-4-4v2c0 2.209 1.791 4 4 4h17c2.209 0 4-1.791 4-4v-2c0 2.209-1.791 4-4 4z"/><path fill="#2980B9" d="M59 88h-17c-2.209 0-4-1.79-4-4v2c0 2.209 1.791 4 4 4h17c2.209 0 4-1.791 4-4v-2c0 2.21-1.791 4-4 4z"/><path fill="#2980B9" d="M29 88h-17c-2.209 0-4-1.79-4-4v2c0 2.209 1.791 4 4 4h17c2.209 0 4-1.791 4-4v-2c0 2.21-1.791 4-4 4z"/><path fill="#2980B9" d="M29 58h-17c-2.209 0-4-1.791-4-4v2c0 2.209 1.791 4 4 4h17c2.209 0 4-1.791 4-4v-2c0 2.209-1.791 4-4 4z"/><path fill="#BDC3C7" d="M96 97h-92c-2.209 0-4-1.79-4-4v3c0 2.209 1.791 4 4 4h92c2.209 0 4-1.791 4-4v-3c0 2.21-1.791 4-4 4z"/></svg>