<svg xmlns="http://www.w3.org/2000/svg" width="100" height="91"><path fill="#EBEDEE" d="M20 0h60c5.523 0 10 4.478 10 10v45c0 5.521-4.477 10-10 10h-60c-5.522 0-10-4.479-10-10v-45c0-5.522 4.478-10 10-10z"/><path fill="#212E3C" d="M14 91h2l10-10h-12v10zm60-10l10 10h2v-10h-12z"/><path fill="#BDC3C7" d="M50 23c-1.656 0-3 1.343-3 3s1.344 3 3 3 3-1.343 3-3-1.344-3-3-3zm-16-10c-1.657 0-3 1.343-3 3s1.343 3 3 3 3-1.343 3-3-1.343-3-3-3zm32 6c1.656 0 3-1.343 3-3s-1.344-3-3-3-3 1.343-3 3 1.344 3 3 3zm-32 14c-1.657 0-3 1.343-3 3s1.343 3 3 3 3-1.343 3-3-1.343-3-3-3zm32 0c-1.656 0-3 1.343-3 3s1.344 3 3 3 3-1.343 3-3-1.344-3-3-3z"/><path fill="#283848" d="M10 64h80v17h-80v-17z"/><path fill="#2C3E50" d="M90 36c5.523 0 10 4.479 10 10v25c0 5.523-4.477 10-10 10s-10-4.477-10-10v-25c0-5.521 4.477-10 10-10z"/><path fill="#34495E" d="M90 41c3.312 0 6 2.688 6 6v23c0 3.314-2.688 6-6 6s-6-2.686-6-6v-23c0-3.312 2.688-6 6-6z"/><path fill="#2C3E50" d="M10 36c5.522 0 10 4.479 10 10v25c0 5.523-4.478 10-10 10s-10-4.477-10-10v-25c0-5.521 4.478-10 10-10z"/><path fill="#34495E" d="M10 41c3.313 0 6 2.688 6 6v23c0 3.314-2.687 6-6 6s-6-2.686-6-6v-23c0-3.312 2.687-6 6-6z"/><path fill="#253241" d="M20 64h60v3h-60v-3z"/><path fill="#BDC3C7" d="M20.5 51h59c3.59 0 6.5 2.91 6.5 6.5s-2.91 6.5-6.5 6.5h-59c-3.59 0-6.5-2.91-6.5-6.5s2.91-6.5 6.5-6.5z"/></svg>