<svg xmlns="http://www.w3.org/2000/svg" width="100" height="100"><path fill="#2C3E50" d="M15 13h70c8.284 0 15 6.716 15 15v57c0 8.285-6.716 15-15 15h-70c-8.284 0-15-6.715-15-15v-57c0-8.284 6.716-15 15-15z"/><path fill="#3E5266" d="M15 0h70c8.284 0 15 6.716 15 15v66c0 8.285-6.716 15-15 15h-70c-8.284 0-15-6.715-15-15v-66c0-8.284 6.716-15 15-15z"/><path fill="#2C3E50" d="M48.5 15c19.055 0 34.5 15.446 34.5 34.5 0 19.055-15.445 34.5-34.5 34.5-19.054 0-34.5-15.445-34.5-34.5 0-19.054 15.446-34.5 34.5-34.5z"/><path fill="#BCC4C8" d="M49 15c18.777 0 34 15.223 34 34s-15.223 34-34 34c-18.778 0-34-15.223-34-34 0-18.778 15.222-34 34-34z"/><path fill="#34495E" d="M49 17.756c17.256 0 31.243 13.988 31.243 31.243 0 17.256-13.987 31.245-31.243 31.245-17.255 0-31.243-13.988-31.243-31.245 0-17.254 13.988-31.243 31.243-31.243z"/><path fill="#EBEDEE" d="M49 47c1.104 0 2 .896 2 2s-.896 2-2 2-2-.896-2-2 .896-2 2-2z"/><path fill="#495C6E" d="M53.117 44.991l-1.24 1.239c.691.72 1.123 1.693 1.123 2.77 0 2.209-1.791 4-4 4-1.077 0-2.051-.432-2.77-1.123l-1.239 1.239 15.224 25.046c8.443-3.25 15.118-10.053 18.188-18.584l-25.286-14.587z"/><path fill="#495C6E" d="M19.587 38.451l25.342 14.619 1.243-1.241c-.724-.725-1.172-1.725-1.172-2.829 0-2.208 1.791-4 4-4 1.104 0 2.104.448 2.828 1.172l1.242-1.243-15.257-25.102c-8.465 3.249-15.158 10.07-18.226 18.624z"/><path fill="#2C3E50" d="M75.99 51.604l9.465-36.238-2.91-.729-8.91 35.642c-.219.155-8.746 8.011-8.746 8.011-.426-.186-.895-.29-1.389-.29-1.934 0-3.5 1.566-3.5 3.5s1.566 3.5 3.5 3.5 3.5-1.566 3.5-3.5c0-.343-.064-.667-.156-.979l8.699-7.944v-.001c.258-.25.42-.592.447-.972z"/><path fill="#5FCCFF" d="M49 36c-7.18 0-13 5.82-13 13s5.82 13 13 13 13-5.82 13-13-5.82-13-13-13zm0 17c-2.209 0-4-1.791-4-4 0-2.208 1.791-4 4-4s4 1.792 4 4c0 2.209-1.791 4-4 4z"/><path fill="#fff" d="M86 73c2.762 0 5 2.238 5 5s-2.238 5-5 5-5-2.238-5-5 2.238-5 5-5z"/><path fill="#E45136" d="M86 75c1.656 0 3 1.344 3 3s-1.344 3-3 3-3-1.344-3-3 1.344-3 3-3z"/><path fill="#fff" d="M85 10c-3.312 0-6 2.686-6 6 0 2.276 1.27 4.256 3.137 5.273l-7.502 30.004c-.219.156-8.746 8.013-8.746 8.013-.426-.186-.895-.29-1.389-.29-1.934 0-3.5 1.566-3.5 3.5s1.566 3.5 3.5 3.5 3.5-1.566 3.5-3.5c0-.342-.064-.666-.156-.979l8.699-7.945v-.001c.258-.249.42-.591.447-.972l7.992-30.604.018.001c3.312 0 6-2.686 6-6 0-3.313-2.688-6-6-6zm-20.5 54c-.828 0-1.5-.672-1.5-1.5s.672-1.5 1.5-1.5 1.5.672 1.5 1.5-.672 1.5-1.5 1.5z"/><path fill="#95A5A6" d="M85 13c1.656 0 3 1.343 3 3s-1.344 3-3 3-3-1.343-3-3 1.344-3 3-3z"/></svg>