<svg xmlns="http://www.w3.org/2000/svg" xmlns:xlink="http://www.w3.org/1999/xlink" width="100" height="100"><path fill="#EBEEEF" d="M50 0c27.613 0 50 22.386 50 50s-22.387 50-50 50c-27.614 0-50-22.387-50-50 0-27.615 22.386-50 50-50z"/><defs><circle id="a" cx="50" cy="50" r="50"/></defs><clipPath id="b"><use xlink:href="#a" overflow="visible"/></clipPath><g clip-path="url(#b)"><polygon fill="#DF3627" points="82,104 81.995,46.986 62,46.986 62,36 38,36 38,46.986 18.004,46.986 18,104 38,104 38,114 62,114 62,104"/><path fill="#EBEEEF" d="M78.48 66.229c-4.528 2.266-11.768 2.334-16.48.223v6c4.713 2.111 11.952 2.043 16.48-.223 2.328-1.162 3.496-2.687 3.513-4.211h.003v-6.029c-.001 1.534-1.173 3.07-3.516 4.24z"/><path fill="#EBEEEF" d="M38 66.447c-4.712 2.115-11.957 2.049-16.49-.219-2.316-1.156-3.482-2.67-3.51-4.189v5.895c-.027 1.553 1.139 3.111 3.51 4.295 4.533 2.269 11.778 2.334 16.49.22v-6.002z"/><polygon fill="#C83021" points="38,58 42,58 42,46.986 34,46.986 34,104 38,104"/><path fill="#FF4B39" d="M41.51 31.744c4.688-2.344 12.285-2.344 16.973 0 4.687 2.343 4.687 6.143 0 8.485-4.688 2.344-12.284 2.344-16.973 0-4.687-2.343-4.687-6.143 0-8.485z"/><path fill="#FF4B39" d="M21.51 42.744c4.688-2.344 12.285-2.344 16.972 0 4.687 2.343 4.687 6.143 0 8.484-4.687 2.345-12.284 2.345-16.972 0-4.687-2.342-4.687-6.142 0-8.484z"/><path fill="#FF4B39" d="M41.51 53.744c4.688-2.344 12.285-2.344 16.973 0 4.687 2.342 4.687 6.143 0 8.484-4.688 2.344-12.284 2.344-16.973 0-4.687-2.341-4.687-6.142 0-8.484z"/><path fill="#EBEEEF" d="M58.477 77.229c-4.687 2.345-12.284 2.345-16.972 0-2.316-1.155-3.482-2.67-3.51-4.188v5.896c-.027 1.553 1.139 3.11 3.51 4.295 4.688 2.344 12.285 2.344 16.972 0 2.328-1.162 3.496-2.687 3.512-4.211h.004v-6.031c-.003 1.533-1.175 3.069-3.516 4.239z"/><path fill="#C83021" d="M58 48v5.525l.48.22c2.351 1.174 3.521 2.715 3.515 4.256h.005v46h4v-56.001h-8z"/><path fill="#D3D6D7" d="M62 66.447v6c1.201.537 2.559.936 4 1.191v-6c-1.441-.255-2.799-.654-4-1.191z"/><path fill="#FF4B39" d="M61.51 42.744c4.688-2.344 12.285-2.344 16.973 0 4.687 2.343 4.687 6.143 0 8.484-4.688 2.345-12.284 2.345-16.973 0-4.687-2.342-4.687-6.142 0-8.484z"/><path fill="#D3D6D7" d="M38 66.443c-1.2.539-2.558.938-4 1.192v6c1.442-.254 2.8-.653 4-1.192v-6z"/><path fill="#BCC4C8" d="M56 52.797v-5.797h-12v5.795c3.705-1.07 8.297-1.07 12 .002z"/><path fill="#EBF0F1" d="M45.755 44.872c2.344-1.172 6.144-1.172 8.486 0s2.343 3.071 0 4.243c-2.345 1.172-6.143 1.172-8.486 0-2.343-1.172-2.343-3.072 0-4.243z"/><path fill="#264860" d="M50.988 47h-1.988c0-9.325 3.061-14.044 5.717-18.608 1.667-2.862 3.364-5.624 4.373-9.505.801-1.257 1.955-.587 2.018.139-1.088 4.461-3 7.557-4.762 10.583-2.612 4.481-5.358 8.716-5.358 17.391z"/><path fill="#F1C40E" d="M64.023 20.049c1.119-.734 2.51-1.197 4.177-1.383-1.667-.186-3.056-.648-4.175-1.382.273-1.307.93-2.612 1.975-3.918-1.307 1.045-2.611 1.701-3.918 1.974-.734-1.118-1.197-2.508-1.383-4.175-.186 1.668-.648 3.058-1.385 4.176-1.308-.272-2.614-.929-3.922-1.975 1.045 1.307 1.701 2.613 1.975 3.92-1.117.732-2.504 1.195-4.168 1.38 1.664.185 3.053.647 4.17 1.38-.271 1.31-.93 2.619-1.977 3.928 1.31-1.047 2.617-1.704 3.926-1.976.732 1.117 1.195 2.504 1.381 4.168.185-1.664.646-3.05 1.379-4.167 1.307.272 2.613.929 3.922 1.975-1.046-1.308-1.703-2.616-1.977-3.925z"/></g></svg>