<svg xmlns="http://www.w3.org/2000/svg" width="100" height="100"><path fill="#2980BA" d="M51 22.001c16.016 0 28.999 12.983 28.999 28.999s-12.983 28.999-28.999 28.999-28.999-12.983-28.999-28.999c0-16.015 12.983-28.999 28.999-28.999z"/><path fill="#EDF0F1" d="M50 0c27.613 0 50 22.386 50 50s-22.387 50-50 50c-27.614 0-50-22.386-50-50s22.386-50 50-50z"/><path fill="#3B97D3" d="M51 22.001c16.016 0 28.999 12.983 28.999 28.999s-12.983 28.999-28.999 28.999-28.999-12.983-28.999-28.999c0-16.015 12.983-28.999 28.999-28.999z"/><path fill="#2980BA" d="M53 77.999c-16.016 0-28.999-12.983-28.999-28.999 0-7.499 2.847-14.332 7.519-19.48-5.847 5.305-9.519 12.964-9.519 21.48 0 16.016 12.983 28.999 28.999 28.999 8.518 0 16.176-3.672 21.48-9.519-5.147 4.672-11.981 7.519-19.48 7.519z"/><path fill="#35495E" d="M51 38.005c7.177 0 12.995 5.818 12.995 12.995s-5.818 12.995-12.995 12.995-12.995-5.818-12.995-12.995 5.818-12.995 12.995-12.995z"/><path fill="#fff" d="M60.003 35.009c3.862 0 6.992 3.133 6.992 6.998s-3.13 6.998-6.992 6.998c-3.86 0-6.992-3.133-6.992-6.998s3.132-6.998 6.992-6.998z"/><path fill="#BDC2C7" d="M50 4c26.943 0 48.898 21.314 49.949 48 .025-.665.051-1.329.051-2 0-27.614-22.386-50-50-50s-50 22.386-50 50c0 .671.024 1.335.051 2 1.051-26.686 23.006-48 49.949-48z"/></svg>