<svg xmlns="http://www.w3.org/2000/svg" width="100" height="100"><path fill="#F1C40F" d="M0 100v-100h72l28 28v72h-100z"/><path fill="#F39C12" d="M0 100v-28l72-72 28 28-72 72h-28z"/><path fill="#FFF55B" d="M72 0h1l27 27v1h-28v-28z"/><g enable-background="new" fill="#fff"><path d="M34.828 55.721v3.853h-11.538v7.704h9.738v3.87h-9.738v10.602h-4.878v-26.029h16.416zM44.08 81.749h-4.86v-26.028h4.86v26.028zM54.771 77.753h10.422v3.996h-15.263v-26.028h4.842v22.032zM84.958 55.721v3.853h-11.538v7.218h9.09v3.726h-9.09v7.362h11.538v3.87h-16.416v-26.029h16.416z"/></g></svg>