<svg xmlns="http://www.w3.org/2000/svg" xmlns:xlink="http://www.w3.org/1999/xlink" width="100" height="100"><path fill="#34495E" d="M50 0c27.613 0 50 22.386 50 50s-22.387 50-50 50c-27.615 0-50-22.386-50-50s22.385-50 50-50z"/><defs><circle id="a" cx="50" cy="50" r="50"/></defs><clipPath id="b"><use xlink:href="#a" overflow="visible"/></clipPath><g clip-path="url(#b)"><path fill="#216E9B" d="M28.5 22c-5.799 0-10.5 12.536-10.5 28s4.701 28 10.5 28h16.016v-56h-16.016z"/><path fill="#2981B5" d="M46 10c-8.284 0-15 18.133-15 40.5 0 22.368 6.715 40.5 15 40.5h17v-81h-17z"/><path fill="#47A4DB" d="M63 10c8.283 0 15 18.133 15 40.5 0 22.368-6.717 40.5-15 40.5-8.285 0-15-18.132-15-40.5 0-22.367 6.715-40.5 15-40.5z"/><path fill="#fff" d="M65 39c-2.209 0-4 5.373-4 12s1.791 12 4 12c1.012 0 1.934-1.139 2.639-3h32.359c.656-3.23 1.002-6.575 1.002-10 0-2.724-.227-5.395-.645-8h-32.716c-.705-1.861-1.627-3-2.639-3z"/><path fill="#EDEDEF" d="M65 63c1.012 0 1.934-1.139 2.639-3h32.359c.592-2.915.916-5.925.977-9h-39.975c0 6.627 1.791 12 4 12z"/></g></svg>