<svg xmlns="http://www.w3.org/2000/svg" xmlns:xlink="http://www.w3.org/1999/xlink" width="100" height="100"><path fill="#34495E" d="M50 0c27.613 0 50 22.386 50 50s-22.387 50-50 50c-27.614 0-50-22.386-50-50s22.386-50 50-50z"/><defs><circle id="a" cx="50" cy="50" r="50"/></defs><clipPath id="b"><use xlink:href="#a" overflow="visible"/></clipPath><g clip-path="url(#b)"><path fill="#ECF0F1" d="M59 51.213v-23.213h-18v23.213c-14.408 3.947-25 17.127-25 32.787 0 18.777 15.222 34 34 34 18.777 0 34-15.223 34-34 0-15.66-10.592-28.84-25-32.787z"/><path fill="#17A085" d="M73.639 70h-47.277c-2.758 4.337-4.362 9.479-4.362 15 0 15.464 12.536 28 28 28s28-12.536 28-28c0-5.521-1.604-10.663-4.361-15z"/><path fill="#1ABC9C" d="M32.908 64.205c9.44-4.521 24.744-4.521 34.185 0s9.44 11.852 0 16.372c-9.438 4.521-24.744 4.521-34.185 0-9.439-4.52-9.439-11.85 0-16.372z"/><path fill="#BDC3C7" d="M41.01 25.744h17.889l.062 8.185-.562.301c-4.688 2.344-12.203 2.344-16.889 0l-.517-.274.017-8.212z"/><path fill="#fff" d="M41.51 23.744c4.687-2.344 12.285-2.344 16.973 0 4.686 2.343 4.686 6.143 0 8.485-4.688 2.344-12.287 2.344-16.973 0-4.686-2.342-4.686-6.142 0-8.485z"/><path fill="#BDC3C7" d="M45.75 26.581c2.337-.78 6.126-.78 8.464 0 2.336.781 2.336 2.048 0 2.829-2.338.781-6.127.781-8.464 0-2.336-.781-2.336-2.048 0-2.829z"/><path fill="#5FD0BA" d="M41.5 70c-2.48 0-4.491 2.008-4.499 4.486-.008.388.427.774 1.312 1.07 1.753.586 4.595.586 6.348 0 .874-.291 1.312-.675 1.314-1.058h.025c0-2.482-2.015-4.498-4.5-4.498zm11.5-4c-1.654 0-2.994 1.331-2.999 2.977-.006.256.284.515.874.709 1.169.39 3.062.39 4.232 0 .582-.192.875-.446.875-.701h.018c0-1.649-1.344-2.985-3-2.985zm8 6c-1.652 0-2.993 1.331-2.999 2.975-.006.258.284.516.874.711 1.169.39 3.062.39 4.232 0 .582-.192.873-.446.875-.701h.018c0-1.649-1.344-2.985-3-2.985z"/><path fill="#9AA4AE" d="M44 10c-2.209 0-4 1.791-4 4s1.791 4 4 4 4-1.791 4-4-1.791-4-4-4zm0 6c-1.104 0-2-.896-2-2s.896-2 2-2 2 .896 2 2-.896 2-2 2zm1.5-21c-3.038 0-5.5 2.463-5.5 5.5 0 3.038 2.462 5.5 5.5 5.5s5.5-2.462 5.5-5.5c0-3.037-2.462-5.5-5.5-5.5zm0 9c-1.933 0-3.5-1.566-3.5-3.5 0-1.933 1.567-3.5 3.5-3.5s3.5 1.567 3.5 3.5c0 1.934-1.567 3.5-3.5 3.5zm11 1c-3.037 0-5.5 2.463-5.5 5.5 0 3.038 2.463 5.5 5.5 5.5s5.5-2.462 5.5-5.5c0-3.037-2.463-5.5-5.5-5.5zm0 9c-1.934 0-3.5-1.566-3.5-3.5 0-1.933 1.566-3.5 3.5-3.5s3.5 1.567 3.5 3.5c0 1.934-1.566 3.5-3.5 3.5z"/><path fill="#17A085" d="M55.107 69.436c-1.17.39-3.063.39-4.232 0-.536-.178-.812-.406-.855-.64l-.019.181c-.006.256.284.515.874.709 1.169.39 3.062.39 4.232 0 .582-.192.875-.446.875-.701h.018l-.023-.228c-.018.246-.303.491-.87.679zm-10.446 5.873c-1.753.586-4.595.586-6.348 0-.831-.279-1.25-.639-1.293-1.002l-.019.18c-.008.389.427.775 1.312 1.072 1.753.586 4.595.586 6.348 0 .874-.293 1.312-.676 1.314-1.059h.025l-.025-.25c-.003.383-.44.766-1.314 1.059zm18.446.127c-1.17.39-3.063.39-4.232 0-.535-.179-.811-.406-.855-.641l-.019.18c-.006.258.284.516.874.711 1.169.39 3.062.39 4.232 0 .582-.192.873-.446.875-.701h.018l-.023-.229c-.017.246-.303.492-.87.68z"/></g></svg>