<svg xmlns="http://www.w3.org/2000/svg" width="100" height="100"><circle fill="#E74C3C" cx="50" cy="50" r="50"/><path fill="#fff" d="M8.862 21.59l.833.833c1.952 1.953 5.118 1.953 7.07 0l5.657-5.657c1.897-1.898 1.003-5.882-.842-7.897-4.967 3.439-9.28 7.753-12.718 12.721zm32.138-19.59c0 2.762 2.238 5 5 5h8c2.762 0 5-2.239 5-5v-1.176c-2.921-.532-5.926-.824-9-.824s-6.079.292-9 .824v1.176zm37.419 6.869c-1.845 2.015-2.739 5.999-.842 7.897l5.657 5.657c1.952 1.953 5.118 1.953 7.07 0l.833-.833c-3.438-4.968-7.75-9.282-12.718-12.721zm12.719 69.541l-.833-.834c-1.952-1.951-5.118-1.951-7.07 0l-5.657 5.658c-1.952 1.951-1.952 5.117 0 7.07l.833.833c4.971-3.44 9.286-7.755 12.727-12.727zm-74.372-.834c-1.952-1.951-5.118-1.951-7.07 0l-.834.834c3.438 4.968 7.75 9.281 12.718 12.721 1.845-2.016 2.74-6 .842-7.896l-5.656-5.659zm81.234-36.576c-2.762 0-5 2.239-5 5v8c0 2.762 2.238 5 5 5h1.177c.531-2.921.823-5.926.823-9s-.292-6.079-.823-9h-1.177zm-39 57c0-2.762-2.238-5-5-5h-8c-2.762 0-5 2.238-5 5v1.177c2.921.531 5.926.823 9 .823s6.079-.292 9-.823v-1.177zm-57-39c2.762 0 5-2.238 5-5v-8c0-2.761-2.238-5-5-5h-1.176c-.532 2.921-.824 5.926-.824 9s.292 6.079.824 9h1.176z"/><circle fill="#C0392B" cx="50.066" cy="49.91" r="33"/><circle fill="#fff" cx="50.5" cy="50.634" r="25"/><path fill="#C0392B" d="M32.144 49.992c-.447-.074-.874-.203-1.28-.388s-.749-.407-1.029-.667l.56-.811c.047-.066.11-.122.189-.166.08-.045.164-.067.254-.067.093 0 .188.024.286.073l.317.178.376.213c.136.072.291.131.466.178l.215-2.204c-.28-.078-.558-.169-.833-.275-.276-.105-.525-.248-.746-.427-.222-.18-.401-.408-.54-.685-.138-.277-.207-.624-.207-1.042 0-.308.062-.608.187-.901.124-.292.306-.556.545-.79.239-.234.533-.426.883-.576.35-.15.75-.226 1.201-.226l.064-.658c.012-.11.06-.21.146-.299s.196-.133.333-.133h.665l-.117 1.148c.42.078.781.203 1.084.376s.56.358.77.557l-.443.647c-.066.097-.133.168-.201.213-.068.045-.149.067-.242.067l-.21-.041-.256-.102-.3-.131-.341-.122-.204 2.069.56.178c.187.064.366.138.539.222s.334.18.484.289c.15.109.28.237.391.385.111.148.197.318.26.51.062.192.093.411.093.656 0 .369-.062.716-.187 1.041-.125.325-.307.611-.548.86-.241.249-.536.452-.886.609-.35.158-.75.254-1.201.289l-.07.729c-.012.108-.061.207-.146.295-.085.087-.196.131-.333.131h-.665l.117-1.202zm-.268-6.256c0 .229.073.415.219.557.146.142.337.261.574.358l.175-1.761c-.179.027-.33.067-.452.12-.123.052-.222.116-.297.189-.076.074-.131.156-.167.248-.034.092-.052.188-.052.289zm2.472 3.772c0-.221-.071-.398-.212-.53-.142-.132-.33-.243-.563-.333l-.187 1.924c.641-.112.962-.466.962-1.061z" enable-background="new"/><g enable-background="new" fill="#C0392B"><path d="M38.686 56.662h2.8v-7.35c0-.36.01-.736.03-1.13l-1.65 1.37c-.107.086-.214.148-.32.185-.106.037-.21.055-.31.055-.173 0-.328-.038-.465-.114-.137-.077-.238-.158-.305-.245l-.98-1.3 4.54-3.811h2.56v12.34h2.4v2.24h-8.3v-2.24zM58.966 51.612c0 1.273-.137 2.377-.41 3.31-.273.934-.652 1.707-1.136 2.32s-1.057 1.07-1.72 1.37-1.382.45-2.155.45-1.488-.15-2.145-.45-1.225-.757-1.705-1.37-.855-1.387-1.125-2.32c-.27-.933-.405-2.036-.405-3.31s.135-2.377.405-3.31c.27-.934.645-1.707 1.125-2.32s1.048-1.068 1.705-1.365 1.371-.445 2.145-.445 1.492.148 2.155.445 1.236.752 1.72 1.365.862 1.387 1.136 2.32c.273.933.41 2.036.41 3.31zm-3.2 0c0-1.007-.063-1.832-.19-2.475s-.295-1.148-.505-1.516c-.21-.366-.448-.618-.715-.755s-.537-.205-.811-.205-.541.068-.805.205-.496.389-.7.755c-.203.367-.366.872-.489 1.516-.124.644-.186 1.468-.186 2.475 0 1.014.062 1.84.186 2.48.123.64.286 1.145.489 1.515.204.37.437.623.7.76s.531.205.805.205.544-.068.811-.205.505-.39.715-.76.378-.875.505-1.515c.126-.64.19-1.466.19-2.48zM70.565 51.612c0 1.273-.137 2.377-.41 3.31-.273.934-.652 1.707-1.136 2.32s-1.057 1.07-1.72 1.37-1.382.45-2.155.45-1.488-.15-2.145-.45-1.225-.757-1.705-1.37c-.479-.613-.854-1.387-1.125-2.32-.27-.933-.405-2.036-.405-3.31s.136-2.377.405-3.31c.271-.934.646-1.707 1.125-2.32.48-.613 1.049-1.068 1.705-1.365s1.371-.445 2.145-.445 1.492.148 2.155.445 1.236.752 1.72 1.365.862 1.387 1.136 2.32c.274.933.41 2.036.41 3.31zm-3.2 0c0-1.007-.063-1.832-.19-2.475s-.295-1.148-.505-1.516c-.21-.366-.448-.618-.715-.755s-.537-.205-.811-.205-.541.068-.805.205-.496.389-.7.755c-.203.367-.366.872-.489 1.516-.124.644-.186 1.468-.186 2.475 0 1.014.062 1.84.186 2.48.123.64.286 1.145.489 1.515.204.37.437.623.7.76s.531.205.805.205.544-.068.811-.205.505-.39.715-.76.378-.875.505-1.515c.127-.64.19-1.466.19-2.48z"/></g><circle stroke="#fff" stroke-width="3" stroke-miterlimit="10" stroke-dasharray="6,6" cx="49.893" cy="50.551" r="29" fill="none"/></svg>