<svg xmlns="http://www.w3.org/2000/svg" width="87" height="100.001" viewBox="0 -0.016 87 100.001" enable-background="new 0 -0.016 87 100.001"><path fill="#08B059" d="M49.997 47.153l12.778-12.779c-23.339-13.822-57.826-34.1-59.775-34.39l-.156.016 47.153 47.153z"/><path fill="#1BB899" d="M.016 2.829l-.016.155v94l.015.149 47.153-47.152-47.152-47.152z"/><path fill="#F04F3E" d="M50.003 52.816l-47.151 47.152.148.017c1.958-.312 36.439-20.58 59.775-34.396l-12.772-12.773z"/><path fill="#F99C1C" d="M84 46.984s-7.372-4.398-17.665-10.5l-13.503 13.504 13.497 13.497c10.296-6.103 17.671-10.501 17.671-10.501 1.607-.844 3-1.343 3-3 0-1.656-1.584-2.225-3-3z"/></svg>