<svg xmlns="http://www.w3.org/2000/svg" width="46" height="98.85"><path fill="#DE9273" d="M21 57.85h4c1.657 0 3 1.343 3 3v35c0 1.657-1.343 3-3 3h-4c-1.657 0-3-1.343-3-3v-35c0-1.658 1.343-3 3-3z"/><path fill="#F0C419" d="M6 31h34c3.312 0 6 2.687 6 6v33c0 3.312-2.688 6-6 6h-34c-3.313 0-6-2.688-6-6v-33c0-3.313 2.687-6 6-6z"/><path fill="#D1AB2B" d="M14 9c2.762 0 5 2.237 5 5v48c0 2.762-2.238 5-5 5s-5-2.238-5-5v-48c0-2.762 2.238-5 5-5z"/><path fill="#D1AB2B" d="M32 9c2.762 0 5 2.237 5 5v48c0 2.762-2.238 5-5 5s-5-2.238-5-5v-48c0-2.762 2.238-5 5-5z"/><path fill="#E64B3C" d="M15 0h16c8.284 0 15 6.716 15 15v25h-46v-25c0-8.284 6.716-15 15-15z"/><path fill="#C94432" d="M37 40v-26c0-2.763-2.238-5-5-5s-5 2.237-5 5v26h10z"/><path fill="#C94432" d="M19 40v-26c0-2.763-2.238-5-5-5s-5 2.237-5 5v26h10z"/><path fill="#C88368" d="M18 76h10l-10 10v-10z"/></svg>