<svg xmlns="http://www.w3.org/2000/svg" width="100" height="100"><path fill-rule="evenodd" clip-rule="evenodd" fill="#BDC3C7" d="M95 79h-33v12h4.5c.828 0 1.5.671 1.5 1.5 0 .828-.672 1.5-1.5 1.5h-33c-.828 0-1.5-.671-1.5-1.5 0-.828.672-1.5 1.5-1.5h4.5v-12h-33c-2.761 0-5-2.239-5-5v-9h100v9c0 2.761-2.239 5-5 5z"/><path fill-rule="evenodd" clip-rule="evenodd" fill="#95A5A5" d="M38 79h24v2h-24v-2z"/><path fill-rule="evenodd" clip-rule="evenodd" fill="#2C3E50" d="M5 0h90c2.761 0 5 2.239 5 5v60h-100v-60c0-2.761 2.239-5 5-5z"/><path fill-rule="evenodd" clip-rule="evenodd" fill="#35495E" d="M5 5h90v55h-90v-55z"/><circle fill-rule="evenodd" clip-rule="evenodd" fill="#35495E" cx="50" cy="72" r="2"/></svg>