<svg width="100" height="100" xmlns="http://www.w3.org/2000/svg"><circle fill-rule="evenodd" clip-rule="evenodd" fill="#4A245A" cx="50" cy="50" r="50"/><clipPath id="a"><circle cx="50" cy="50" r="50"/></clipPath><g fill-rule="evenodd" clip-rule="evenodd" clip-path="url(#a)"><g opacity=".2"><line stroke="#fff" stroke-width="2" x2="17" y2="31" x1="50" y1="12" fill="none"/><line stroke="#fff" stroke-width="2" x1="17" y1="31" x2="-16" y2="12" fill="none"/><line stroke="#fff" stroke-width="2" x2="17" y2="69" x1="17" y1="31" fill="none"/><line stroke="#fff" stroke-width="2" x2="-16" y2="88" x1="17" y1="69" fill="none"/><line stroke="#fff" stroke-width="2" x2="50" y2="88" x1="17" y1="69" fill="none"/><line stroke="#fff" stroke-width="2" x2="50" y2="126" x1="50" y1="88" fill="none"/><line stroke="#fff" stroke-width="2" x1="50" y1="88" x2="83" y2="69" fill="none"/><line stroke="#fff" stroke-width="2" x1="83" y1="69" x2="116" y2="88" fill="none"/><line stroke="#fff" stroke-width="2" x1="83" y1="69" x2="83" y2="31" fill="none"/><line stroke="#fff" stroke-width="2" x1="83" y1="31" x2="116" y2="12" fill="none"/><line stroke="#fff" stroke-width="2" x1="83" y1="31" x2="50" y2="12" fill="none"/><line stroke="#fff" stroke-width="2" x1="50" y1="12" x2="50" y2="-33" fill="none"/><circle fill-rule="evenodd" fill="#fff" cx="83" cy="69" r="4"/><circle fill-rule="evenodd" fill="#4A245A" cx="83" cy="69" r="2"/><circle fill-rule="evenodd" fill="#fff" cx="50" cy="88" r="4"/><circle fill-rule="evenodd" fill="#4A245A" cx="50" cy="88" r="2"/><circle fill-rule="evenodd" fill="#fff" cx="17" cy="69" r="4"/><circle fill-rule="evenodd" fill="#4A245A" cx="17" cy="69" r="2"/><circle fill-rule="evenodd" fill="#fff" cx="17" cy="31" r="4"/><circle fill-rule="evenodd" fill="#4A245A" cx="17" cy="31" r="2"/><circle fill-rule="evenodd" fill="#fff" cx="50" cy="12" r="4"/><circle fill-rule="evenodd" fill="#4A245A" cx="50" cy="12" r="2"/><circle fill-rule="evenodd" fill="#fff" cx="83" cy="31" r="4"/><circle fill-rule="evenodd" fill="#4A245A" cx="83" cy="31" r="2"/></g><path fill="#fff" d="M52.67 30.995c2.578 0 4.698.283 6.361.85 1.927.812 2.891 2.486 2.891 5.021 0 2.289-.729 3.884-2.188 4.782-1.457.898-3.354 1.347-5.69 1.347h-13.081v-12h11.707zm2.075 22.011c2.403.023 4.271.342 5.597.953 2.379 1.091 3.567 3.098 3.567 6.02 0 3.455-1.228 5.791-3.681 7.014-1.353.658-3.244.99-5.67.99h-13.596v-14.977h13.783zm1.796-31l-26.541-.006v54.994l24.751.006c2.783 0 5.362-.247 7.741-.745 2.378-.497 4.439-1.418 6.189-2.761 1.551-1.169 2.844-2.612 3.879-4.327 1.628-2.588 2.44-5.51 2.44-8.769 0-3.159-.711-5.847-2.134-8.061-1.423-2.213-3.532-3.831-6.328-4.851 1.84-.944 3.233-1.989 4.178-3.133 1.691-2.04 2.538-4.739 2.538-8.097 0-3.258-.839-6.056-2.516-8.394-2.785-3.804-7.515-5.757-14.197-5.856z"/></g></svg>