<svg xmlns="http://www.w3.org/2000/svg" width="100" height="100"><path fill-rule="evenodd" clip-rule="evenodd" fill="#24AE5F" d="M23.25 79l-23.25-12v-34.344l51.75-25.656 23.25 12v34.5l-51.75 25.5z"/><path fill-rule="evenodd" clip-rule="evenodd" fill="#1E9450" d="M0 64.554v2.983l23.193 11.932 51.622-25.356v-2.983l-51.622 25.356-23.193-11.932zm0-5.22v2.983l23.193 11.932 51.622-25.355v-2.984l-51.622 25.356-23.193-11.932zm0-10.441v2.983l23.193 11.932 51.622-25.355v-2.983l-51.622 25.355-23.193-11.932zm0 5.22v2.983l23.193 11.932 51.622-25.356v-2.983l-51.622 25.357-23.193-11.933zm0-10.44v2.983l23.193 11.932 51.622-25.356v-2.982l-51.622 25.355-23.193-11.932zm23.251 1.462l-23.251-12.051v3.013l23.251 12.05 51.752-25.607v-3.013l-51.752 25.608zm-23.251-6.682v2.983l23.251 11.932 51.752-25.356v-2.983l-51.752 25.356-23.251-11.932z"/><path fill-rule="evenodd" clip-rule="evenodd" fill="#24AE5F" d="M48.133 91.884l-23.135-11.933v-29.304l51.495-25.355 23.507 12.007v29l-51.867 25.585z"/><path fill-rule="evenodd" clip-rule="evenodd" fill="#1E9450" d="M25 77.085v2.983l23.25 11.932 51.75-25.356v-2.983l-51.75 25.356-23.25-11.932zm0-5.22v2.983l23.25 11.932 51.75-25.356v-2.983l-51.75 25.355-23.25-11.931zm0-10.441v2.983l23.25 11.932 51.75-25.356v-2.983l-51.75 25.356-23.25-11.932zm0 5.22v2.983l23.25 11.933 51.75-25.356v-2.983l-51.75 25.355-23.25-11.932zm0-10.44v2.983l23.25 11.932 51.75-25.356v-2.983l-51.75 25.356-23.25-11.932zm23.25 6.367l-23.25-11.931v2.983l23.25 11.932 51.75-25.356v-2.983l-51.75 25.355z"/><path opacity=".1" d="M23.193 45.165l-23.193-11.915v34.344l23.25 11.906-.057-34.335z"/><path opacity=".1" d="M48.193 62.6l-23.193-11.915v29.292l23.25 11.906-.057-29.283z"/><path fill-rule="evenodd" clip-rule="evenodd" fill="#1E9450" d="M59.996 50.609l-11.363 5.459-9.702-5.22 13.138-6.436s-.912-2.62-.354-3.019c-.01.047-19.386 9.692-19.386 9.692l16.583 8.291 17.048-8.523s-1.669.055-3.148-.006c-1.502-.06-2.816-.238-2.816-.238zm13.446-3.496l20.058-9.613-16.299-8.849s-7.878 3.939-17.032 8.515c2.582-.133 4.697.978 4.697.978l12.126-5.94 10.448 5.221-13.99 6.72-.008 2.968z"/><path fill="#1E9450" d="M64.235 46.958c.715.015 1.378-.086 1.99-.302l-3.529-1.87-.3.078-.384.123c-.523.157-1.059.302-1.61.433-.551.131-1.111.213-1.68.246s-1.137-.001-1.702-.101c-.566-.1-1.13-.299-1.693-.597-.574-.304-.973-.63-1.196-.977-.223-.348-.306-.694-.25-1.04.056-.346.236-.686.538-1.019.302-.334.686-.641 1.151-.924l-1.3-.689.981-.52 1.3.689c.555-.235 1.133-.425 1.734-.57.601-.145 1.211-.23 1.831-.255.62-.024 1.249.022 1.887.137.638.116 1.267.319 1.886.612l-2.361 1.251c-.461-.233-.983-.362-1.564-.389-.581-.026-1.06.061-1.437.261l2.989 1.584.509-.162.559-.171c1.045-.315 1.956-.502 2.731-.562.775-.058 1.449-.048 2.02.031.571.08 1.056.205 1.455.374.399.171.74.331 1.021.48.248.131.499.329.754.594.255.265.405.576.449.934.045.358-.059.753-.309 1.184-.251.431-.764.882-1.538 1.353l1.435.761-.981.52-1.435-.761c-1.332.61-2.69.918-4.075.924-1.385.007-2.797-.313-4.237-.959l2.344-1.242c.629.346 1.302.526 2.017.541zm3.45-1.229c.143-.153.233-.311.27-.474.037-.163.012-.326-.074-.489-.086-.163-.264-.316-.535-.459-.439-.233-.904-.335-1.395-.308-.491.028-1.154.167-1.988.418l3.242 1.718c.177-.117.338-.252.48-.406zm-10.605-3.338c-.121.124-.195.255-.22.394-.026.139.007.277.098.413.091.137.255.268.492.393.372.197.775.288 1.21.272.435-.016.981-.133 1.637-.349l-2.753-1.458c-.188.099-.343.211-.464.335z"/><path fill-rule="evenodd" clip-rule="evenodd" fill="#1E9450" d="M34.583 32.609l-11.363 5.459-9.702-5.22 13.138-6.436s-.913-2.62-.354-3.019c-.01.047-19.386 9.692-19.386 9.692l16.583 8.291 17.048-8.523s-1.669.055-3.148-.006c-1.502-.06-2.816-.238-2.816-.238zm13.446-3.496l20.058-9.613-16.299-8.849s-7.878 3.939-17.032 8.515c2.582-.133 4.697.978 4.697.978l12.126-5.94 10.448 5.221-13.989 6.72-.009 2.968z"/><path fill="#1E9450" d="M38.822 28.958c.715.015 1.378-.085 1.99-.302l-3.53-1.87-.3.078-.384.123c-.523.157-1.06.302-1.61.433-.551.131-1.111.213-1.68.246s-1.136-.001-1.702-.101c-.566-.1-1.13-.299-1.693-.597-.574-.304-.973-.63-1.196-.977-.223-.348-.306-.694-.25-1.04.057-.346.236-.685.538-1.018.302-.334.686-.641 1.151-.924l-1.3-.689.981-.52 1.3.689c.555-.235 1.133-.425 1.734-.57.601-.145 1.211-.23 1.831-.255.62-.024 1.249.022 1.887.137.638.116 1.267.319 1.886.612l-2.361 1.251c-.461-.233-.983-.362-1.564-.389-.581-.026-1.06.061-1.437.261l2.989 1.584.509-.163.559-.171c1.045-.315 1.956-.502 2.731-.562.775-.059 1.449-.048 2.02.031.571.08 1.056.205 1.455.375.399.171.74.331 1.021.48.248.131.499.329.754.594.255.265.405.576.449.934.045.358-.059.753-.309 1.184-.251.431-.764.882-1.538 1.353l1.435.761-.981.52-1.435-.761c-1.332.61-2.69.918-4.075.924-1.385.007-2.797-.313-4.237-.959l2.344-1.242c.63.345 1.303.525 2.018.54zm3.45-1.229c.143-.153.233-.311.269-.474.037-.163.012-.326-.074-.489-.086-.163-.264-.316-.535-.46-.439-.233-.904-.335-1.395-.308l-1.988.419 3.242 1.718c.178-.117.338-.252.481-.406zm-10.605-3.338c-.121.124-.195.255-.22.394-.026.139.007.277.098.413.092.137.255.268.492.393.372.197.775.288 1.211.272.435-.016.981-.133 1.637-.349l-2.753-1.458c-.189.099-.344.211-.465.335z"/></svg>