<svg xmlns="http://www.w3.org/2000/svg" width="99.979" height="99.977" viewBox="-0.003 0 99.979 99.977" enable-background="new -0.003 0 99.979 99.977"><path fill="#EBECED" d="M92.869 7.105c9.478 9.476 9.478 24.832 0 34.308l-51.458 51.456c-9.475 9.474-24.833 9.474-34.307 0-9.476-9.475-9.476-24.832 0-34.308l51.458-51.456c9.475-9.473 24.834-9.473 34.307 0z"/><path fill="#3B97D3" d="M32.548 33.122l-25.443 25.441c-9.476 9.476-9.476 24.833 0 34.308 9.474 9.475 24.832 9.475 34.307 0l25.438-25.441-34.302-34.308z"/><rect x="24.735" y="49.997" transform="matrix(-.707 -.707 .707 -.707 47.569 121.698)" fill="#2086BF" width="48.507" height="2"/><path fill="#55A6DC" d="M38.096 41.51l-25.396 25.396c-2.304 2.303-2.304 6.034 0 8.339 2.303 2.303 6.035 2.303 8.339 0l25.396-25.396-8.339-8.339z"/><path fill="#EFF0F1" d="M75.244 12.7c-2.306-2.305-6.037-2.305-8.343 0l-27.391 27.396 8.339 8.339 27.396-27.396c2.301-2.303 2.301-6.036-.001-8.339z"/><rect x="41.979" y="39.077" transform="matrix(-.707 .707 -.707 -.707 105.169 46.392)" fill="#4F9ED4" width="2" height="11.79"/></svg>