<svg xmlns="http://www.w3.org/2000/svg" width="100.054" height="99.999" viewBox="-0.052 0.001 100.054 99.999" enable-background="new -0.052 0.001 100.054 99.999"><path fill="#EBEEEF" d="M99.98 59.968s-.01-1.188-2.021-2.002c-8.553-4.242-42.326-20.5-42.326-20.5-1.232-.616-2.229-.616-3.461 0 0 0-40.69 19.967-50.227 24.646-2.01.64-1.981 1.974-1.981 1.974-.021.008-.02 8.983 0 8.979 0 0 .034 1.215 2.021 1.91 8.546 3.845 42.265 19.564 42.265 19.564 1.231.614 2.229.614 3.461 0 0 0 40.562-19.354 50.223-23.727 1.949-.666 2.047-1.926 2.047-1.926.024.012.031-8.911-.001-8.918z"/><path fill="#34495E" d="M30.462 60.748c4.684-2.346 12.275-2.346 16.96 0 4.684 2.344 4.684 6.146 0 8.488-4.685 2.346-12.276 2.346-16.96 0-4.683-2.343-4.683-6.145 0-8.488z"/><path fill="#34495E" d="M53.462 50.748c4.685-2.345 12.275-2.345 16.96 0 4.684 2.344 4.684 6.146 0 8.488-4.685 2.346-12.275 2.346-16.96 0-4.683-2.343-4.683-6.145 0-8.488z"/><path fill="#C0392C" d="M55.586 49.311c3.514-1.758 9.207-1.758 12.721 0 1.625.814 2.498-.138 2.619.928.018.161.02 3.322.004 3.482-.106 1.075-.98 2.136-2.623 2.957-3.514 1.758-9.207 1.758-12.721 0-1.599-.8-2.469-1.826-2.613-2.871-.021-.156-.024-3.312-.016-3.467.075-1.101.951-.19 2.629-1.029z"/><path fill="#E74C3C" d="M55.586 47.311c3.514-1.758 9.207-1.758 12.721 0 3.512 1.758 3.512 4.608 0 6.367-3.514 1.758-9.207 1.758-12.721 0-3.513-1.759-3.513-4.609 0-6.367z"/><path fill="#95A5A6" d="M32.586 59.311c3.513-1.758 9.208-1.758 12.72 0 3.513 1.758 3.513 5.608 0 7.367-3.512 1.758-9.207 1.758-12.72 0-3.513-1.759-3.513-5.61 0-7.367z"/><path fill="#34495E" d="M34.958 25.001v37c0 1.104 1.791 2 4 2s4-.896 4-2v-37h-8z"/><path fill="#2C3E50" d="M34.958 31.445c1.274.353 2.612.556 4 .556 1.387 0 2.725-.204 4-.556v-6.443h-8v6.443z"/><path fill="#E74C3C" d="M38.958.001c8.284 0 15 6.716 15 15s-6.716 15-15 15-15-6.716-15-15 6.716-15 15-15z"/><path fill="#C0392C" d="M26.958 12.001c0-3.376 1.129-6.481 3.012-8.988-3.644 2.737-6.012 7.081-6.012 11.988 0 8.284 6.716 15 15 15 4.908 0 9.251-2.368 11.986-6.012-2.506 1.883-5.61 3.012-8.986 3.012-8.284 0-15-6.716-15-15z"/><path fill="#BDC3C7" d="M99.98 68.887s-.099 1.26-2.047 1.926c-9.66 4.371-50.224 23.726-50.224 23.726-1.232.615-2.229.615-3.461 0 0 0-33.719-15.718-42.265-19.562-1.987-.694-2.021-1.91-2.021-1.91-.006.001-.01-.856-.012-2.039-.006 2.642-.001 7.041.012 7.039 0 0 .034 1.216 2.021 1.91 8.548 3.843 42.267 19.562 42.267 19.562 1.231.614 2.229.614 3.461 0 0 0 40.562-19.354 50.223-23.727 1.949-.666 2.047-1.926 2.047-1.926.02.008.025-4.646.02-7.231-.007 1.281-.013 2.236-.021 2.232z"/><path fill="#D4D7DA" d="M99.977 59.917c-.021.149-.227 1.272-2.043 1.896-9.66 4.371-50.223 23.726-50.223 23.726-1.232.615-2.229.615-3.461 0 0 0-33.718-15.718-42.265-19.562-1.959-.685-2.02-1.869-2.021-1.903v.014c-.021.006-.02 8.983 0 8.979 0 0 .034 1.216 2.021 1.91 8.546 3.843 42.265 19.562 42.265 19.562 1.231.614 2.229.614 3.461 0 0 0 40.562-19.354 50.223-23.727 1.949-.666 2.047-1.926 2.047-1.926.024.012.031-8.912 0-8.918l-.004-.051z"/><path fill="#BDC3C7" d="M44.25 85.539s-33.718-15.719-42.265-19.562c-1.959-.687-2.02-1.869-2.021-1.903v.014c-.021.008-.02 8.983 0 8.979 0 0 .034 1.216 2.021 1.91 8.546 3.843 42.265 19.562 42.265 19.562.615.307 1.173.461 1.73.461v-9c-.557 0-1.115-.154-1.73-.461z"/><path fill="#95A5A6" d="M44.25 94.539s-33.718-15.719-42.265-19.562c-1.987-.694-2.021-1.91-2.021-1.91-.006.001-.01-.854-.012-2.039-.006 2.642-.001 7.041.012 7.039 0 0 .034 1.216 2.021 1.91 8.546 3.843 42.265 19.562 42.265 19.562.616.308 1.173.461 1.73.461v-5c-.557 0-1.115-.154-1.73-.461z"/></svg>