<svg xmlns="http://www.w3.org/2000/svg" width="100" height="100"><path fill="#2C3E50" d="M13 20h74c1.656 0 3 1.343 3 3v7h-80v-7c0-1.657 1.343-3 3-3z"/><path fill="#BDC3C7" d="M6 30h88c3.312 0 6 2.687 6 6v38c0 3.312-2.688 6-6 6h-88c-3.313 0-6-2.688-6-6v-38c0-3.313 2.687-6 6-6z"/><path fill="#2C3E50" d="M14 60h72c2.209 0 4 1.791 4 4v16h-80v-16c0-2.209 1.791-4 4-4z"/><path fill="#EBEDEE" d="M20 70h60v30h-60v-30z"/><path fill="#EBEDEE" d="M80 30v-30h-60v30h-10v16c0 2.209 1.791 4 4 4h72c2.209 0 4-1.791 4-4v-16h-10z"/><path fill="#BDC3C7" d="M30 14v2h40v-2h-40zm0 6h40v-2h-40v2zm0 4h40v-2h-40v2z"/><path fill="#BDC3C7" d="M30 6v2h40v-2h-40zm0 6h40v-2h-40v2zm0 4h40v-2h-40v2z"/><rect x="20" y="70" fill="#D3D5D6" width="60" height="2"/><rect x="20" y="28" fill="#D3D5D6" width="60" height="2"/><path fill="#E74C3C" d="M23 37c1.657 0 3 1.343 3 3s-1.343 3-3 3-3-1.343-3-3 1.343-3 3-3z"/></svg>