<svg width="100" height="100" xmlns="http://www.w3.org/2000/svg"><path fill="#35495E" d="M74 15h-68c-3.313 0-6 2.686-6 6v73c0 3.313 2.687 6 6 6h68c3.314 0 6-2.687 6-6v-73c0-3.314-2.686-6-6-6z"/><rect x="49" y="15" rx="5" fill-rule="evenodd" clip-rule="evenodd" opacity=".2" width="32" height="76"/><path fill="#fff" d="M76 93c0 1.657-1.343 3-3 3h-66c-1.657 0-3-1.343-3-3v-61h72v61z"/><circle fill-rule="evenodd" clip-rule="evenodd" fill="#D15527" cx="9" cy="24" r="3"/><circle fill-rule="evenodd" clip-rule="evenodd" fill="#F19B2D" cx="17" cy="24" r="3"/><circle fill-rule="evenodd" clip-rule="evenodd" fill="#53BB72" cx="25" cy="24" r="3"/><rect x="8" y="36" fill-rule="evenodd" clip-rule="evenodd" fill="#14A085" width="64" height="56"/><rect x="34" y="36" fill-rule="evenodd" clip-rule="evenodd" fill="#26B99A" width="38" height="56"/><g fill-rule="evenodd" clip-rule="evenodd"><path fill="#35495E" d="M94 0h-36c-3.313 0-6 2.687-6 6v76.001c0 3.312 2.687 5.998 6 5.998h36c3.314 0 6-2.686 6-5.998v-76.001c0-3.313-2.686-6-6-6zm2 74h-40v-60h40v60z"/><rect x="56" y="14" fill="#fff" width="40" height="60"/><rect x="59" y="17" fill="#14A085" width="34" height="54"/><rect x="59" y="44" fill="#26B99A" width="34" height="27"/><path fill="#2C3D4F" d="M69.5 6h12c.828 0 1.5.672 1.5 1.5 0 .829-.672 1.5-1.5 1.5h-12c-.828 0-1.5-.671-1.5-1.5 0-.828.672-1.5 1.5-1.5z"/><path fill="#2C3D4F" d="M76 78.001c1.657 0 3 1.342 3 2.998 0 1.658-1.343 3-3 3-1.656 0-3-1.342-3-3 0-1.656 1.344-2.998 3-2.998z"/></g></svg>