<svg xmlns="http://www.w3.org/2000/svg" xmlns:xlink="http://www.w3.org/1999/xlink" width="101" height="100" viewBox="-1 -0.027 101 100" enable-background="new -1 -0.027 101 100"><path fill="#ECF0F1" d="M50-.027c27.613 0 50 22.386 50 50 0 27.613-22.387 50-50 50-27.614 0-50-22.387-50-50 0-27.614 22.386-50 50-50z"/><defs><circle id="a" cx="50" cy="49.973" r="50"/></defs><clipPath id="b"><use xlink:href="#a" overflow="visible"/></clipPath><g clip-path="url(#b)"><rect x="-1" y="71.973" fill="#526476" width="80" height="49"/><path fill="#F1C40E" d="M29.5 56.973h41c1.381 0 2.5 1.118 2.5 2.5 0 1.381-1.119 2.5-2.5 2.5h-41c-1.381 0-2.5-1.119-2.5-2.5s1.119-2.5 2.5-2.5z"/><path fill="#F39C12" d="M30 52.973h40v4h-40v-4z"/><path fill="#E79410" d="M30 52.973h20v4h-20v-4z"/><path fill="#F1C40E" d="M47 33.973h6c10.493 0 19 8.507 19 19h-44c0-10.493 8.507-19 19-19z"/><path fill="#F39C12" d="M54 29.473c0-.828-.672-1.5-1.5-1.5h-5c-.828 0-1.5.672-1.5 1.5 0 .827.672 1.5 1.5 1.5h-.5c1.104 0 2 .896 2 2v1h2v-1c0-1.104.896-2 2-2h-.5c.828 0 1.5-.672 1.5-1.5z"/><path fill="#E79410" d="M47.5 27.973c-.828 0-1.5.672-1.5 1.5 0 .827.672 1.5 1.5 1.5h-.5c1.104 0 2 .896 2 2v1h1v-6h-2.5z"/><path fill="#E5BA0D" d="M50 33.973h-3c-10.493 0-19 8.507-19 19h22v-19z"/><path fill="#E5BA0D" d="M29.5 56.973c-1.381 0-2.5 1.118-2.5 2.5 0 1.381 1.119 2.5 2.5 2.5h20.5v-5h-20.5z"/><polygon fill="#455564" points="-1,72.973 -1,120.973 36,120.973 79,77.973 79,72.973"/><rect x="-1" y="61.973" fill="#2C3E50" width="85" height="12"/></g></svg>