<svg xmlns="http://www.w3.org/2000/svg" width="100" height="100"><circle fill="#33495F" cx="50" cy="50" r="50"/><clipPath><circle cx="50" cy="50" r="50"/></clipPath><clipPath id="a"><path d="M100 50c0 27.614-22.387 50-50 50-27.614 0-50-22.386-50-50s22.386-50 50-50h50v50z"/></clipPath><g clip-path="url(#a )" fill="#fff"><path opacity=".2" clip-path="url(#a)" enable-background="new" d="M31 19.5c2.55-.45 4.051-1.95 4.5-4.5.45 2.55 1.951 4.05 4.5 4.5-2.549.451-4.05 1.95-4.5 4.5-.449-2.55-1.95-4.049-4.5-4.5z"/><path opacity=".1" clip-path="url(#a)" enable-background="new" d="M71 74.5c2.55-.45 4.051-1.95 4.5-4.5.45 2.55 1.951 4.05 4.5 4.5-2.549.451-4.05 1.95-4.5 4.5-.449-2.55-1.95-4.049-4.5-4.5z"/><path opacity=".1" clip-path="url(#a)" enable-background="new" d="M11 64.5c2.55-.45 4.051-1.95 4.5-4.5.45 2.55 1.951 4.05 4.5 4.5-2.549.451-4.05 1.95-4.5 4.5-.449-2.55-1.95-4.049-4.5-4.5z"/></g><g clip-path="url(#a)"><path fill="#E94B35" d="M100 .1c-.156.018-.117.058-.1-.1-23.316 2.979-36.539 12.281-44.035 22.035-.268.349-.528.698-.782 1.047l-.008.01c-8.06 11.104-8.988 22.72-9.075 25.908h-1l-1 3 4 4 3-1v-1c1.152-.021 3.741-.111 7.066-.773l.002.002c.729-.182.932.076.932 3.771v9c0 1.809.943 2.497 1.945 1.494 2.423-2.428 3.003-3.023 8.5-8.528 4.16-4.167 4.676-6.595 2.957-11.059 11.551-6.538 24.03-20.019 27.598-47.807z"/><path fill="#C23824" d="M48 56l-4-4 1-3h2l4 4v2l-3 1zm4-28c-1.718-.69-2-1-4-1s-4.183 1.38-6.861 4.063c-4.254 4.259-4.85 4.839-8.516 8.508-1.198 1.2.64 1.429 3.377 1.429 5.233 0 9.297-.125 10.791 1.42 1.973 2.04 5.209-14.42 5.209-14.42z"/><path fill="#C23824" d="M100 0c-.639 4.973-1.566 9.579-2.721 13.678-1.049-1.97-2.562-4.364-4.5-6.272-2.151-2.12-4.812-3.632-6.826-4.585 6.026-1.73 10.83-2.409 14.047-2.821z"/><path opacity=".3" fill="#fff" enable-background="new" d="M72.402 47.907c1.719 4.463 1.312 6.788-2.854 10.954-.844.844-7.828 7.859-8.604 8.633-1.003 1.002-1.911.315-1.944-1.494v-.652c3-3 9.689-8.938 11-11.348.768-1.411.352-3.654 0-5-3.312 1.76-11.516 4.094-11.932 4.229-3.162.646-5.601.714-7.068.771v-.656s29.975-9.663 49-53.344c-3.594 28.047-16.047 41.369-27.598 47.907z"/><path fill="#fff" d="M77.5 28c-3.584 0-6.5-2.916-6.5-6.5s2.916-6.5 6.5-6.5 6.5 2.916 6.5 6.5-2.916 6.5-6.5 6.5z"/><path fill="#C23824" d="M77.5 16c3.037 0 5.5 2.462 5.5 5.5s-2.463 5.5-5.5 5.5-5.5-2.462-5.5-5.5 2.463-5.5 5.5-5.5m0-2c-4.137 0-7.5 3.364-7.5 7.5s3.363 7.5 7.5 7.5 7.5-3.364 7.5-7.5-3.363-7.5-7.5-7.5z"/><path fill="#D7DCDE" d="M44 52l4 4-35 36-6-6 37-34z"/><path fill="#F7F7F7" d="M43.875 52l2 2-38.375 37.5-3-3 39.375-36.5z"/></g></svg>