<svg xmlns="http://www.w3.org/2000/svg" xmlns:xlink="http://www.w3.org/1999/xlink" width="100" height="100"><path fill="#C8CACA" d="M47.931 3.242v-1.475c-16.767.791-28.518 5.227-35.851 13.557-6.291 7.147-9.544 17.876-10.13 32.082h1.483c1.265-29.27 14.472-42.76 44.498-44.164zm48.585 43.914l1.473.109c-.586-14.216-3.84-24.562-10.131-31.714-7.333-8.334-19.085-12.775-35.851-13.565v1.476c30.025 1.404 43.244 14.403 44.509 43.694zm-93.084 5.563h-1.482c.586 14.139 3.9 24.692 10.186 31.805 7.328 8.289 19.071 12.705 35.827 13.49v-1.468c-30.006-1.396-43.267-14.698-44.531-43.827zm48.605 43.609v1.469c16.756-.787 28.499-5.206 35.826-13.501 6.287-7.116 9.537-17.398 10.123-31.546h-1.455c-1.263 29.148-14.488 42.182-44.494 43.578z"/><path fill="#35495E" d="M3 47c-1.657 0-3 1.344-3 3 0 1.657 1.343 3 3 3s3-1.343 3-3c0-1.656-1.343-3-3-3zm94 0c-1.657 0-3 1.344-3 3 0 1.657 1.343 3 3 3s3-1.343 3-3c0-1.656-1.343-3-3-3zm-47-47c-1.657 0-3 1.344-3 3 0 1.657 1.343 3 3 3s3-1.343 3-3c0-1.656-1.343-3-3-3zm0 94c-1.657 0-3 1.343-3 3s1.343 3 3 3 3-1.343 3-3-1.343-3-3-3z"/><path fill="#E64B3C" d="M50 5c-24.853 0-45 20.147-45 45 0 24.854 20.147 45 45 45 24.854 0 45-20.146 45-45 0-24.853-20.146-45-45-45zm0 69c-13.255 0-24-10.745-24-24s10.745-24 24-24 24 10.745 24 24-10.745 24-24 24z"/><path d="M50 5c-24.853 0-45 20.147-45 45 0 24.854 20.147 45 45 45 24.854 0 45-20.146 45-45 0-24.853-20.146-45-45-45zm0 69c-13.255 0-24-10.745-24-24s10.745-24 24-24 24 10.745 24 24-10.745 24-24 24z" fill="none"/><defs><path id="a" d="M50 5c-24.854 0-45 20.147-45 45 0 24.854 20.146 45 45 45s45-20.146 45-45c0-24.853-20.146-45-45-45zm0 69c-13.255 0-24-10.745-24-24s10.745-24 24-24 24 10.745 24 24-10.745 24-24 24z"/></defs><clipPath id="b"><use xlink:href="#a" overflow="visible"/></clipPath><g clip-path="url(#b)" fill="#C54132"><polygon points="67,58 100,91 100,58"/><polygon points="50,41 50,-1 13,4"/></g><defs><path id="c" d="M50 5c-24.853 0-45 20.147-45 45 0 24.854 20.147 45 45 45 24.854 0 45-20.146 45-45 0-24.853-20.146-45-45-45zm0 69c-13.255 0-24-10.745-24-24s10.745-24 24-24 24 10.745 24 24-10.745 24-24 24z"/></defs><clipPath id="d"><use xlink:href="#c" overflow="visible"/></clipPath><path clip-path="url(#d)" fill="#EBECED" d="M70 38v24h26v-24h-26zm-66 24h26v-24h-26v24zm34 34h24v-26h-24v26zm0-66h24v-26h-24v26z"/></svg>