<svg xmlns="http://www.w3.org/2000/svg" width="100" height="100.016" viewBox="0 -0.008 100 100.016" enable-background="new 0 -0.008 100 100.016"><path fill="#23475F" d="M88.555-.008h-5.555v.016c0 1.104-.896 2-2 2h-62c-1.104 0-2-.896-2-2v-.016h-13c-2.209 0-4 1.791-4 4v92.016c0 2.209 1.791 4 4 4h92c2.209 0 4-1.791 4-4v-84.491c.049-.089-11.436-11.454-11.445-11.525z"/><path fill="#1C3C50" d="M81.04 53.008h-62.08c-1.104 0-2 .896-2 2v45h66.08v-45c0-1.106-.895-2-2-2z"/><path fill="#1C3C50" d="M19.083 43.008h61.834c1.104 0 2-.896 2-2v-40.461c-.235.84-1.001 1.46-1.917 1.46h-62c-.916 0-1.681-.62-1.917-1.46v40.46c0 1.106.896 2.001 2 2.001z"/><path fill="#EBF0F1" d="M22 55.977h56c1.104 0 2 .896 2 2v37.031c0 1.104-.896 2-2 2h-56c-1.104 0-2-.396-2-1.5v-37.531c0-1.105.896-2 2-2z"/><path fill="#BCC4C8" d="M25 77.008h50v1h-50v-1z"/><path fill="#BCC4C8" d="M25 87.008h50v1h-50v-1z"/><path fill="#1C3C50" d="M7 84.008h3c1.104 0 2 .896 2 2v3c0 1.104-.896 2-2 2h-3c-1.104 0-2-.896-2-2v-3c0-1.106.896-2 2-2z"/><path fill="#1C3C50" d="M90 84.008h3c1.104 0 2 .896 2 2v3c0 1.104-.896 2-2 2h-3c-1.104 0-2-.896-2-2v-3c0-1.106.896-2 2-2z"/><path fill="#BCC4C8" d="M37 1.981v36.026c0 1.104.896 2 2 2h39c1.104 0 2-.896 2-2v-36.026c0 .007-42.982.007-43 0zm37 29.027c0 1.104-.896 2-2 2h-6c-1.104 0-2-.896-2-2v-20.027c0-1.104.896-2 2-2h6c1.104 0 2 .896 2 2v20.027z"/><path fill="#FF9D00" d="M78 55.977h-56c-1.104 0-2 .896-2 2v10.031h60v-10.031c0-1.105-.896-2-2-2z"/></svg>