<svg xmlns="http://www.w3.org/2000/svg" xmlns:xlink="http://www.w3.org/1999/xlink" width="100" height="100"><path fill="#2980BA" d="M50 0c27.613 0 50 22.386 50 50s-22.387 50-50 50c-27.614 0-50-22.386-50-50s22.386-50 50-50z"/><defs><circle id="a" cx="50" cy="50" r="50"/></defs><clipPath id="b"><use xlink:href="#a" overflow="visible"/></clipPath><g clip-path="url(#b)"><path fill="#2D3E50" d="M-15 17h133v87h-133v-87z"/><path fill="#EDF0F1" d="M51 17v95h32v-95h-32zm-34 95h32v-95h-32v95z"/><polygon fill="#E64B3C" points="73,26 27,26 45.095,47.905 38,55 38,103 62,103 62,55 54.902,47.902"/><path fill="#D5D9D8" d="M26 17l.049 36 23.951-24 .082-12h-24.082z"/><path fill="#D5D9D8" d="M74 17l-.049 36-23.858-24-.081-12h23.988z"/><polygon fill="#C03A2B" points="73,26 50.021,26 50,26 27,26 38.771,40.251 50.045,28.956 61.248,40.222"/><polygon fill="#fff" points="69,12 69,17 31,17 31,12 26,17 26,50 50,26 74,50 74,17"/><polygon fill="#C03A2B" points="56,49 54.902,47.902 55.646,47 44.347,47 45.095,47.905 44,49"/><path fill="#DE9273" d="M31-1v19.674h.045c.241 1.587 2.065 3.15 5.517 4.362 7.42 2.606 19.452 2.606 26.872 0 3.45-1.212 5.274-2.775 5.518-4.362h.048v-19.674h-38z"/><path fill="#BE7C63" d="M69-1s.014 4.435-.018 4.467c-3.274 3.41-7.88 5.533-12.982 5.533h-12c-5.122 0-9.744-2.139-13.022-5.573.024.025.022-4.427.022-4.427h38z"/><path fill="#E39D82" d="M50-1v25.991c4.861 0 9.725-.652 13.434-1.955 3.45-1.212 5.274-2.775 5.518-4.362h.048v-19.674h-19z"/><path fill="#C0866E" d="M56 9c5.102 0 9.708-2.123 12.982-5.533.01-.009.015-.395.018-.93v-3.537h-19v10h6z"/></g></svg>