<svg xmlns="http://www.w3.org/2000/svg" xmlns:xlink="http://www.w3.org/1999/xlink" width="100" height="100"><path fill="#E64B3C" d="M50 0c27.613 0 50 22.386 50 50s-22.387 50-50 50c-27.614 0-50-22.386-50-50s22.386-50 50-50z"/><defs><circle id="a" cx="50" cy="50" r="50"/></defs><clipPath id="b"><use xlink:href="#a" overflow="visible"/></clipPath><g clip-path="url(#b)"><path fill="#C03A2B" d="M35 25l-67 67 27 27h57v-90l-17-4z"/><path fill="#EBECED" d="M50 20c14.359 0 26 11.641 26 26v43c0 14.359-11.641 26-26 26s-26-11.641-26-26v-43c0-14.359 11.641-26 26-26z"/><path fill="#A1A5A9" d="M46 43h8c1.657 0 3 1.343 3 3v13c0 1.657-1.343 3-3 3h-8c-1.657 0-3-1.343-3-3v-13c0-1.657 1.343-3 3-3z"/><path fill="#2D3E50" d="M50 45c.553 0 1 .447 1 1s-.447 1-1 1c-.552 0-1-.447-1-1s.448-1 1-1z"/><path fill="#BDC2C7" d="M51 49h-15v3h10v4c0 1.657 1.343 3 3 3h2c1.657 0 3-1.343 3-3v-4h10v-3h-13z"/><path fill="#2D3E50" d="M50 53c1.104 0 2 .896 2 2s-.896 2-2 2-2-.896-2-2 .896-2 2-2z"/><path fill="#35495E" d="M66 43h4c1.657 0 3 1.343 3 3v9c0 1.657-1.343 3-3 3h-4c-1.657 0-3-1.343-3-3v-9c0-1.657 1.343-3 3-3z"/><path fill="#2D3E50" d="M66 43h4v15h-4v-15z"/><path fill="#35495E" d="M30 43h4c1.657 0 3 1.343 3 3v9c0 1.657-1.343 3-3 3h-4c-1.657 0-3-1.343-3-3v-9c0-1.657 1.343-3 3-3z"/><path fill="#2D3E50" d="M30 43h4v15h-4v-15z"/><path fill="#F29C1F" d="M50 69c-6.075 0-11 4.925-11 11 0 3.859 1.992 7.25 5 9.213v2.287c0 .828.671 1.5 1.5 1.5s1.5-.672 1.5-1.5c0 .828.671 1.5 1.5 1.5s1.5-.672 1.5-1.5c0 .828.672 1.5 1.5 1.5s1.5-.672 1.5-1.5c0 .828.672 1.5 1.5 1.5s1.5-.672 1.5-1.5v-2.287c3.008-1.963 5-5.354 5-9.213 0-6.075-4.925-11-11-11zm-3.5 14c-1.381 0-2.5-1.119-2.5-2.5s1.119-2.5 2.5-2.5 2.5 1.119 2.5 2.5-1.119 2.5-2.5 2.5zm7 0c-1.381 0-2.5-1.119-2.5-2.5s1.119-2.5 2.5-2.5 2.5 1.119 2.5 2.5-1.119 2.5-2.5 2.5z"/><path fill="#919598" d="M37 53h9v-2h-9v2zm17-2v2h9v-2h-9z"/><g fill="#D4D5D6"><rect x="37" y="51" width="6" height="2"/><rect x="57" y="51" width="6" height="2"/></g><g fill="#AAAFB4"><rect x="54" y="51" width="9" height="1"/><rect x="37" y="51" width="9" height="1"/></g></g></svg>