<svg xmlns="http://www.w3.org/2000/svg" xmlns:xlink="http://www.w3.org/1999/xlink" width="100" height="100"><path fill="#EBEEEF" d="M50 0c27.613 0 50 22.386 50 50s-22.387 50-50 50c-27.614 0-50-22.386-50-50s22.386-50 50-50z"/><defs><circle id="a" cx="50" cy="50" r="50"/></defs><clipPath id="b"><use xlink:href="#a" overflow="visible"/></clipPath><g clip-path="url(#b)"><path fill="#F1C40E" d="M45 61h10c11.046 0 20 8.954 20 20v8c0 11.046-8.954 20.001-20 20.001h-10c-11.046 0-20-8.955-20-20.001v-8c0-11.046 8.954-20 20-20z"/><path fill="#FFF55C" d="M49.865 79.994c-2.042 0-3.863 1.538-3.863 3.152 0 .685.51 1.19 1.24 1.19.847 0 1.152-.504 1.38-.985.244-.519.439-.963 1.335-.963.793 0 1.398.377 1.398 1.061 0 .588-.701.798-1.318 1.267-.72.546-1.535 1.166-1.535 2.226 0 .606.429 1.223 1.224 1.223.889 0 1.088-.49 1.25-.907.061-.157.116-.308.207-.438.125-.178.436-.396.764-.625.867-.608 2.057-1.441 2.057-2.938 0-2.409-2.231-3.263-4.139-3.263zm-.1 9.126c-.78 0-1.412.646-1.412 1.438 0 .797.632 1.439 1.412 1.439.78 0 1.411-.646 1.411-1.439s-.631-1.438-1.411-1.438z"/><path fill="#FFF55C" d="M51 53c7.732 0 14 4.479 14 10.001 0 5.52-6.268 9.999-14 9.999s-14-4.479-14-9.999c0-5.522 6.268-10.001 14-10.001z"/><path fill="#4D301A" d="M33 47.001h36c1.104 0 2 .895 2 1.999v11c0 1.104-.896 2-2 2h-36c-1.104 0-2-.896-2-2v-11c0-1.104.896-1.999 2-1.999z"/><path fill="#DF9274" d="M51 19c11.046 0 20 11.193 20 25 0 13.809-8.954 25-20 25s-20-11.191-20-25c0-13.807 8.954-25 20-25z"/><path fill="#fff" d="M43.5 43c1.933 0 3.5 1.567 3.5 3.501 0 1.932-1.567 3.499-3.5 3.499s-3.5-1.567-3.5-3.499c0-1.934 1.567-3.501 3.5-3.501z"/><path fill="#3498DB" d="M43.5 45c.829 0 1.5.672 1.5 1.501 0 .828-.671 1.499-1.5 1.499s-1.5-.671-1.5-1.499c0-.829.671-1.501 1.5-1.501z"/><path fill="#fff" d="M57.5 43c1.934 0 3.5 1.567 3.5 3.501 0 1.932-1.566 3.499-3.5 3.499s-3.5-1.567-3.5-3.499c0-1.934 1.566-3.501 3.5-3.501z"/><path fill="#3498DB" d="M57.5 45c.828 0 1.5.672 1.5 1.501 0 .828-.672 1.499-1.5 1.499s-1.5-.671-1.5-1.499c0-.829.672-1.501 1.5-1.501z"/><path fill="#4D301A" d="M70.619 39.143c-1.808-11.482-9.903-20.143-19.619-20.143-10.006 0-18.296 9.186-19.768 21.179 1.559.524 11.375 3.339 23.859-5.729 2.589 2.925 7.729 7.181 15.528 4.693z"/><path fill="#C0392C" d="M70.027 37c-1.202.008-.996 3.358-.996 7.5 0 .835-.012 1.637-.02 2.388-1.045 1.618-3.777 5.537-7.025 7.566-2.707 1.692-6.332 2.837-8.23 3.364-.459-1.069-1.52-1.818-2.756-1.818-1.657 0-3 1.343-3 3s1.343 3 3 3c1.391 0 2.551-.952 2.891-2.236 1.27-.306 5.731-1.474 8.916-3.463 2.562-1.603 4.854-4.363 6.262-6.294.1 1.233.353 1.993.958 1.993 3.299 0 5.973-3.358 5.973-7.5s-2.674-7.522-5.973-7.5zm-38.027 0c-3.313-.022-6 3.358-6 7.5s2.687 7.5 6 7.5c1.283 0 1-3.358 1-7.5s.207-7.492-1-7.5z"/></g></svg>