<svg xmlns="http://www.w3.org/2000/svg" width="100" height="100"><path fill="#EBECED" d="M97 0h-5c0 1.657-1.343 3-3 3s-3-1.343-3-3h-5c0 1.657-1.343 3-3 3s-3-1.343-3-3h-5c0 1.657-1.343 3-3 3s-3-1.343-3-3h-5c0 4.971-4.029 9-9 9s-9-4.029-9-9h-5c0 1.657-1.343 3-3 3s-3-1.343-3-3h-5c0 1.657-1.343 3-3 3s-3-1.343-3-3h-5c0 1.657-1.343 3-3 3s-3-1.343-3-3h-5c0 1.657-1.343 3-3 3v76c1.657 0 3 1.343 3 3h5c0-1.657 1.343-3 3-3s3 1.343 3 3h5c0-1.657 1.343-3 3-3s3 1.343 3 3h5c0-1.657 1.343-3 3-3s3 1.343 3 3h5c0-4.971 4.029-9 9-9s9 4.029 9 9h5c0-1.657 1.343-3 3-3s3 1.343 3 3h5c0-1.657 1.343-3 3-3s3 1.343 3 3h5c0-1.657 1.343-3 3-3s3 1.343 3 3h5c0-1.657 1.343-3 3-3v-76c-1.657 0-3-1.343-3-3z"/><path fill="#EBECED" d="M97 0h-5c0 1.657-1.343 3-3 3s-3-1.343-3-3h-5c0 1.657-1.343 3-3 3s-3-1.343-3-3h-5c0 1.657-1.343 3-3 3s-3-1.343-3-3h-5c0 4.971-4.029 9-9 9s-9-4.029-9-9h-5c0 1.657-1.343 3-3 3s-3-1.343-3-3h-5c0 1.657-1.343 3-3 3s-3-1.343-3-3h-5c0 1.657-1.343 3-3 3s-3-1.343-3-3h-5c0 1.657-1.343 3-3 3v76c1.657 0 3 1.343 3 3h5c0-1.657 1.343-3 3-3s3 1.343 3 3h5c0-1.657 1.343-3 3-3s3 1.343 3 3h5c0-1.657 1.343-3 3-3s3 1.343 3 3h5c0-4.971 4.029-9 9-9s9 4.029 9 9h5c0-1.657 1.343-3 3-3s3 1.343 3 3h5c0-1.657 1.343-3 3-3s3 1.343 3 3h5c0-1.657 1.343-3 3-3s3 1.343 3 3h5c0-1.657 1.343-3 3-3v-76c-1.657 0-3-1.343-3-3z"/><path fill="#BDC2C7" d="M86 15h-72c-2.209 0-4 1.791-4 4v44c0 2.209 1.791 4 4 4h72c2.209 0 4-1.791 4-4v-44c0-2.209-1.791-4-4-4zm2 47c0 1.657-1.343 3-3 3h-70c-1.657 0-3-1.343-3-3v-42c0-1.656 1.343-3 3-3h70c1.657 0 3 1.344 3 3v42z"/><path fill="#EBECED" d="M97 84h-5c0 1.657-1.343 3-3 3s-3-1.343-3-3h-5c0 1.657-1.343 3-3 3s-3-1.343-3-3h-5c0 1.657-1.343 3-3 3s-3-1.343-3-3h-5c0 4.971-4.029 9-9 9s-9-4.029-9-9h-5c0 1.657-1.343 3-3 3s-3-1.343-3-3h-5c0 1.657-1.343 3-3 3s-3-1.343-3-3h-5c0 1.657-1.343 3-3 3s-3-1.343-3-3h-5c0 1.657-1.343 3-3 3v13h100v-13c-1.657 0-3-1.343-3-3z"/><path fill="#EBECED" d="M97 84h-5c0 1.657-1.343 3-3 3s-3-1.343-3-3h-5c0 1.657-1.343 3-3 3s-3-1.343-3-3h-5c0 1.657-1.343 3-3 3s-3-1.343-3-3h-5c0 4.971-4.029 9-9 9s-9-4.029-9-9h-5c0 1.657-1.343 3-3 3s-3-1.343-3-3h-5c0 1.657-1.343 3-3 3s-3-1.343-3-3h-5c0 1.657-1.343 3-3 3s-3-1.343-3-3h-5c0 1.657-1.343 3-3 3v13h100v-13c-1.657 0-3-1.343-3-3z"/><path fill="#C13E30" d="M36.216 50.168c-.109-.199-.258-.389-.447-.57-.189-.181-.433-.327-.732-.44-.299-.112-.682-.169-1.148-.169-.97 0-1.692.259-2.166.774-.474.516-.711 1.42-.711 2.711 0 .524.046 1.004.139 1.438.093.435.223.776.39 1.026.23.353.524.619.883.802.359.183.83.272 1.413.272 1.039 0 1.771-.285 2.196-.856.425-.571.638-1.474.638-2.706 0-.551-.064-1.079-.194-1.586-.065-.264-.153-.497-.261-.696zm-1.559 3.719c-.068.291-.173.504-.316.639-.144.135-.312.201-.508.201-.296 0-.522-.158-.678-.476-.156-.315-.234-.907-.234-1.772 0-.854.071-1.441.212-1.758.142-.317.372-.476.69-.476.312 0 .545.155.701.465.156.312.234.917.234 1.819 0 .616-.033 1.069-.101 1.358zm7.352-1.64c.284-.187.492-.377.624-.575.176-.266.264-.551.264-.857 0-.523-.221-.96-.664-1.307-.443-.346-1.126-.52-2.052-.52-.699 0-1.261.14-1.687.417-.545.362-.817.827-.817 1.396 0 .346.094.652.283.918.139.194.359.37.661.528-.394.151-.685.364-.874.642s-.284.614-.284 1.014c0 .408.101.777.302 1.106.202.331.496.581.883.751.388.17.948.256 1.682.256.391 0 .758-.039 1.103-.113.345-.076.633-.194.865-.354.231-.161.426-.389.585-.684.159-.296.239-.613.239-.952 0-.354-.092-.674-.277-.965-.182-.292-.461-.525-.836-.701zm-2.303-1.893c.146-.144.336-.215.569-.215.23 0 .419.073.567.22.148.147.222.336.222.573 0 .226-.071.408-.213.551s-.323.213-.543.213c-.249 0-.448-.07-.598-.215-.149-.145-.224-.334-.224-.567.001-.23.074-.417.22-.56zm1.212 4.212c-.183.192-.389.289-.619.289-.24 0-.452-.096-.638-.285s-.279-.436-.279-.733c0-.315.089-.565.267-.751.178-.186.387-.277.626-.277.243 0 .456.096.64.287.184.19.276.438.276.736.001.296-.09.541-.273.734zm7.543-2.319c.283-.187.491-.377.624-.575.176-.266.265-.551.265-.857 0-.523-.222-.96-.664-1.307-.442-.346-1.126-.52-2.052-.52-.699 0-1.261.14-1.686.417-.545.362-.817.827-.817 1.396 0 .346.095.652.283.918.139.194.359.37.662.528-.394.151-.685.364-.874.642s-.283.614-.283 1.014c0 .408.101.777.302 1.106.201.331.496.581.883.751s.948.256 1.682.256c.39 0 .758-.039 1.103-.113.345-.076.633-.194.864-.354.231-.161.427-.389.585-.684.159-.296.239-.613.239-.952 0-.354-.092-.674-.276-.965-.185-.292-.465-.525-.84-.701zm-2.302-1.893c.146-.144.336-.215.569-.215.229 0 .418.073.567.22.148.146.222.336.222.573 0 .226-.071.408-.212.551-.142.143-.323.213-.543.213-.249 0-.448-.07-.597-.215-.15-.145-.225-.334-.225-.567-.001-.23.072-.417.219-.56zm1.211 4.212c-.183.192-.389.289-.619.289-.239 0-.452-.096-.638-.285s-.279-.436-.279-.733c0-.315.089-.565.267-.751.178-.186.386-.277.626-.277.242 0 .456.096.64.287.185.19.276.438.276.736.001.296-.09.541-.273.734zm7.984-5.578h-1.678l-3.504 4.37v1.584h3.504v.957h1.678v-1.271h.869v-1.465h-.869v-4.175zm-1.678 4.457h-1.852l1.852-2.42v2.42zm6.656-2.079c-.318 0-.6.055-.841.165-.243.109-.479.277-.709.507.06-.729.151-1.205.278-1.429.174-.309.416-.462.728-.462.174 0 .319.054.438.162s.201.294.252.556l1.912-.231c-.108-.364-.271-.667-.48-.908-.21-.241-.477-.424-.797-.549-.318-.126-.754-.188-1.305-.188-.934 0-1.662.285-2.188.854-.524.57-.789 1.469-.789 2.695 0 .837.126 1.51.376 2.018.25.51.585.879 1.004 1.11s.975.349 1.667.349c.576 0 1.056-.096 1.438-.285.382-.19.682-.472.896-.842.217-.371.323-.779.323-1.229 0-.664-.213-1.213-.64-1.646-.426-.432-.946-.647-1.563-.647zm.127 3.189c-.17.188-.381.283-.633.283-.273 0-.506-.104-.694-.312s-.282-.496-.282-.864c0-.361.09-.64.271-.834.18-.194.405-.292.673-.292.262 0 .48.102.657.302.176.2.264.492.264.875-.001.372-.086.653-.256.842zm7.891-2.539c-.427-.434-.947-.648-1.564-.648-.318 0-.6.055-.842.165-.241.108-.479.278-.709.507.062-.729.154-1.205.279-1.428.174-.31.416-.463.729-.463.173 0 .318.054.438.162.118.108.201.293.252.556l1.913-.231c-.11-.364-.271-.667-.481-.908-.211-.241-.477-.424-.797-.549-.318-.126-.754-.188-1.306-.188-.933 0-1.661.285-2.188.855-.524.57-.787 1.469-.787 2.695 0 .837.125 1.51.375 2.019.251.508.585.879 1.004 1.109s.975.348 1.667.348c.577 0 1.058-.095 1.438-.285.383-.189.682-.471.896-.84.216-.371.324-.781.324-1.229-.001-.667-.216-1.216-.641-1.647zm-1.439 2.539c-.17.188-.382.283-.634.283-.272 0-.504-.104-.693-.312-.188-.209-.283-.496-.283-.864 0-.361.092-.64.271-.834.182-.194.404-.292.673-.292.262 0 .479.102.657.302.176.2.265.492.265.875 0 .372-.085.653-.256.842z"/><path fill="#5F6F7F" d="M20 40c-.552 0-1 .448-1 1 0 .553.448 1 1 1s1-.447 1-1c0-.552-.448-1-1-1zm10 0c-.552 0-1 .448-1 1 0 .553.448 1 1 1s1-.447 1-1c0-.552-.448-1-1-1zm10 0c-.552 0-1 .448-1 1 0 .553.448 1 1 1s1-.447 1-1c0-.552-.448-1-1-1zm10 0c-.552 0-1 .448-1 1 0 .553.448 1 1 1 .553 0 1-.447 1-1 0-.552-.447-1-1-1zm10 0c-.552 0-1 .448-1 1 0 .553.448 1 1 1 .553 0 1-.447 1-1 0-.552-.447-1-1-1zm10 0c-.553 0-1 .448-1 1 0 .553.447 1 1 1s1-.447 1-1c0-.552-.447-1-1-1zm10 0c-.553 0-1 .448-1 1 0 .553.447 1 1 1s1-.447 1-1c0-.552-.447-1-1-1zm-55 0c-.552 0-1 .448-1 1 0 .553.448 1 1 1s1-.447 1-1c0-.552-.448-1-1-1zm10 0c-.552 0-1 .448-1 1 0 .553.448 1 1 1s1-.447 1-1c0-.552-.448-1-1-1zm10 0c-.552 0-1 .448-1 1 0 .553.448 1 1 1s1-.447 1-1c0-.552-.448-1-1-1zm10 0c-.552 0-1 .448-1 1 0 .553.448 1 1 1 .553 0 1-.447 1-1 0-.552-.447-1-1-1zm10 0c-.553 0-1 .448-1 1 0 .553.447 1 1 1s1-.447 1-1c0-.552-.447-1-1-1zm10 0c-.553 0-1 .448-1 1 0 .553.447 1 1 1s1-.447 1-1c0-.552-.447-1-1-1z"/><path fill="#35495E" d="M21.689 26.104l-2.697 6.794h2.264l.35-1.121h2.518l.359 1.121h2.322l-2.696-6.794h-2.42zm.399 4.205l.784-2.442.792 2.442h-1.576zm11.31-3.236c-.261-.312-.592-.552-.991-.718-.4-.167-.924-.251-1.574-.251h-3.294v6.794h3.294c.395 0 .835-.062 1.321-.185.356-.09.688-.27.999-.54.31-.271.552-.605.727-1.006.175-.4.262-.963.262-1.689 0-.464-.059-.902-.176-1.316-.117-.414-.307-.776-.568-1.089zm-1.649 3.626c-.111.243-.265.413-.46.511-.196.097-.525.146-.989.146h-.543v-3.712h.553c.574 0 .985.133 1.233.398s.372.759.372 1.479c0 .543-.055.936-.166 1.178zm7.575-.461l-1.125-4.134h-2.917v6.794h1.816v-5.181l1.397 5.181h1.644l1.399-5.181v5.181h1.816v-6.794h-2.914l-1.116 4.134zm5.533 2.66h2.222v-6.794h-2.222v6.794zm3.31-5.116h2.261v5.116h2.218v-5.116h2.262v-1.678h-6.741v1.678zm13.513-1.793c-1.164 0-2.072.309-2.727.927-.652.618-.979 1.481-.979 2.591 0 .794.164 1.455.493 1.983.33.528.761.914 1.29 1.158.53.244 1.2.366 2.01.366.797 0 1.461-.142 1.994-.424.533-.282.941-.679 1.225-1.187.283-.508.424-1.159.424-1.953 0-1.095-.323-1.944-.971-2.552-.644-.606-1.565-.909-2.759-.909zm1.121 5.015c-.261.293-.63.439-1.105.439-.463 0-.829-.149-1.1-.449-.27-.3-.404-.792-.404-1.479 0-.692.137-1.188.408-1.488.271-.299.629-.448 1.075-.448.468 0 .837.147 1.109.442s.407.762.407 1.401c0 .761-.129 1.288-.39 1.582zm8.592-1.141l-2.703-3.759h-2.07v6.794h2.085v-3.73l2.688 3.73h2.09v-6.794h-2.09v3.759zm5.78 1.497v-1.34h3.45v-1.386h-3.45v-1.079h3.72v-1.451h-5.943v6.794h6.05v-1.538h-3.827z"/><path fill="#35495E" d="M79.5 52.925v-.105l.025.084 2.475-1.894h-3v-.01h-.072l-.943-3-.938 3.008-.547.002h-2.5l2.455 1.885.045-.144v.179l-.045-.035-.971 3.105 2.511-1.923-.097-.073h.191l-.096.073 2.507 1.923-.975-3.096-.025.021zm-.5-1.416v-.279l.088.277-.088.002z"/><path fill="#35495E" d="M24.493 52.925v-.105l.026.084 2.474-1.896h-3v-.008h-.073l-.943-3-.94 3.008-.544.002h-2.5l2.455 1.885.045-.146v.181l-.045-.035-.971 3.105 2.511-1.923-.095-.073h.191l-.096.073 2.505 1.923-.974-3.096-.026.021zm-.5-1.416v-.279l.087.277-.087.002z"/></svg>