<svg xmlns="http://www.w3.org/2000/svg" width="100" height="100"><path fill-rule="evenodd" clip-rule="evenodd" fill="#E64C3C" d="M87.549 15.63l-75.638 75.379c-2.725 2.752-7.143 2.752-9.868 0-2.725-2.752-2.725-7.214 0-9.965l2.559-2.584c.584-.59 1.53-.59 2.115 0 .584.59.584 1.546 0 2.136l-2.559 2.584c-1.557 1.573-1.557 4.122 0 5.695 1.557 1.573 4.082 1.573 5.639 0l75.638-75.379c.584-.59 1.53-.59 2.114 0 .584.588.584 1.544 0 2.134z"/><path fill-rule="evenodd" clip-rule="evenodd" fill="#3B97D3" d="M90.859 91.004c-4.45-11.3-13.109-20-25.062-24.58-4.451-11.788-21.309-28.732-33.023-33.212-4.834-12.764-13.538-20.249-22.608-24.434 8.977-5.563 19.545-8.778 30.864-8.778 32.568 0 58.97 26.553 58.97 59.308 0 11.661-3.36 22.526-9.141 31.696z"/><path clip-rule="evenodd" d="M383.894 632.447c0-32.568-26.553-58.97-59.307-58.97s-59.308 26.401-59.308 58.97c0 32.568 26.553 58.97 59.308 58.97s59.307-26.402 59.307-58.97z" fill="none"/><path opacity=".15" fill-rule="evenodd" clip-rule="evenodd" fill="#fff" d="M83.306 17.981c.204 1.989.309 4.007.309 6.049 0 16.544-6.781 31.685-17.818 42.395 11.953 4.58 20.612 13.28 25.062 24.58 5.781-9.171 9.141-20.036 9.141-31.697 0-16.074-6.368-30.645-16.694-41.327z"/><path opacity=".15" fill-rule="evenodd" clip-rule="evenodd" d="M32.77 33.201c10.591-10.034 24.883-16.201 40.624-16.201 3.325 0 6.581.288 9.756.816-10.703-10.989-25.616-17.816-42.12-17.816-11.319 0-21.887 3.215-30.864 8.778 9.067 4.183 17.769 11.666 22.604 24.423z"/></svg>