<svg xmlns="http://www.w3.org/2000/svg" width="100" height="100"><path fill="#1C3C50" d="M98 10h-4c-1.104 0-9 4.896-9 6h-11v26h11c0 1.104 7.896 6 9 6h4c1.104 0 2-.896 2-1.999v-34.001c0-1.104-.896-2-2-2z"/><path fill="#1C3C50" d="M69.979 48.569c.006 2.149.015 3.432.021 3.432v-3l-.021-.432zm-57.979 9.431c0 .139.014.271.041.402.186.91.993 1.598 1.959 1.598h8.957c1.812 2.618 4.459 6 6.043 6h2c5.523 0 10 4.479 10 10.001v19.999c0 2.21 1.791 4 4 4h13c2.209 0 4-1.79 4-4v-30h5c2.209 0 3-.79 3-2.999v-11h-58v5.999z"/><path fill="#EBEEEF" d="M70 0h-58c-6.627 0-12 5.373-12 12v28c0 6.628 5.373 12.001 12 12.001h58c-.051 0-.07-52.052 0-52.001z"/><path fill="#C8CBCB" d="M27 15h-6c-1.104 0-2 .895-2 2v6c0 1.105.896 2 2 2h6c1.104 0 2-.896 2-2v-6c0-1.104-.896-2-2-2z"/><path fill="#23475F" d="M72 0h-2v52h2c1.104 0 2-.896 2-2.001v-47.999c0-1.104-.896-2-2-2z"/><path fill="#23475F" d="M85 16h-3v26h3v-26z"/><path fill="#fff" d="M54 12c-3.312 0-6 2.687-6 6 0 3.314 2.688 6 6 6s6-2.687 6-6-2.688-6-6-6z"/><path fill="#FF4B39" d="M54 14c-2.209 0-4 1.791-4 4s1.791 4 4 4 4-1.791 4-4-1.791-4-4-4z"/><path fill="#00BD9C" d="M37 14h-24c-1.104 0-2 .896-2 2v4c0 1.104.896 2 2 2h24c1.104 0 2-.895 2-2v-4c0-1.104-.896-2-2-2z"/><path fill="#1C3C50" d="M28 13h-6c-1.104 0-2 .895-2 2v6c0 1.105.896 2 2 2h6c1.104 0 2-.896 2-2v-6c0-1.104-.896-2-2-2z"/><path fill="#23475F" d="M26 13h-2v10h2v-10z"/><path fill="#BCC4C8" d="M0 36v4c0 6.628 5.373 12.001 12 12.001h58c-.02 0-.033-7.074-.041-16l-69.959-.001z"/><path fill="#23475F" d="M98 10h-4c-.176 0-.538.135-1 .349v37.302c.462.214.824.349 1 .349h4c1.104 0 2-.896 2-1.999v-34.001c0-1.104-.896-2-2-2z"/><path fill="#00A185" d="M20 21v-5.722c-.595.346-1 .984-1 1.723v5h1.277c-.172-.296-.277-.635-.277-1.001z"/><path fill="#23475F" d="M22.957 60c1.812 2.618 4.459 6 6.043 6h38c2.209 0 3-.79 3-2.999"/><path fill="#23475F" d="M22.957 60c1.812 2.618 4.459 6 6.043 6h38c2.209 0 3-.79 3-2.999v-3.001h-47.043z"/></svg>