<svg xmlns="http://www.w3.org/2000/svg" width="100" height="74"><path fill="#2C3E50" d="M70 29.999c1.104 0 2 .896 2 2v17c0 1.104-.896 2-2 2s-2-.896-2-2v-17c0-1.105.895-2 2-2z"/><path fill="#34495E" d="M4 46h92c2.209 0 4 1.791 4 4v20c0 2.209-1.791 4-4 4h-92c-2.209 0-4-1.791-4-4v-20c0-2.208 1.791-4 4-4z"/><path fill="#495C6E" d="M8 51h84c1.657 0 3 1.344 3 3v12c0 1.656-1.343 3-3 3h-84c-1.657 0-3-1.344-3-3v-12c0-1.656 1.343-3 3-3z"/><path fill="#F1C40E" d="M14 57c1.657 0 3 1.344 3 3s-1.343 3-3 3-3-1.344-3-3 1.343-3 3-3z"/><path fill="#2ECC71" d="M85 58c1.104 0 2 .895 2 2 0 1.104-.896 2-2 2s-2-.896-2-2c0-1.106.895-2 2-2z"/><path fill="#2ECC71" d="M75 58c1.104 0 2 .895 2 2 0 1.104-.896 2-2 2s-2-.896-2-2c0-1.106.895-2 2-2z"/><path fill="#2ECC71" d="M65 58c1.104 0 2 .895 2 2 0 1.104-.896 2-2 2s-2-.896-2-2c0-1.106.895-2 2-2z"/><path fill="#2ECC71" d="M55 58c1.104 0 2 .895 2 2 0 1.104-.896 2-2 2s-2-.896-2-2c0-1.106.895-2 2-2z"/><path fill="#2ECC71" d="M45 58c1.104 0 2 .895 2 2 0 1.104-.896 2-2 2s-2-.896-2-2c0-1.106.895-2 2-2z"/><path fill="#BDC3C7" d="M65.375 28.002c-.542 0-1.056-.342-1.281-.914-.301-.762.029-1.643.736-1.967 3.275-1.5 7.062-1.5 10.34 0 .707.324 1.036 1.205.736 1.967-.301.762-1.119 1.117-1.824.793-2.585-1.184-5.58-1.182-8.164.002-.177.08-.361.119-.543.119z"/><path fill="#BDC3C7" d="M60.473 24.013c-.483 0-.957-.255-1.232-.721-.43-.723-.227-1.679.453-2.136 3.086-2.072 6.654-3.168 10.322-3.17 3.666 0 7.234 1.096 10.32 3.169.68.457.883 1.414.453 2.136-.429.723-1.328.939-2.009.482-2.62-1.76-5.651-2.815-8.765-2.815-3.116 0-6.147 1.056-8.769 2.816-.238.162-.508.239-.773.239z"/><path fill="#BDC3C7" d="M46.489 11.997c-.406 0-.812-.166-1.106-.492-.55-.61-.5-1.552.11-2.102 6.733-6.064 15.437-9.404 24.505-9.404 9.067.001 17.77 3.34 24.504 9.401.611.55.661 1.491.111 2.103-.551.612-1.493.659-2.102.111-6.188-5.57-14.186-8.637-22.517-8.638-8.332 0-16.327 3.068-22.515 8.639-.279.257-.635.382-.99.382z"/><path fill="#BDC3C7" d="M89.452 15.98c-.347 0-.692-.115-.979-.351-5.164-4.257-11.725-6.665-18.467-6.665-6.744 0-13.302 2.406-18.467 6.663-.648.533-1.611.448-2.152-.189-.541-.638-.455-1.588.191-2.122 5.714-4.708 12.969-7.301 20.428-7.301 7.461 0 14.715 2.594 20.43 7.305.646.534.732 1.483.191 2.121-.303.355-.738.539-1.175.539z"/><path fill="#BDC3C7" d="M84.512 19.997c-.313 0-.631-.1-.901-.309-3.943-3.032-8.646-4.698-13.603-4.698-4.953 0-9.654 1.664-13.599 4.695-.661.507-1.603.374-2.103-.3-.498-.675-.366-1.634.295-2.143 4.469-3.434 9.795-5.25 15.406-5.25 5.612 0 10.94 1.816 15.408 5.253.662.509.793 1.468.295 2.142-.293.401-.741.61-1.198.61z"/></svg>