<svg xmlns="http://www.w3.org/2000/svg" xmlns:xlink="http://www.w3.org/1999/xlink" width="100" height="100"><path fill="#17A085" d="M50 0c27.613 0 50 22.386 50 50s-22.387 50-50 50C22.386 100 0 77.614 0 50S22.386 0 50 0z"/><defs><circle id="a" cx="50" cy="50" r="50"/></defs><clipPath id="b"><use xlink:href="#a" overflow="visible"/></clipPath><g clip-path="url(#b)"><path fill="#107864" d="M17 34l-33 33v51h31l21-21V43l-19-9z"/><path fill="#EBEDEE" d="M76 31.051V31H26v.051c-.33-.028-.662-.051-1-.051-6.627 0-12 5.373-12 12 0 6.628 5.373 12 12 12 2.45 0 4.725-.738 6.621-2H32l-4 4v49h44V57l-4-4h.379c1.896 1.262 4.171 2 6.621 2 6.628 0 12-5.372 12-12 0-6.289-4.841-11.44-11-11.949z"/><path fill="#D3D5D6" d="M26 31v.051c-.33-.028-.662-.051-1-.051-6.627 0-12 5.373-12 12 0 6.628 5.373 12 12 12a11.2 11.2 0 0 0 1.519-.104l.016-.002a12.1 12.1 0 0 0 1.466-.289v.006A11.963 11.963 0 0 0 31.622 53H32l-4 4v49h22V31H26z"/><path fill="#BDC3C7" d="M76 36H23c-2.891.861-5 3.83-5 7a7 7 0 1 0 14 0c0-1.075-.25-2.09-.683-3h37.365A6.975 6.975 0 0 0 68 43a7 7 0 1 0 14 0c0-3.524-2.609-6.513-6-7zM25 46a3 3 0 1 1 0-6 3 3 0 0 1 0 6zm50 0a3 3 0 1 1 0-6 3 3 0 0 1 0 6z"/><circle fill="#AAAFB3" cx="41" cy="51" r="2"/><circle fill="#BDC3C7" cx="50" cy="51" r="2"/><circle fill="#BDC3C7" cx="59" cy="51" r="2"/><path fill="#AAAFB3" d="M18 43a7 7 0 1 0 14 0c0-1.075-.25-2.09-.683-3H50v-4H23c-2.891.861-5 3.83-5 7zm10 0a3 3 0 1 1-6 0 3 3 0 0 1 6 0zm20 8a2 2 0 0 0 2 2v-4a2 2 0 0 0-2 2zm-2 13v41c0 .348.059.68.142 1H50V60a4 4 0 0 0-4 4z"/><path fill="#BDC3C7" d="M53.857 106a3.92 3.92 0 0 0 .143-1V64a4 4 0 0 0-8 0v41c0 .348.059.68.142 1h7.715zm13 0a3.92 3.92 0 0 0 .143-1V64a4 4 0 0 0-8 0v41c0 .348.059.68.143 1h7.714z"/><path fill="#AAAFB3" d="M40.858 106c.083-.32.142-.652.142-1V64a4 4 0 0 0-8 0v41c0 .348.059.68.142 1h7.716z"/></g></svg>