<svg xmlns="http://www.w3.org/2000/svg" xmlns:xlink="http://www.w3.org/1999/xlink" width="100" height="92.027"><path fill="#F1C40E" d="M96 28.027H4a4 4 0 0 0-4 4v6a4 4 0 0 0 4 4h1v46a4 4 0 0 0 4 4h82a4 4 0 0 0 4-4v-46h1a4 4 0 0 0 4-4v-6a4 4 0 0 0-4-4z"/><path fill="#B5930C" d="M14 50.027c-1.657 0-2 1.344-2 3v9c0 1.657.343 3 2 3s2-1.343 2-3v-9c0-1.657-.343-3-2-3zm0 20c-1.657 0-2 1.344-2 3v9c0 1.657.343 3 2 3s2-1.343 2-3v-9c0-1.657-.343-3-2-3zm8-20c-1.657 0-2 1.344-2 3v9c0 1.657.343 3 2 3s2-1.343 2-3v-9c0-1.657-.343-3-2-3zm0 20c-1.657 0-2 1.344-2 3v9c0 1.657.343 3 2 3s2-1.343 2-3v-9c0-1.657-.343-3-2-3zm8-20c-1.657 0-2 1.344-2 3v9c0 1.657.343 3 2 3s2-1.343 2-3v-9c0-1.657-.343-3-2-3zm0 20c-1.657 0-2 1.344-2 3v9c0 1.657.343 3 2 3s2-1.343 2-3v-9c0-1.657-.343-3-2-3zm8-20c-1.657 0-2 1.344-2 3v9c0 1.657.343 3 2 3s2-1.343 2-3v-9c0-1.657-.343-3-2-3zm0 20c-1.657 0-2 1.344-2 3v9c0 1.657.343 3 2 3s2-1.343 2-3v-9c0-1.657-.343-3-2-3zm8-20c-1.657 0-2 1.344-2 3v9c0 1.657.343 3 2 3s2-1.343 2-3v-9c0-1.657-.343-3-2-3zm0 20c-1.657 0-2 1.344-2 3v9c0 1.657.343 3 2 3s2-1.343 2-3v-9c0-1.657-.343-3-2-3zm8-20c-1.657 0-2 1.344-2 3v9c0 1.657.343 3 2 3s2-1.343 2-3v-9c0-1.657-.343-3-2-3zm0 20c-1.657 0-2 1.344-2 3v9c0 1.657.343 3 2 3s2-1.343 2-3v-9c0-1.657-.343-3-2-3zm8-20c-1.657 0-2 1.344-2 3v9c0 1.657.343 3 2 3s2-1.343 2-3v-9c0-1.657-.343-3-2-3zm0 20c-1.657 0-2 1.344-2 3v9c0 1.657.343 3 2 3s2-1.343 2-3v-9c0-1.657-.343-3-2-3zm8-20c-1.657 0-2 1.344-2 3v9c0 1.657.343 3 2 3s2-1.343 2-3v-9c0-1.657-.343-3-2-3zm0 20c-1.657 0-2 1.344-2 3v9c0 1.657.343 3 2 3s2-1.343 2-3v-9c0-1.657-.343-3-2-3zm8-20c-1.657 0-2 1.344-2 3v9c0 1.657.343 3 2 3s2-1.343 2-3v-9c0-1.657-.343-3-2-3zm0 20c-1.657 0-2 1.344-2 3v9c0 1.657.343 3 2 3s2-1.343 2-3v-9c0-1.657-.343-3-2-3zm8-20c-1.657 0-2 1.344-2 3v9c0 1.657.343 3 2 3s2-1.343 2-3v-9c0-1.657-.343-3-2-3zm0 20c-1.657 0-2 1.344-2 3v9c0 1.657.343 3 2 3s2-1.343 2-3v-9c0-1.657-.343-3-2-3z"/><path fill="#D8B00C" d="M5 88.027a4 4 0 0 0 4 4h39.961l46.039-46v-4H5v46z"/><path fill="#34495E" d="M87 32.027a3 3 0 1 0 0 6 3 3 0 0 0 0-6zm-74 0a3 3 0 1 0 0 6 3 3 0 0 0 0-6zm63.521-4h11.018L60.652 1.141a3.895 3.895 0 1 0-5.508 5.509l21.377 21.377zm-53.042 0L44.855 6.65a3.896 3.896 0 0 0-5.509-5.509L12.461 28.027h11.018z"/><defs><path id="a" d="M5 88.027a4 4 0 0 0 4 4h39.961l46.039-46v-4H5v46z"/></defs><clipPath id="b"><use xlink:href="#a" overflow="visible"/></clipPath><path clip-path="url(#b)" fill="#A3840B" d="M14 50.027c-1.657 0-2 1.344-2 3v9c0 1.657.343 3 2 3s2-1.343 2-3v-9c0-1.657-.343-3-2-3zm0 20c-1.657 0-2 1.344-2 3v9c0 1.657.343 3 2 3s2-1.343 2-3v-9c0-1.657-.343-3-2-3zm8-20c-1.657 0-2 1.344-2 3v9c0 1.657.343 3 2 3s2-1.343 2-3v-9c0-1.657-.343-3-2-3zm0 20c-1.657 0-2 1.344-2 3v9c0 1.657.343 3 2 3s2-1.343 2-3v-9c0-1.657-.343-3-2-3zm8-20c-1.657 0-2 1.344-2 3v9c0 1.657.343 3 2 3s2-1.343 2-3v-9c0-1.657-.343-3-2-3zm0 20c-1.657 0-2 1.344-2 3v9c0 1.657.343 3 2 3s2-1.343 2-3v-9c0-1.657-.343-3-2-3zm8-20c-1.657 0-2 1.344-2 3v9c0 1.657.343 3 2 3s2-1.343 2-3v-9c0-1.657-.343-3-2-3zm0 20c-1.657 0-2 1.344-2 3v9c0 1.657.343 3 2 3s2-1.343 2-3v-9c0-1.657-.343-3-2-3zm8-20c-1.657 0-2 1.344-2 3v9c0 1.657.343 3 2 3s2-1.343 2-3v-9c0-1.657-.343-3-2-3zm0 20c-1.657 0-2 1.344-2 3v9c0 1.657.343 3 2 3s2-1.343 2-3v-9c0-1.657-.343-3-2-3zm8-20c-1.657 0-2 1.344-2 3v9c0 1.657.343 3 2 3s2-1.343 2-3v-9c0-1.657-.343-3-2-3zm0 20c-1.657 0-2 1.344-2 3v9c0 1.657.343 3 2 3s2-1.343 2-3v-9c0-1.657-.343-3-2-3zm8-20c-1.657 0-2 1.344-2 3v9c0 1.657.343 3 2 3s2-1.343 2-3v-9c0-1.657-.343-3-2-3zm0 20c-1.657 0-2 1.344-2 3v9c0 1.657.343 3 2 3s2-1.343 2-3v-9c0-1.657-.343-3-2-3zm8-20c-1.657 0-2 1.344-2 3v9c0 1.657.343 3 2 3s2-1.343 2-3v-9c0-1.657-.343-3-2-3zm0 20c-1.657 0-2 1.344-2 3v9c0 1.657.343 3 2 3s2-1.343 2-3v-9c0-1.657-.343-3-2-3zm8-20c-1.657 0-2 1.344-2 3v9c0 1.657.343 3 2 3s2-1.343 2-3v-9c0-1.657-.343-3-2-3zm0 20c-1.657 0-2 1.344-2 3v9c0 1.657.343 3 2 3s2-1.343 2-3v-9c0-1.657-.343-3-2-3zm8-20c-1.657 0-2 1.344-2 3v9c0 1.657.343 3 2 3s2-1.343 2-3v-9c0-1.657-.343-3-2-3zm0 20c-1.657 0-2 1.344-2 3v9c0 1.657.343 3 2 3s2-1.343 2-3v-9c0-1.657-.343-3-2-3z"/></svg>