<svg xmlns="http://www.w3.org/2000/svg" width="100" height="100"><path fill-rule="evenodd" clip-rule="evenodd" fill="#C0392B" d="M6 100h88a6 6 0 0 0 6-6V6a6 6 0 0 0-6-6H6a6 6 0 0 0-6 6v88a6 6 0 0 0 6 6z"/><path fill-rule="evenodd" clip-rule="evenodd" fill="#E74C3C" d="M100 30h-.025a5.5 5.5 0 0 0-5.475-5H6.25C2.937 25 0 22.314 0 19V6a6 6 0 0 1 6-6h88c3.313 0 6 2.687 6 6.001V30z"/><path opacity=".15" fill-rule="evenodd" clip-rule="evenodd" d="M5 100h2V0H5v100z"/><path opacity=".15" fill-rule="evenodd" clip-rule="evenodd" fill="#fff" d="M7 100h2V0H7v100z"/><path fill-rule="evenodd" clip-rule="evenodd" fill="#fff" d="M100 10.001a5 5 0 0 0-5-5H7a2 2 0 0 0-2 2v11a2 2 0 0 0 2 2h87a6 6 0 0 1 6 6v-15h-.101c.066-.323.101-.658.101-1z"/><path fill-rule="evenodd" clip-rule="evenodd" fill="#95A5A6" d="M100 15.423v-3.921s.183-4-5-4H5v2h89a5.995 5.995 0 0 1 5.98 5.616c-.107-1-.789-3.615-4.98-3.615H5v2h89a5.995 5.995 0 0 1 5.98 5.616c-.107-1.001-.789-3.616-4.98-3.616H5v2h89a6 6 0 0 1 6 6v-8.08z" opacity=".2"/><path fill-rule="evenodd" clip-rule="evenodd" fill="#2980B9" d="M80 100h10V25H80v75z"/><path fill-rule="evenodd" clip-rule="evenodd" fill="#3498DB" d="M80 25.007h10V0H80v25.007z"/><path fill-rule="evenodd" clip-rule="evenodd" d="M82 100h2V0h-2v100zM86 0v100h2V0h-2z" opacity=".1"/></svg>