<svg xmlns="http://www.w3.org/2000/svg" width="100" height="100"><path fill="#EBEDED" d="M100 95a5 5 0 0 1-5 5H5a5 5 0 0 1-5-5V5a5 5 0 0 1 5-5h90a5 5 0 0 1 5 5v90z"/><path fill="#D4D7DA" d="M95 97H5a5 5 0 0 1-5-5v3a5 5 0 0 0 5 5h90a5 5 0 0 0 5-5v-3a5 5 0 0 1-5 5z"/><path fill="#E64C3C" d="M0 31V5a5 5 0 0 1 5-5h90a5 5 0 0 1 5 5v26H0z"/><path fill="#C03A2B" d="M0 28h100v2.75H0z"/><path d="M30.344 8.576l2.672 7.855h.032l2.528-7.855h3.536V20H36.76v-8.096h-.032L33.928 20h-1.936l-2.8-8.016h-.032V20h-2.352V8.576h3.536zm11.04 4.368c.234-.353.533-.635.896-.849a3.918 3.918 0 0 1 1.224-.456c.453-.09.909-.136 1.368-.136.416 0 .837.029 1.264.088s.816.174 1.168.344c.352.171.64.408.864.713.224.304.336.706.336 1.208v4.304c0 .373.021.73.064 1.072.042.341.117.597.224.768h-2.304l-.104-.392-.056-.408c-.363.373-.79.635-1.28.784a5.184 5.184 0 0 1-1.504.224 4.06 4.06 0 0 1-1.104-.144 2.55 2.55 0 0 1-.896-.448 2.086 2.086 0 0 1-.6-.769c-.144-.309-.216-.677-.216-1.104 0-.47.083-.856.248-1.16a2.08 2.08 0 0 1 .64-.728c.261-.182.56-.317.896-.408s.675-.163 1.016-.216c.341-.054.677-.097 1.008-.129.331-.031.624-.079.88-.144a1.52 1.52 0 0 0 .608-.28c.149-.122.218-.301.208-.536 0-.245-.04-.439-.12-.584a.885.885 0 0 0-.32-.336 1.25 1.25 0 0 0-.464-.159 3.75 3.75 0 0 0-.568-.04c-.448 0-.8.096-1.056.287-.256.192-.405.513-.448.961h-2.272c.032-.533.165-.975.4-1.327zm4.488 3.208a3.647 3.647 0 0 1-.464.12l-.52.079-.544.08a4.133 4.133 0 0 0-.504.128c-.166.054-.31.126-.432.217s-.221.205-.296.344-.112.315-.112.528c0 .202.037.373.112.512s.176.248.304.328c.128.08.277.136.448.168.17.032.347.048.528.048.448 0 .795-.074 1.04-.224.246-.149.427-.328.544-.536.118-.208.189-.419.216-.633.026-.213.04-.384.04-.512v-.848a1.01 1.01 0 0 1-.36.201zm6.552-4.424v1.536h.032c.106-.256.25-.493.432-.712.182-.218.39-.405.624-.56s.485-.274.752-.36c.267-.085.544-.128.832-.128.149 0 .314.026.496.08v2.112l-.384-.057-.433-.023c-.416 0-.768.069-1.056.208s-.521.328-.696.567c-.176.24-.302.521-.376.841a4.601 4.601 0 0 0-.111 1.04V20h-2.272v-8.272h2.16zm7.727 1.488c-.362 0-.666.083-.912.248a1.988 1.988 0 0 0-.6.64c-.154.262-.264.55-.328.864a4.489 4.489 0 0 0 0 1.849c.064.31.168.589.312.84s.338.456.584.616c.245.159.544.239.896.239.544 0 .963-.151 1.256-.456.294-.304.478-.712.553-1.224h2.191c-.149 1.099-.576 1.936-1.28 2.512-.703.576-1.605.864-2.703.864a4.521 4.521 0 0 1-1.704-.312 3.77 3.77 0 0 1-1.32-.872 3.981 3.981 0 0 1-.848-1.336 4.631 4.631 0 0 1-.305-1.704c0-.641.094-1.235.28-1.784.187-.55.461-1.024.824-1.424.362-.4.805-.712 1.328-.937.522-.224 1.12-.336 1.792-.336.49 0 .962.064 1.416.192.453.128.858.322 1.216.584.357.261.647.587.872.976.224.39.352.851.384 1.384h-2.224c-.148-.949-.709-1.423-1.68-1.423zm7.504-4.64v4.304h.048c.288-.479.656-.829 1.104-1.048a2.97 2.97 0 0 1 1.312-.328c.608 0 1.106.083 1.496.248.39.166.696.395.92.688.225.293.382.65.472 1.071.091.422.137.889.137 1.4V20h-2.272v-4.672c0-.683-.106-1.192-.319-1.528-.214-.336-.593-.504-1.137-.504-.618 0-1.066.185-1.344.552-.277.368-.416.974-.416 1.816V20h-2.272V8.576h2.271z" fill="#fff"/><path d="M26.77 55.045c.49-1.579 1.226-2.959 2.208-4.14.981-1.181 2.215-2.101 3.703-2.761 1.487-.658 3.197-.988 5.129-.988 1.472 0 2.875.229 4.209.689s2.507 1.12 3.519 1.979c1.012.858 1.817 1.917 2.415 3.174.598 1.258.897 2.668.897 4.232 0 1.625-.261 3.021-.782 4.186a11.004 11.004 0 0 1-2.07 3.105 17.666 17.666 0 0 1-2.921 2.461 249.937 249.937 0 0 1-3.289 2.185 42.728 42.728 0 0 0-3.22 2.323 14.578 14.578 0 0 0-2.76 2.897h15.226V80H25.39c0-1.87.268-3.496.805-4.876a12.964 12.964 0 0 1 2.185-3.703 19.141 19.141 0 0 1 3.243-3.013 143.75 143.75 0 0 1 3.933-2.807c.705-.49 1.457-.988 2.254-1.494a15.002 15.002 0 0 0 2.185-1.68 8.961 8.961 0 0 0 1.656-2.069c.444-.767.667-1.641.667-2.622 0-1.564-.453-2.783-1.357-3.657-.905-.874-2.063-1.312-3.473-1.312-.951 0-1.756.224-2.415.667a4.975 4.975 0 0 0-1.587 1.748 8.053 8.053 0 0 0-.851 2.393 13.66 13.66 0 0 0-.253 2.599h-6.256c-.062-1.84.153-3.549.644-5.129zm23.966 17.503v-5.979L64.721 47.8h5.842v19.366h4.277v5.382h-4.277V80h-6.21v-7.452H50.736zm13.478-16.56l-8.325 11.178h8.464V55.988h-.139z" fill="#35495E"/></svg>