<svg xmlns="http://www.w3.org/2000/svg" width="100" height="100"><path fill="#3B97D3" d="M100 85c0 8.284-6.716 15-15 15H15c-8.284 0-15-6.716-15-15V15C0 6.716 6.716 0 15 0h70c8.284 0 15 6.716 15 15v70z"/><path fill="#fff" stroke="#2980BA" stroke-width="2" stroke-miterlimit="10" d="M90 15a5 5 0 1 1-10.001-.001A5 5 0 0 1 90 15z"/><circle opacity=".5" fill="#324559" cx="49" cy="52" r="37"/><circle fill="#fff" cx="50" cy="50" r="37"/><circle fill="#202D3C" cx="50" cy="50" r="34"/><circle fill="#35495E" cx="50" cy="50" r="22"/><circle fill="#202D3C" cx="50" cy="50" r="13"/><circle fill="#C03A2B" cx="50" cy="50" r="4"/><path clip-rule="evenodd" stroke="#35495E" stroke-width="2" stroke-miterlimit="10" d="M50 59a9 9 0 0 1-9-9.001" fill="none"/><path opacity=".15" d="M23.625 23.873c14.498-14.498 38.004-14.498 52.502 0 14.498 14.498 14.498 38.004 0 52.502"/></svg>