<svg xmlns="http://www.w3.org/2000/svg" width="100" height="91"><path fill="#EBEDEE" d="M20 0h60c5.523 0 10 4.478 10 10v45c0 5.521-4.477 10-10 10H20c-5.522 0-10-4.479-10-10V10c0-5.522 4.478-10 10-10z"/><path fill="#212E3C" d="M14 91h2l10-10H14v10zm60-10l10 10h2V81H74z"/><path fill="#BDC3C7" d="M50 23a3 3 0 1 0 0 6 3 3 0 0 0 0-6zM34 13a3 3 0 1 0 0 6 3 3 0 0 0 0-6zm32 6a3 3 0 1 0 0-6 3 3 0 0 0 0 6zM34 33a3 3 0 1 0 0 6 3 3 0 0 0 0-6zm32 0a3 3 0 1 0 0 6 3 3 0 0 0 0-6z"/><path fill="#283848" d="M10 64h80v17H10V64z"/><path fill="#2C3E50" d="M90 36c5.523 0 10 4.479 10 10v25c0 5.523-4.477 10-10 10s-10-4.477-10-10V46c0-5.521 4.477-10 10-10z"/><path fill="#34495E" d="M90 41c3.312 0 6 2.688 6 6v23a6 6 0 0 1-12 0V47c0-3.312 2.688-6 6-6z"/><path fill="#2C3E50" d="M10 36c5.522 0 10 4.479 10 10v25c0 5.523-4.478 10-10 10S0 76.523 0 71V46c0-5.521 4.478-10 10-10z"/><path fill="#34495E" d="M10 41c3.313 0 6 2.688 6 6v23a6 6 0 0 1-12 0V47c0-3.312 2.687-6 6-6z"/><path fill="#253241" d="M20 64h60v3H20v-3z"/><path fill="#BDC3C7" d="M20.5 51h59a6.5 6.5 0 1 1 0 13h-59a6.5 6.5 0 1 1 0-13z"/></svg>