<svg xmlns="http://www.w3.org/2000/svg" width="100" height="100"><path fill-rule="evenodd" clip-rule="evenodd" fill="#C0392B" d="M100 58a6 6 0 0 1-6 6H21a6 6 0 0 1-6-6V6a6 6 0 0 1 6-6h73a6 6 0 0 1 6 6v52z"/><path fill-rule="evenodd" clip-rule="evenodd" fill="#E74C3C" d="M85 73c0 3.223-2.74 6-6 6H66c-1.113 0-2 .754-2 2v18c0 .738-.253 1-.917 1-.232 0-.471-.154-.865-.457L38.251 81c-3-2-6.129-2.006-6.129-2.006l-26.22-.002C2.642 78.992 0 76.379 0 73.156V22.031C0 18.81 2.896 15.984 6 16h73c3.562 0 6 2.778 6 6v51z"/><path fill="#fff" d="M58.5 40.072a13.15 13.15 0 0 1-3.771 1.035 6.601 6.601 0 0 0 2.887-3.633 13.22 13.22 0 0 1-4.168 1.594 6.566 6.566 0 0 0-11.357 4.491c0 .512.058 1.016.17 1.497a18.65 18.65 0 0 1-13.532-6.859 6.535 6.535 0 0 0-.889 3.298 6.559 6.559 0 0 0 2.921 5.465 6.524 6.524 0 0 1-2.974-.822l-.001.084a6.571 6.571 0 0 0 5.267 6.438 6.617 6.617 0 0 1-2.964.112 6.567 6.567 0 0 0 6.133 4.558 13.167 13.167 0 0 1-9.72 2.718A18.568 18.568 0 0 0 36.563 63c12.076 0 18.679-10.004 18.679-18.68 0-.284-.006-.568-.018-.85a13.33 13.33 0 0 0 3.276-3.398z"/></svg>