<svg xmlns="http://www.w3.org/2000/svg" width="100" height="52"><path fill="#E45136" d="M71.585 28.924C56.13 27.965 43.789 15.51 43.038 0H3v44h68.585V28.924z"/><path fill="#D4D8DB" d="M2 44h96a2 2 0 0 1 2 2v4a2 2 0 0 1-2 2H2a2 2 0 0 1-2-2v-4a2 2 0 0 1 2-2z"/><path fill="#BDC3C7" d="M4 52h4v-6H4v6zm8 0h4v-6h-4v6zm8 0h4v-6h-4v6zm8 0h4v-6h-4v6zm8 0h4v-6h-4v6zm8 0h4v-6h-4v6zm8 0h4v-6h-4v6zm8 0h4v-6h-4v6zm8 0h4v-6h-4v6zm8 0h4v-6h-4v6zm8 0h4v-6h-4v6zm8-6v6h4v-6h-4z"/><path fill="#EBEDEE" d="M21 10c5.523 0 10 4.479 10 10 0 5.523-4.477 10-10 10s-10-4.477-10-10 4.477-10 10-10z"/><path fill="#F39C12" d="M21 14l1.978 3.457 4.022.745-2.8 2.881.508 3.917L21 23.324 17.292 25l.508-3.917-2.799-2.881 4.021-.745L21 14"/><path fill="#EBEDEE" d="M44.233 11.096l1.037-1.037a30.198 30.198 0 0 1-1.389-4.269l-2.477 2.478a2 2 0 1 0 2.829 2.828zm3.171 14c.781.78 2.047.78 2.829 0l3.433-3.434a30.448 30.448 0 0 1-2.859-2.798l-3.402 3.401a2.002 2.002 0 0 0-.001 2.831zm15.258 1.914l-1.258 1.258a2 2 0 1 0 2.828 2.83l2.793-2.795a30.333 30.333 0 0 1-4.363-1.293zm-19.258-7.914c.781.78 2.047.78 2.829 0l2.627-2.627A30.508 30.508 0 0 1 46.671 13l-3.267 3.268a2 2 0 0 0 0 2.828zm10 10c.779.78 2.047.78 2.828 0l3.42-3.42a30.563 30.563 0 0 1-3.535-2.121l-2.713 2.713a2 2 0 0 0 0 2.828z"/><path fill="#2C3E51" d="M43.038 0H3v4h40.504a30.597 30.597 0 0 1-.466-4z"/><path fill="#EBEDEE" d="M96.787 38.704a12.2 12.2 0 0 0-9.821-9.753H71.585V44h25.204v-5.296h-.002z"/><path fill="#2C3E51" d="M98 44H2a2 2 0 0 0-2 2h100a2 2 0 0 0-2-2z"/></svg>