<svg xmlns="http://www.w3.org/2000/svg" width="100" height="100"><path fill="#2980BA" d="M51 22.001c16.016 0 28.999 12.983 28.999 28.999S67.016 79.999 51 79.999 22.001 67.016 22.001 51c0-16.015 12.983-28.999 28.999-28.999z"/><path fill="#EDF0F1" d="M50 0c27.613 0 50 22.386 50 50s-22.387 50-50 50C22.386 100 0 77.614 0 50S22.386 0 50 0z"/><path fill="#3B97D3" d="M51 22.001c16.016 0 28.999 12.983 28.999 28.999S67.016 79.999 51 79.999 22.001 67.016 22.001 51c0-16.015 12.983-28.999 28.999-28.999z"/><path fill="#2980BA" d="M53 77.999c-16.016 0-28.999-12.983-28.999-28.999a28.889 28.889 0 0 1 7.519-19.48c-5.847 5.305-9.519 12.964-9.519 21.48 0 16.016 12.983 28.999 28.999 28.999 8.518 0 16.176-3.672 21.48-9.519A28.887 28.887 0 0 1 53 77.999z"/><path fill="#35495E" d="M51 38.005c7.177 0 12.995 5.818 12.995 12.995S58.177 63.995 51 63.995 38.005 58.177 38.005 51 43.823 38.005 51 38.005z"/><path fill="#fff" d="M60.003 35.009c3.862 0 6.992 3.133 6.992 6.998s-3.13 6.998-6.992 6.998c-3.86 0-6.992-3.133-6.992-6.998s3.132-6.998 6.992-6.998z"/><path fill="#BDC2C7" d="M50 4c26.943 0 48.898 21.314 49.949 48 .025-.665.051-1.329.051-2 0-27.614-22.386-50-50-50S0 22.386 0 50c0 .671.024 1.335.051 2C1.102 25.314 23.057 4 50 4z"/></svg>