<svg xmlns="http://www.w3.org/2000/svg" xmlns:xlink="http://www.w3.org/1999/xlink" width="100" height="100"><path fill="#34495E" d="M50 0c27.613 0 50 22.386 50 50s-22.387 50-50 50C22.386 100 0 77.614 0 50S22.386 0 50 0z"/><defs><circle id="a" cx="50" cy="50" r="50"/></defs><clipPath id="b"><use xlink:href="#a" overflow="visible"/></clipPath><g clip-path="url(#b)"><path fill="#ECF0F1" d="M59 51.213V28H41v23.213C26.592 55.16 16 68.34 16 84c0 18.777 15.222 34 34 34 18.777 0 34-15.223 34-34 0-15.66-10.592-28.84-25-32.787z"/><path fill="#17A085" d="M73.639 70H26.362A27.857 27.857 0 0 0 22 85c0 15.464 12.536 28 28 28s28-12.536 28-28a27.864 27.864 0 0 0-4.361-15z"/><path fill="#1ABC9C" d="M32.908 64.205c9.44-4.521 24.744-4.521 34.185 0s9.44 11.852 0 16.372c-9.438 4.521-24.744 4.521-34.185 0-9.439-4.52-9.439-11.85 0-16.372z"/><path fill="#BDC3C7" d="M41.01 25.744h17.889l.062 8.185-.562.301c-4.688 2.344-12.203 2.344-16.889 0l-.517-.274.017-8.212z"/><path fill="#fff" d="M41.51 23.744c4.687-2.344 12.285-2.344 16.973 0 4.686 2.343 4.686 6.143 0 8.485-4.688 2.344-12.287 2.344-16.973 0-4.686-2.342-4.686-6.142 0-8.485z"/><path fill="#BDC3C7" d="M45.75 26.581c2.337-.78 6.126-.78 8.464 0 2.336.781 2.336 2.048 0 2.829-2.338.781-6.127.781-8.464 0-2.336-.781-2.336-2.048 0-2.829z"/><path fill="#5FD0BA" d="M41.5 70a4.5 4.5 0 0 0-4.499 4.486c-.008.388.427.774 1.312 1.07 1.753.586 4.595.586 6.348 0 .874-.291 1.312-.675 1.314-1.058H46A4.5 4.5 0 0 0 41.5 70zM53 66a2.992 2.992 0 0 0-2.999 2.977c-.006.256.284.515.874.709 1.169.39 3.062.39 4.232 0 .582-.192.875-.446.875-.701H56A2.993 2.993 0 0 0 53 66zm8 6a2.993 2.993 0 0 0-2.999 2.975c-.006.258.284.516.874.711 1.169.39 3.062.39 4.232 0 .582-.192.873-.446.875-.701H64A2.993 2.993 0 0 0 61 72z"/><path fill="#9AA4AE" d="M44 10a4 4 0 1 0 0 8 4 4 0 0 0 0-8zm0 6a2 2 0 1 1 .001-4.001A2 2 0 0 1 44 16zm1.5-21a5.5 5.5 0 1 0 0 11 5.5 5.5 0 0 0 0-11zm0 9a3.5 3.5 0 1 1-.001-6.999A3.5 3.5 0 0 1 45.5 4zm11 1a5.5 5.5 0 1 0 .001 11.001A5.5 5.5 0 0 0 56.5 5zm0 9a3.5 3.5 0 1 1 3.5-3.5c0 1.934-1.566 3.5-3.5 3.5z"/><path fill="#17A085" d="M55.107 69.436c-1.17.39-3.063.39-4.232 0-.536-.178-.812-.406-.855-.64l-.019.181c-.006.256.284.515.874.709 1.169.39 3.062.39 4.232 0 .582-.192.875-.446.875-.701H56l-.023-.228c-.018.246-.303.491-.87.679zm-10.446 5.873c-1.753.586-4.595.586-6.348 0-.831-.279-1.25-.639-1.293-1.002l-.019.18c-.008.389.427.775 1.312 1.072 1.753.586 4.595.586 6.348 0 .874-.293 1.312-.676 1.314-1.059H46l-.025-.25c-.003.383-.44.766-1.314 1.059zm18.446.127c-1.17.39-3.063.39-4.232 0-.535-.179-.811-.406-.855-.641l-.019.18c-.006.258.284.516.874.711 1.169.39 3.062.39 4.232 0 .582-.192.873-.446.875-.701H64l-.023-.229c-.017.246-.303.492-.87.68z"/></g></svg>