<svg xmlns="http://www.w3.org/2000/svg" width="100" height="100"><circle fill="#E74C3C" cx="50" cy="50" r="50"/><path fill="#fff" d="M8.862 21.59l.833.833a4.998 4.998 0 0 0 7.07 0l5.657-5.657c1.897-1.898 1.003-5.882-.842-7.897A50.285 50.285 0 0 0 8.862 21.59zM41 2a5 5 0 0 0 5 5h8a5 5 0 0 0 5-5V.824C56.079.292 53.074 0 50 0s-6.079.292-9 .824V2zm37.419 6.869c-1.845 2.015-2.739 5.999-.842 7.897l5.657 5.657a4.998 4.998 0 0 0 7.07 0l.833-.833A50.27 50.27 0 0 0 78.419 8.869zM91.138 78.41l-.833-.834a5.002 5.002 0 0 0-7.07 0l-5.657 5.658a5 5 0 0 0 0 7.07l.833.833A50.28 50.28 0 0 0 91.138 78.41zm-74.372-.834a5.002 5.002 0 0 0-7.07 0l-.834.834A50.285 50.285 0 0 0 21.58 91.131c1.845-2.016 2.74-6 .842-7.896l-5.656-5.659zM98 41a5 5 0 0 0-5 5v8a5 5 0 0 0 5 5h1.177c.531-2.921.823-5.926.823-9s-.292-6.079-.823-9H98zM59 98a5 5 0 0 0-5-5h-8a5 5 0 0 0-5 5v1.177c2.921.531 5.926.823 9 .823s6.079-.292 9-.823V98zM2 59a5 5 0 0 0 5-5v-8a5 5 0 0 0-5-5H.824C.292 43.921 0 46.926 0 50s.292 6.079.824 9H2z"/><circle fill="#C0392B" cx="50.066" cy="49.91" r="33"/><circle fill="#fff" cx="50.5" cy="50.634" r="25"/><path fill="#C0392B" d="M32.144 49.992c-.447-.074-.874-.203-1.28-.388s-.749-.407-1.029-.667l.56-.811a.567.567 0 0 1 .443-.233c.093 0 .188.024.286.073l.317.178.376.213c.136.072.291.131.466.178l.215-2.204a9.115 9.115 0 0 1-.833-.275 2.707 2.707 0 0 1-.746-.427 2.048 2.048 0 0 1-.54-.685c-.138-.277-.207-.624-.207-1.042 0-.308.062-.608.187-.901a2.43 2.43 0 0 1 .545-.79 2.85 2.85 0 0 1 .883-.576c.35-.15.75-.226 1.201-.226l.064-.658c.012-.11.06-.21.146-.299s.196-.133.333-.133h.665l-.117 1.148c.42.078.781.203 1.084.376s.56.358.77.557l-.443.647a.77.77 0 0 1-.201.213.429.429 0 0 1-.242.067l-.21-.041-.256-.102-.3-.131-.341-.122L33.736 45l.56.178c.187.064.366.138.539.222s.334.18.484.289a1.752 1.752 0 0 1 .651.895c.062.192.093.411.093.656 0 .369-.062.716-.187 1.041a2.526 2.526 0 0 1-.548.86 2.825 2.825 0 0 1-.886.609c-.35.158-.75.254-1.201.289l-.07.729a.5.5 0 0 1-.146.295.445.445 0 0 1-.333.131h-.665l.117-1.202zm-.268-6.256c0 .229.073.415.219.557.146.142.337.261.574.358l.175-1.761a1.83 1.83 0 0 0-.452.12.954.954 0 0 0-.297.189.697.697 0 0 0-.167.248.826.826 0 0 0-.052.289zm2.472 3.772a.692.692 0 0 0-.212-.53 1.737 1.737 0 0 0-.563-.333l-.187 1.924c.641-.112.962-.466.962-1.061zm4.338 9.154h2.8v-7.35c0-.36.01-.736.03-1.13l-1.65 1.37a1.091 1.091 0 0 1-.32.185.94.94 0 0 1-.31.055.942.942 0 0 1-.465-.114.99.99 0 0 1-.305-.245l-.98-1.3 4.54-3.811h2.56v12.34h2.4v2.24h-8.3v-2.24zm20.28-5.05c0 1.273-.137 2.377-.41 3.31-.273.934-.652 1.707-1.136 2.32s-1.057 1.07-1.72 1.37-1.382.45-2.155.45-1.488-.15-2.145-.45-1.225-.757-1.705-1.37-.855-1.387-1.125-2.32c-.27-.933-.405-2.036-.405-3.31s.135-2.377.405-3.31c.27-.934.645-1.707 1.125-2.32s1.048-1.068 1.705-1.365 1.371-.445 2.145-.445 1.492.148 2.155.445 1.236.752 1.72 1.365.862 1.387 1.136 2.32c.273.933.41 2.036.41 3.31zm-3.2 0c0-1.007-.063-1.832-.19-2.475s-.295-1.148-.505-1.516c-.21-.366-.448-.618-.715-.755s-.537-.205-.811-.205-.541.068-.805.205-.496.389-.7.755c-.203.367-.366.872-.489 1.516-.124.644-.186 1.468-.186 2.475 0 1.014.062 1.84.186 2.48.123.64.286 1.145.489 1.515.204.37.437.623.7.76s.531.205.805.205.544-.068.811-.205.505-.39.715-.76.378-.875.505-1.515c.126-.64.19-1.466.19-2.48zm14.799 0c0 1.273-.137 2.377-.41 3.31-.273.934-.652 1.707-1.136 2.32s-1.057 1.07-1.72 1.37-1.382.45-2.155.45-1.488-.15-2.145-.45-1.225-.757-1.705-1.37c-.479-.613-.854-1.387-1.125-2.32-.27-.933-.405-2.036-.405-3.31s.136-2.377.405-3.31c.271-.934.646-1.707 1.125-2.32.48-.613 1.049-1.068 1.705-1.365s1.371-.445 2.145-.445 1.492.148 2.155.445 1.236.752 1.72 1.365.862 1.387 1.136 2.32c.274.933.41 2.036.41 3.31zm-3.2 0c0-1.007-.063-1.832-.19-2.475s-.295-1.148-.505-1.516c-.21-.366-.448-.618-.715-.755s-.537-.205-.811-.205-.541.068-.805.205-.496.389-.7.755c-.203.367-.366.872-.489 1.516-.124.644-.186 1.468-.186 2.475 0 1.014.062 1.84.186 2.48.123.64.286 1.145.489 1.515.204.37.437.623.7.76s.531.205.805.205.544-.068.811-.205.505-.39.715-.76.378-.875.505-1.515c.127-.64.19-1.466.19-2.48z"/><circle stroke="#fff" stroke-width="3" stroke-miterlimit="10" stroke-dasharray="6,6" cx="49.893" cy="50.551" r="29" fill="none"/></svg>