<svg xmlns="http://www.w3.org/2000/svg" width="100" height="100"><circle opacity=".6" fill="#FFF55B" cx="50" cy="50" r="50"/><path fill-rule="evenodd" clip-rule="evenodd" fill="#D35400" d="M50 11c-16.016 0-29 13.984-29 30v32a5 5 0 0 0 5 5h48a5 5 0 0 0 5-5V41c0-16.016-12.984-30-29-30z"/><circle fill-rule="evenodd" clip-rule="evenodd" fill="#D48A6D" cx="24" cy="47" r="7"/><circle fill-rule="evenodd" clip-rule="evenodd" fill="#D48A6D" cx="76" cy="47" r="7"/><path fill-rule="evenodd" clip-rule="evenodd" fill="#DF9274" d="M50 17c14.359 0 26 11.641 26 26v15c0 14.359-11.641 26-26 26S24 72.359 24 58V43c0-14.359 11.641-26 26-26z"/><path fill-rule="evenodd" clip-rule="evenodd" fill="#D35400" d="M50 10c-16.016 0-29 13.984-29 30 18.616 0 39-14 39-14s11.562 14 19 14c0-16.016-12.984-30-29-30z"/><path fill="#3498DB" d="M40 52.5c-2.481 0-4.5-2.019-4.5-4.5s2.019-4.5 4.5-4.5 4.5 2.019 4.5 4.5-2.019 4.5-4.5 4.5z"/><path fill="#fff" d="M40 45c1.654 0 3 1.346 3 3s-1.346 3-3 3-3-1.346-3-3 1.346-3 3-3m0-3a6 6 0 0 0 0 12 6 6 0 0 0 0-12z"/><path fill="#3498DB" d="M60 52.5c-2.481 0-4.5-2.019-4.5-4.5s2.019-4.5 4.5-4.5 4.5 2.019 4.5 4.5-2.019 4.5-4.5 4.5z"/><path fill="#fff" d="M60 45c1.654 0 3 1.346 3 3s-1.346 3-3 3-3-1.346-3-3 1.346-3 3-3m0-3a6 6 0 0 0 0 12 6 6 0 0 0 0-12z"/><path fill="#fff" stroke="#B87054" stroke-width="2" stroke-miterlimit="10" d="M59 65c0 5.523-4.029 10-9 10s-9-4.477-9-10h18z"/></svg>