<svg xmlns="http://www.w3.org/2000/svg" width="102" height="102"><circle opacity=".15" cx="50" cy="52" r="50"/><circle fill="#3B97D3" cx="52" cy="50" r="50"/><path fill="#fff" d="M52 10c22.091 0 40 17.909 40 40S74.091 90 52 90 12 72.091 12 50s17.909-40 40-40z"/><path fill-rule="evenodd" clip-rule="evenodd" fill="#6BC8F2" d="M52 20c16.569 0 30 13.431 30 30 0 16.568-13.431 30-30 30-16.569 0-30-13.432-30-30 0-16.569 13.431-30 30-30z"/><path fill="#fff" d="M52 30c11.046 0 20 8.955 20 20s-8.954 20-20 20-20-8.955-20-20 8.954-20 20-20z"/><path fill-rule="evenodd" clip-rule="evenodd" fill="#E64C3C" d="M52 40c5.523 0 10 4.477 10 10 0 5.522-4.477 10-10 10s-10-4.478-10-10c0-5.523 4.477-10 10-10z"/><path fill-rule="evenodd" clip-rule="evenodd" fill="#F0C419" d="M89 74H76l13 13h13L89 74z"/><path fill-rule="evenodd" clip-rule="evenodd" fill="#F29C1F" d="M89 100V87L76 74v13l13 13z"/><path fill-rule="evenodd" clip-rule="evenodd" fill="#F0C419" d="M89 74H76l13 13h13L89 74z"/><path opacity=".15" d="M50.439 48.439L15.121 83.757a50.513 50.513 0 0 0 2.097 2.145L52.56 50.56a1.5 1.5 0 1 0-2.121-2.121z"/><path fill="#E57E25" d="M90.363 89.896c-.384 0-.769-.146-1.062-.439L50.939 51.061a1.501 1.501 0 0 1 2.123-2.121l38.363 38.395a1.501 1.501 0 0 1-1.062 2.561z"/></svg>