<svg xmlns="http://www.w3.org/2000/svg" width="100" height="100"><path fill-rule="evenodd" clip-rule="evenodd" fill="#BDC3C7" d="M95 79H62v12h4.5a1.5 1.5 0 1 1 0 3h-33a1.5 1.5 0 1 1 0-3H38V79H5a5 5 0 0 1-5-5v-9h100v9a5 5 0 0 1-5 5z"/><path fill-rule="evenodd" clip-rule="evenodd" fill="#95A5A5" d="M38 79h24v2H38v-2z"/><path fill-rule="evenodd" clip-rule="evenodd" fill="#2C3E50" d="M5 0h90a5 5 0 0 1 5 5v60H0V5a5 5 0 0 1 5-5z"/><path fill-rule="evenodd" clip-rule="evenodd" fill="#35495E" d="M5 5h90v55H5V5z"/><circle fill-rule="evenodd" clip-rule="evenodd" fill="#35495E" cx="50" cy="72" r="2"/></svg>