<svg xmlns="http://www.w3.org/2000/svg" width="100" height="100.026"><path fill="#35495E" d="M50 0c27.613 0 50 22.386 50 50 0 27.615-22.387 50-50 50-27.614 0-50-22.385-50-50S22.386 0 50 0z"/><path fill="#F0C419" d="M54 20c-14.359 0-26 11.64-26 26 0 3.887.859 7.568 2.388 10.882l-3.534 3.533c-.913.913-.86 5.54-.867 5.608-.04.041-4.297-.443-5.235.494l-1.879 1.961c-1.196 1.197-.924 5.596-.945 5.521l-.005.006c.014.003-4.301-.357-5.217.557l-2.111 2.112c-.936.937-.696 5.353-.682 5.343.005-.006-4.482-.14-4.953.291C1.995 85.021 0 87.27 0 87.27l.018 12.756c0 .008 12.712-.023 12.712-.023l30.388-30.391A25.885 25.885 0 0 0 54 72c14.359 0 26-11.643 26-26 0-14.359-11.641-26-26-26zm6.741 13.481a5.778 5.778 0 1 1 1.237 11.42 5.975 5.975 0 0 1-5.215-1.665 5.977 5.977 0 0 1-1.664-5.213 5.778 5.778 0 0 1 5.642-4.542z"/><path fill="#F29C1F" d="M66.652 33.314a8.019 8.019 0 0 0-11.338 0 8.02 8.02 0 0 0 0 11.337 8.015 8.015 0 0 0 11.338 0 8.016 8.016 0 0 0 0-11.337zM64.5 42.499a4.994 4.994 0 1 1-7.062-7.064 4.992 4.992 0 0 1 7.062 0 4.993 4.993 0 0 1 0 7.064zM37.864 66.378a26.11 26.11 0 0 1-2.249-1.994L.018 99.98v.043c0 .002 1.887 0 4.206-.006l33.64-33.639z"/><path fill="#EBECED" d="M75.967 0C64.055 0 54.174 8.682 52.294 20.061A26.767 26.767 0 0 1 54 20c1.089 0 2.159.075 3.212.206 1.763-8.75 9.488-15.34 18.755-15.34 10.567 0 19.135 8.565 19.135 19.134 0 10.567-8.564 19.134-19.135 19.134-6.839 0-12.822-3.6-16.207-8.996a4.962 4.962 0 0 0-2.324 1.296 4.932 4.932 0 0 0-1.246 2.158C60.518 43.877 67.76 48 75.967 48c13.254 0 24-10.745 24-24 0-13.254-10.744-24-24-24z"/><path fill="#C8C9CB" d="M61.104 36.017a19.84 19.84 0 0 1-1.344-1.879 5.423 5.423 0 0 0-.627.198l-.006.002a5.413 5.413 0 0 0-.559.259l-.287.177-.262.168c-.188.14-.371.29-.543.458l-.074.073a5.015 5.015 0 0 0-.44.523l-.183.276-.141.229a5.16 5.16 0 0 0-.449 1.088c.451.655.938 1.28 1.453 1.886l3.462-3.458z"/></svg>