<svg xmlns="http://www.w3.org/2000/svg" width="100" height="100"><path fill-rule="evenodd" clip-rule="evenodd" fill="#2C3E50" d="M10 62V5a5 5 0 0 1 5-5h70a5 5 0 0 1 5 5v57H10z"/><path fill-rule="evenodd" clip-rule="evenodd" fill="#35495E" d="M14 4h72v54H14V4z"/><path fill-rule="evenodd" clip-rule="evenodd" fill="#BDC3C7" d="M0 62h100v3c0 2.209-2.791 3-5 3H5c-2.209 0-5-.791-5-3v-3z"/><path fill-rule="evenodd" clip-rule="evenodd" fill="#95A5A5" d="M59.95 62a2.5 2.5 0 0 1-2.45 2h-15a2.502 2.502 0 0 1-2.45-2h19.9z"/></svg>