<svg xmlns="http://www.w3.org/2000/svg" width="100" height="100"><path fill-rule="evenodd" clip-rule="evenodd" fill="#F2F2F2" d="M75 87.425L50 100 25 87.425 0 100V12.576L25 0l25 12.576L75 0l25 12.576V100L75 87.425z"/><path clip-rule="evenodd" stroke="#6BC9F2" stroke-width="4" stroke-miterlimit="10" d="M15 60V32l9.988-5.006L50 41l25-12 12 4" fill="none"/><path clip-rule="evenodd" stroke="#E64C3C" stroke-width="4" stroke-miterlimit="10" d="M15 61v-8l10-5 25 13 25-11 12-5V32" fill="none"/><path clip-rule="evenodd" stroke="#F29C1F" stroke-width="4" stroke-miterlimit="10" d="M15 61l35 18 17-8V43l20-10" fill="none"/><path fill-rule="evenodd" clip-rule="evenodd" fill="#fff" d="M87 36.5c-1.93 0-3.5-1.57-3.5-3.5s1.57-3.5 3.5-3.5 3.5 1.57 3.5 3.5-1.57 3.5-3.5 3.5z"/><path fill="#2980BA" d="M87 31c1.103 0 2 .897 2 2s-.897 2-2 2-2-.897-2-2 .897-2 2-2m0-3a5 5 0 1 0 .001 10.001A5 5 0 0 0 87 28z"/><path fill-rule="evenodd" clip-rule="evenodd" fill="#fff" d="M15 64.5c-1.93 0-3.5-1.57-3.5-3.5s1.57-3.5 3.5-3.5 3.5 1.57 3.5 3.5-1.57 3.5-3.5 3.5z"/><path fill="#2980BA" d="M15 59c1.103 0 2 .897 2 2s-.897 2-2 2-2-.897-2-2 .897-2 2-2m0-3a5 5 0 1 0 .001 10.001A5 5 0 0 0 15 56z"/><path opacity=".15" fill-rule="evenodd" clip-rule="evenodd" fill="#2C3E50" d="M0 100l25-12.576V0L0 12.576V100zm50-87.424V100l25-12.576V0L50 12.576z"/></svg>