<svg xmlns="http://www.w3.org/2000/svg" width="100" height="100"><path fill-rule="evenodd" clip-rule="evenodd" fill="#24AE5F" d="M23.25 79L0 67V32.656L51.75 7 75 19v34.5L23.25 79z"/><path fill-rule="evenodd" clip-rule="evenodd" fill="#1E9450" d="M0 64.554v2.983l23.193 11.932 51.622-25.356V51.13L23.193 76.486 0 64.554zm0-5.22v2.983l23.193 11.932 51.622-25.355V45.91L23.193 71.266 0 59.334zm0-10.441v2.983l23.193 11.932 51.622-25.355V35.47L23.193 60.825 0 48.893zm0 5.22v2.983l23.193 11.932 51.622-25.356v-2.983L23.193 66.046 0 54.113zm0-10.44v2.983l23.193 11.932 51.622-25.356V30.25L23.193 55.605 0 43.673zm23.251 1.462L0 33.084v3.013l23.251 12.05L75.003 22.54v-3.013L23.251 45.135zM0 38.453v2.983l23.251 11.932 51.752-25.356v-2.983L23.251 50.385 0 38.453z"/><path fill-rule="evenodd" clip-rule="evenodd" fill="#24AE5F" d="M48.133 91.884L24.998 79.951V50.647l51.495-25.355L100 37.299v29L48.133 91.884z"/><path fill-rule="evenodd" clip-rule="evenodd" fill="#1E9450" d="M25 77.085v2.983L48.25 92 100 66.644v-2.983L48.25 89.017 25 77.085zm0-5.22v2.983L48.25 86.78 100 61.424v-2.983L48.25 83.796 25 71.865zm0-10.441v2.983l23.25 11.932L100 50.983V48L48.25 73.356 25 61.424zm0 5.22v2.983L48.25 81.56 100 56.204v-2.983L48.25 78.576 25 66.644zm0-10.44v2.983l23.25 11.932L100 45.763V42.78L48.25 68.136 25 56.204zm23.25 6.367L25 50.64v2.983l23.25 11.932L100 40.199v-2.983L48.25 62.571z"/><path opacity=".1" d="M23.193 45.165L0 33.25v34.344L23.25 79.5l-.057-34.335zm25 17.435L25 50.685v29.292l23.25 11.906-.057-29.283z"/><path fill-rule="evenodd" clip-rule="evenodd" fill="#1E9450" d="M59.996 50.609l-11.363 5.459-9.702-5.22 13.138-6.436s-.912-2.62-.354-3.019c-.01.047-19.386 9.692-19.386 9.692l16.583 8.291 17.048-8.523s-1.669.055-3.148-.006c-1.502-.06-2.816-.238-2.816-.238zm13.446-3.496L93.5 37.5l-16.299-8.849-17.032 8.515c2.582-.133 4.697.978 4.697.978l12.126-5.94 10.448 5.221-13.99 6.72-.008 2.968z"/><path fill="#1E9450" d="M64.235 46.958a5.58 5.58 0 0 0 1.99-.302l-3.529-1.87-.3.078-.384.123c-.523.157-1.059.302-1.61.433-.551.131-1.111.213-1.68.246s-1.137-.001-1.702-.101a5.753 5.753 0 0 1-1.693-.597c-.574-.304-.973-.63-1.196-.977-.223-.348-.306-.694-.25-1.04.056-.346.236-.686.538-1.019a5.136 5.136 0 0 1 1.151-.924l-1.3-.689.981-.52 1.3.689a11.139 11.139 0 0 1 1.734-.57 9.4 9.4 0 0 1 1.831-.255 8.713 8.713 0 0 1 1.887.137 7.553 7.553 0 0 1 1.886.612l-2.361 1.251a3.822 3.822 0 0 0-1.564-.389c-.581-.026-1.06.061-1.437.261l2.989 1.584.509-.162.559-.171c1.045-.315 1.956-.502 2.731-.562.775-.058 1.449-.048 2.02.031.571.08 1.056.205 1.455.374.399.171.74.331 1.021.48.248.131.499.329.754.594.255.265.405.576.449.934.045.358-.059.753-.309 1.184-.251.431-.764.882-1.538 1.353l1.435.761-.981.52-1.435-.761c-1.332.61-2.69.918-4.075.924-1.385.007-2.797-.313-4.237-.959l2.344-1.242a4.315 4.315 0 0 0 2.017.541zm3.45-1.229c.143-.153.233-.311.27-.474a.693.693 0 0 0-.074-.489c-.086-.163-.264-.316-.535-.459a2.616 2.616 0 0 0-1.395-.308c-.491.028-1.154.167-1.988.418l3.242 1.718a2.6 2.6 0 0 0 .48-.406zM57.08 42.391a.76.76 0 0 0-.22.394.545.545 0 0 0 .098.413c.091.137.255.268.492.393.372.197.775.288 1.21.272.435-.016.981-.133 1.637-.349l-2.753-1.458a1.841 1.841 0 0 0-.464.335z"/><path fill-rule="evenodd" clip-rule="evenodd" fill="#1E9450" d="M34.583 32.609L23.22 38.068l-9.702-5.22 13.138-6.436s-.913-2.62-.354-3.019c-.01.047-19.386 9.692-19.386 9.692l16.583 8.291 17.048-8.523s-1.669.055-3.148-.006c-1.502-.06-2.816-.238-2.816-.238zm13.446-3.496L68.087 19.5l-16.299-8.849-17.032 8.515c2.582-.133 4.697.978 4.697.978l12.126-5.94 10.448 5.221-13.989 6.72-.009 2.968z"/><path fill="#1E9450" d="M38.822 28.958a5.558 5.558 0 0 0 1.99-.302l-3.53-1.87-.3.078-.384.123a28.85 28.85 0 0 1-1.61.433c-.551.131-1.111.213-1.68.246s-1.136-.001-1.702-.101a5.753 5.753 0 0 1-1.693-.597c-.574-.304-.973-.63-1.196-.977-.223-.348-.306-.694-.25-1.04.057-.346.236-.685.538-1.018a5.136 5.136 0 0 1 1.151-.924l-1.3-.689.981-.52 1.3.689a11.139 11.139 0 0 1 1.734-.57 9.4 9.4 0 0 1 1.831-.255 8.713 8.713 0 0 1 1.887.137 7.553 7.553 0 0 1 1.886.612l-2.361 1.251a3.822 3.822 0 0 0-1.564-.389c-.581-.026-1.06.061-1.437.261l2.989 1.584.509-.163.559-.171c1.045-.315 1.956-.502 2.731-.562.775-.059 1.449-.048 2.02.031.571.08 1.056.205 1.455.375.399.171.74.331 1.021.48.248.131.499.329.754.594.255.265.405.576.449.934.045.358-.059.753-.309 1.184-.251.431-.764.882-1.538 1.353l1.435.761-.981.52-1.435-.761c-1.332.61-2.69.918-4.075.924-1.385.007-2.797-.313-4.237-.959l2.344-1.242c.63.345 1.303.525 2.018.54zm3.45-1.229c.143-.153.233-.311.269-.474a.693.693 0 0 0-.074-.489c-.086-.163-.264-.316-.535-.46a2.616 2.616 0 0 0-1.395-.308l-1.988.419 3.242 1.718c.178-.117.338-.252.481-.406zm-10.605-3.338a.76.76 0 0 0-.22.394.545.545 0 0 0 .098.413c.092.137.255.268.492.393.372.197.775.288 1.211.272.435-.016.981-.133 1.637-.349l-2.753-1.458a1.83 1.83 0 0 0-.465.335z"/></svg>