<svg xmlns="http://www.w3.org/2000/svg" width="100" height="100"><path fill-rule="evenodd" clip-rule="evenodd" fill="#2C3E50" d="M99.138 42.545L77.004 53.826v5.177C77.004 66.733 64.919 73 50.01 73c-14.908 0-26.994-6.267-26.994-13.997v-5.167L.862 42.545c-1.15-.586-1.15-1.537 0-2.123l47.055-23.983c1.15-.586 3.014-.586 4.164 0l47.056 23.983c1.15.586 1.15 1.537.001 2.123z"/><path fill-rule="evenodd" clip-rule="evenodd" fill="#C03A2B" d="M50 43c12.152-.006 22.005 4.467 22.007 9.99.002 5.523-9.848 10.005-22 10.01-12.152.006-22.005-4.467-22.007-9.99-.002-5.523 9.848-10.004 22-10.01z"/><path fill-rule="evenodd" clip-rule="evenodd" fill="#35495E" d="M74.995 59.015c.006-3.076-2.434-6.152-7.321-8.499-9.764-4.688-25.593-4.688-35.357 0-4.852 2.329-7.287 5.378-7.317 8.432V45.062c-.03-3.091 2.405-6.187 7.317-8.545 9.763-4.688 25.593-4.688 35.357 0 4.887 2.347 7.327 5.423 7.321 8.499H75v14h-.005z"/><path fill-rule="evenodd" clip-rule="evenodd" fill="#3B536B" d="M75.022 45.775v12.446c-.38-2.807-2.778-5.562-7.245-7.707C62.871 48.158 56.431 46.988 50 47V33c6.431-.012 12.871 1.157 17.778 3.511 5.296 2.541 7.695 5.939 7.244 9.264z"/><path fill-rule="evenodd" clip-rule="evenodd" fill="#E64C3C" d="M29.722 52a21.2 21.2 0 0 0 2.599 1.489c9.763 4.688 25.593 4.688 35.356 0 .973-.467 1.821-.97 2.6-1.489 7.039 4.692 6.191 11.268-2.6 15.489-9.763 4.688-25.593 4.688-35.356 0-8.79-4.221-9.638-10.797-2.599-15.489z"/><path opacity=".5" fill-rule="evenodd" clip-rule="evenodd" fill="#C03A2B" d="M50 57.005c-6.398 0-12.797-1.172-17.678-3.516A21.052 21.052 0 0 1 29.723 52c-7.039 4.691-6.191 11.268 2.599 15.488 4.882 2.344 11.28 3.516 17.678 3.516V57.005z"/><path clip-rule="evenodd" stroke="#35495E" stroke-width="3" stroke-miterlimit="10" d="M94.995 40s.702 24.98-15.139 40.869" fill="none"/><path fill-rule="evenodd" clip-rule="evenodd" fill="#2C3E50" d="M91 74.139c0-2.763-2.233-5.003-4.988-5.003s-4.988 2.24-4.988 5.003c0 .286.038.562.084.835-1.834 1.616-6.25 5.015-11.097 5.157.116 7.63 8.415 9.869 8.415 9.869s5.943-5.169 7.978-10.897C88.973 78.898 91 76.767 91 74.139z"/></svg>