<svg xmlns="http://www.w3.org/2000/svg" width="100" height="100"><path fill="#e74c3c" d="M50 74.001V100h.072l-.072.002c-12.816-.008-25.662-4.828-35.417-14.584C4.812 75.646-.008 62.838 0 50c.009-12.816 4.829-25.662 14.583-35.417L33 33c-4.682 4.683-6.996 10.849-7 17-.004 6.162 2.31 12.311 7 17 4.683 4.684 10.848 6.996 17 7.001z"/><path fill-opacity=".15" d="M50 92C26.804 92 8 73.195 8 50c0-11.598 4.701-22.098 12.302-29.699l-5.719-5.718C7.868 21.299 0 33.438 0 50c0 27.062 21.625 50 50 50v-8z"/><path fill-opacity=".15" fill="#fff" d="M32.928 67c-4.689-4.689-7.003-10.838-7-17 .004-6.151 2.316-12.317 7-17l-5.627-5.627c-5.791 5.79-9.373 13.79-9.373 22.627 0 17.673 14.327 32 32 32v-7.999c-6.152-.005-12.316-2.317-17-7.001z"/><path fill="#EFC22D" d="M63 87L50.014 74.009V74l-.008.001-.001-.001-.005.001c-3.309.011-6.009 5.826-6.009 13 0 7.181 2.709 13.001 6.022 13.001v-.022L63 87z"/><path fill="#2D3E4F" d="M58.758 82.757A5.982 5.982 0 0 0 57 87c0 1.656.672 3.156 1.757 4.242L63 87l-4.242-4.243z"/><path fill="#3498db" d="M50 26.001V.002h-.072L50 0c12.816.008 25.662 4.828 35.417 14.584 9.771 9.771 14.592 22.58 14.584 35.417-.009 12.817-4.829 25.663-14.584 35.418L66.999 67.002c4.683-4.682 6.996-10.85 7-17 .004-6.162-2.312-12.31-7-17C62.316 28.319 56.15 26.006 50 26.001z"/><path fill-opacity=".1" d="M66.999 33.002c4.688 4.689 7.004 10.838 7 17-.004 6.15-2.317 12.318-7 17l5.627 5.627c5.791-5.789 9.373-13.789 9.373-22.627 0-17.672-14.326-32-32-32v7.999c6.151.005 12.317 2.318 17 7.001z"/><path fill-opacity=".15" fill="#fff" d="M50.001 8.001c23.195 0 41.999 18.805 41.999 42C92 61.6 87.299 72.1 79.698 79.7l5.72 5.718C92.133 78.702 100 66.563 100 50.001c0-27.062-21.624-50-49.999-50v8z"/><path fill="#EFC22D" d="M37 13.002l12.986 12.991v.009l.008-.001.001.001.005-.001c3.309-.011 6.008-5.826 6.008-13C56.008 5.821 53.299 0 49.986 0v.021L37 13.002z"/><path fill="#2D3E4F" d="M41.242 17.245A5.982 5.982 0 0 0 43 13.002a5.985 5.985 0 0 0-1.757-4.242L37 13.002l4.242 4.243z"/></svg>