<svg xmlns="http://www.w3.org/2000/svg" width="100" height="100"><circle fill="#F2F2F2" cx="50" cy="50" r="50"/><clipPath id="a"><circle cx="50" cy="50" r="50"/></clipPath><g fill-rule="evenodd" clip-rule="evenodd" clip-path="url(#a)"><path fill="#3B97D3" d="M28.016 74.252v20.66C34.652 98.167 42.111 100 50 100s15.348-1.833 21.984-5.088v-20.66L50.001 32.013 28.016 74.252z"/><path opacity=".15" d="M40.001 98.998V82.9c-7.061-1.658-11.912-5.016-11.995-8.9l-.005.005v20.899a49.597 49.597 0 0 0 12 4.094z"/><path opacity=".15" fill="#fff" d="M60 98.998V82.9c7.061-1.658 11.912-5.016 11.995-8.9l.005.005v20.899a49.597 49.597 0 0 1-12 4.094z"/><path fill="#F0C419" d="M71.982 73.894L56.495 44.396A13.92 13.92 0 0 1 50.001 46c-2.352 0-4.564-.586-6.51-1.611L28 73.894h.001c0 5.581 9.85 10.105 22 10.105s22-4.524 22-10.105h-.019z"/><path fill="#D4896C" d="M50 76c-12.15 0-22-4.925-22-10.999V35c0-6.075 9.85-11 22-11s22 4.925 22 11v30.001C72 71.075 62.15 76 50 76z"/><ellipse fill="#DF9173" cx="50" cy="35" rx="22" ry="11"/><path fill="#F0C419" d="M50 86c-12.15 0-22-4.925-22-11V55c0 6.075 9.85 11 22 11s22-4.925 22-11v20c0 6.075-9.85 11-22 11z"/></g></svg>