<svg xmlns="http://www.w3.org/2000/svg" width="100" height="72"><path fill="#E7F7FF" d="M0 0h100v44H0V0z"/><path fill="#3498DB" d="M84 69.199l13.938-13.938V38.945C96.829 38.741 96 37.95 96 37.001h-1c0 1.104-1.119 2-2.5 2s-2.5-.896-2.5-2h-1c0 1.104-1.119 2-2.5 2s-2.5-.896-2.5-2h-1c0 1.104-1.119 2-2.5 2s-2.5-.896-2.5-2h-1c0 1.104-1.119 2-2.5 2s-2.5-.896-2.5-2h-1c0 1.104-1.119 2-2.5 2s-2.5-.896-2.5-2h-1c0 1.104-1.119 2-2.5 2s-2.5-.896-2.5-2h-1c0 1.104-1.119 2-2.5 2s-2.5-.896-2.5-2h-1c0 1.104-1.119 2-2.5 2s-2.5-.896-2.5-2h-1c0 1.104-1.119 2-2.5 2s-2.5-.896-2.5-2h-1c0 1.104-1.119 2-2.5 2s-2.5-.896-2.5-2h-1c0 1.104-1.119 2-2.5 2s-2.5-.896-2.5-2h-1c0 1.104-1.119 2-2.5 2s-2.5-.896-2.5-2h-1c0 1.104-1.119 2-2.5 2s-2.5-.896-2.5-2h-1c0 1.104-1.119 2-2.5 2s-2.5-.896-2.5-2h-1c0 1.104-1.119 2-2.5 2s-2.5-.896-2.5-2H5c0 1.104-1.119 2-2.5 2s-2.5-.896-2.5-2V69.2l84-.001z"/><path fill="#2F89C5" d="M65 46v2h34v-2H65zm2 6h32v-2H67v2zm-2 4h31v-2H65v2zm6 4h18v-2H71v2z"/><path fill="#2C81BA" d="M70.801 69.199H84V56z"/><path fill="#F39C12" d="M15.726 57.883c1.529 0 2.768-.99 2.768-2.215h1.107c0 1.225 1.239 2.215 2.768 2.215 1.529 0 2.768-.99 2.768-2.215h1.107c0 1.225 1.239 2.215 2.768 2.215 1.529 0 2.769-.99 2.769-2.215h1.106c0 1.225 1.24 2.215 2.769 2.215 1.529 0 2.769-.99 2.769-2.215h1.105c0 1.225 1.238 2.215 2.768 2.215.342 0 .668-.057.969-.146l9.736-9.734s-35.977-.004-36 0h-4V56c.197 1.062 1.336 1.883 2.723 1.883z"/><path fill="#34495E" d="M20 38h3v10h-3V38z"/><path fill="#F1C40E" d="M20 45h25L20 20v25z"/><path fill="#EBEDEE" d="M0 0v72h84l4-5H5V5h90v55l5-4V0z"/><path fill="#BDC3C7" d="M84 72V56h16L84 72z"/><path fill="#C3E4F8" d="M63.807 20.031c.119-.323.193-.667.193-1.031a3 3 0 0 0-3-3c-.382 0-.744.078-1.08.209A4 4 0 0 0 56 13h-1a4 4 0 0 0-4 4v1c0 .798.24 1.537.643 2.16A2.495 2.495 0 0 0 52.5 25h11a2.492 2.492 0 1 0 .307-4.969z"/><path fill="#fff" d="M71.357 23.16A3.962 3.962 0 0 0 72 21v-1a4 4 0 0 0-4-4h-1a4 4 0 0 0-3.92 3.209A2.958 2.958 0 0 0 62 19c-1.656 0-3 1.345-3 3 0 .364.075.708.193 1.031A2.492 2.492 0 0 0 59.5 28h11a2.494 2.494 0 1 0 .857-4.84z"/><path fill="#DA8C11" d="M53 48H13v2h38z"/><path fill="#C8CACB" d="M73 67l-5 5h16v-5z"/><path fill="#2875A8" d="M84 60v-2h-2l-2 2z"/></svg>