<svg xmlns="http://www.w3.org/2000/svg" xmlns:xlink="http://www.w3.org/1999/xlink" width="65" height="99.997" viewBox="0 -0.027 65 99.997"><path fill="#D48A6D" d="M18.013 70.973h-8c-1.104 0-2 .961-2 2.146v24.705c0 1.186.896 2.146 2 2.146h8c1.104 0 2-.964 2-2.146V73.121c-.001-1.187-.896-2.148-2-2.148zm37.981 0h-7.999c-1.104 0-2 .961-2 2.146v24.705c0 1.186.896 2.146 2 2.146h7.999c1.104 0 1.999-.964 1.999-2.146V73.121c0-1.187-.893-2.148-1.999-2.148z"/><path fill="#DF9274" d="M58.79 42.195c2.903-3.69 4.21-9.733 4.21-9.733l-13.473-9.487s-1.207 4.713-1.485 9.774a31.472 31.472 0 0 0-15.011-3.774c-5.799 0-11.295 1.546-16.084 4.227-.228-5.229-1.503-10.227-1.503-10.227L2 32.461s1.362 6.322 4.399 9.982C2.394 47.812 0 54.391 0 61.451c0 17.742 15.083 32.521 33.032 32.521 17.95 0 31.968-14.757 31.968-32.5 0-7.174-2.293-13.857-6.21-19.277z"/><path fill="#E9B39E" d="M32.5 53.973c6.902 0 12.5 4.479 12.5 10s-5.598 10-12.5 10c-6.903 0-12.5-4.479-12.5-10s5.597-10 12.5-10z"/><path fill="#BA8F7E" d="M27 59.973a2 2 0 0 1 2 2v4a2 2 0 0 1-4 0v-4a2 2 0 0 1 2-2zm11 0a2 2 0 0 1 2 2v4a2 2 0 0 1-4 0v-4a2 2 0 0 1 2-2z"/><path fill="#B2755D" d="M32.506 84.25h-.021c-6.859 0-9.432-3.844-9.688-4.256l-.015-.021-.003-.008a1.5 1.5 0 0 1 2.58-1.532c.062.098 1.854 2.814 7.127 2.814s7.064-2.721 7.139-2.834a1.509 1.509 0 0 1 2.038-.494 1.495 1.495 0 0 1 .526 2.049l-.004.01c-.297.496-2.777 4.263-9.671 4.271l-.008.001z"/><path fill="#fff" d="M20.069 44.973c2.211 0 3.938 1.815 3.938 4s-1.727 4-3.938 4S16 51.155 16 48.97s1.858-3.997 4.069-3.997z"/><path fill="#2C3E50" d="M20 46.973a2 2 0 1 1-.001 4.001A2 2 0 0 1 20 46.973z"/><path fill="#fff" d="M45.07 44.973c2.211 0 3.938 1.815 3.938 4s-1.727 4-3.938 4S41 51.155 41 48.97s1.859-3.997 4.07-3.997z"/><path fill="#2C3E50" d="M45 46.973a2 2 0 1 1-.001 4.001A2 2 0 0 1 45 46.973z"/><path fill="#F1C40E" d="M31.004-.027h2.999c1.104 0 2 .962 2 2.147v19.704c0 1.188-.896 2.148-2 2.148h-2.999c-1.104 0-2-.963-2-2.148V2.121c0-1.186.896-2.148 2-2.148z"/><path fill="#C9816B" d="M60.102 33.547l-8.269-5.821s-2.99 11.655 1.651 13.31c4.646 1.652 6.618-7.489 6.618-7.489z"/><defs><path id="a" d="M18.013 70.973h-8c-1.104 0-2 .961-2 2.146v24.705c0 1.186.896 2.146 2 2.146h8c1.104 0 2-.964 2-2.146V73.121c-.001-1.187-.896-2.148-2-2.148zm37.981 0h-7.999c-1.104 0-2 .961-2 2.146v24.705c0 1.186.896 2.146 2 2.146h7.999c1.104 0 1.999-.964 1.999-2.146V73.121c0-1.187-.893-2.148-1.999-2.148z"/></defs><clipPath id="b"><use xlink:href="#a" overflow="visible"/></clipPath><path d="M49 96.973a3 3 0 1 0 0 6 3 3 0 0 0 0-6zm6 0a3 3 0 1 0 0 6 3 3 0 0 0 0-6zm-44 0a3 3 0 1 0 0 6 3 3 0 0 0 0-6zm6 0a3 3 0 1 0 0 6 3 3 0 0 0 0-6z" clip-path="url(#b)" fill="#EBEDEE"/><path d="M29.004 14.973h6.999v2h-6.999zm0 4h6.999v2h-6.999zm0-16h6.999v2h-6.999zm0 8h6.999v2h-6.999zm0-4h6.999v2h-6.999z" fill="#F5D34B"/><path fill="#C9816B" d="M11.511 41.036c4.642-1.655 1.651-13.31 1.651-13.31l-8.269 5.821c.001 0 1.973 9.141 6.618 7.489z"/></svg>