<svg xmlns="http://www.w3.org/2000/svg" width="99.979" height="99.977" viewBox="-0.003 0 99.979 99.977"><path fill="#EBECED" d="M92.869 7.105c9.478 9.476 9.478 24.832 0 34.308L41.411 92.869c-9.475 9.474-24.833 9.474-34.307 0-9.476-9.475-9.476-24.832 0-34.308L58.562 7.105c9.475-9.473 24.834-9.473 34.307 0z"/><path fill="#3B97D3" d="M32.548 33.122L7.105 58.563c-9.476 9.476-9.476 24.833 0 34.308 9.474 9.475 24.832 9.475 34.307 0L66.85 67.43 32.548 33.122z"/><path fill="#2086BF" d="M65.43 68.862L31.134 34.568l1.414-1.414 34.294 34.294z"/><path fill="#55A6DC" d="M38.096 41.51L12.7 66.906a5.894 5.894 0 0 0 0 8.339 5.896 5.896 0 0 0 8.339 0l25.396-25.396-8.339-8.339z"/><path fill="#EFF0F1" d="M75.244 12.7a5.897 5.897 0 0 0-8.343 0L39.51 40.096l8.339 8.339 27.396-27.396a5.899 5.899 0 0 0-.001-8.339z"/><path fill="#4F9ED4" d="M47.862 48.444l-1.414 1.414-8.335-8.336 1.414-1.414z"/></svg>