<svg xmlns="http://www.w3.org/2000/svg" viewBox="0 90 612 612"><path fill="#C0392B" d="M582.1 702v-59.7l29.9-29.9v59.7L582.1 702zM0 119.9L29.9 90h59.7l-29.9 29.9H0z"/><path fill="#E74C3C" d="M29.9 90h231.4L612 440.8v231.4L29.9 90z"/><text transform="rotate(45.001 -29925.754 24461.152)" fill="#FFF" font-family="'Lato-Regular'" font-size="97.01">POPULAR</text><path d="M214.4 184.4l-16.7 16.7-11.6-11.6 50-50 17.6 17.6c3.5 3.5 6.1 7 7.8 10.3 1.7 3.4 2.6 6.6 2.8 9.7.2 3.1-.3 6-1.6 8.8-1.2 2.8-3 5.3-5.3 7.6-2.5 2.5-5.2 4.4-8.1 5.7-2.9 1.3-5.9 1.8-9 1.7-3.1-.2-6.4-1.1-9.7-2.8-3.4-1.7-6.8-4.3-10.2-7.7l-6-6zm8.8-8.8l6 6c3 3 5.9 4.5 8.7 4.4s5.4-1.5 8-4c1.1-1.1 2-2.4 2.6-3.6.6-1.3.9-2.6.9-4s-.4-2.8-1.1-4.2c-.7-1.4-1.8-2.9-3.2-4.3l-6-6-15.9 15.7zm81 82c-3.6 3.6-7.6 6.4-12 8.2-4.4 1.9-8.8 2.8-13.4 2.8s-9.1-.9-13.6-2.8-8.7-4.8-12.6-8.7c-3.9-3.9-6.8-8.1-8.7-12.6s-2.8-9-2.8-13.6 1-9 2.8-13.4c1.9-4.4 4.6-8.3 8.2-12 3.6-3.6 7.6-6.4 12-8.2 4.4-1.9 8.8-2.8 13.4-2.8s9.1.9 13.6 2.8 8.7 4.8 12.6 8.7 6.8 8.1 8.6 12.6c1.9 4.5 2.8 9 2.8 13.6 0 4.5-1 9-2.8 13.4-1.7 4.4-4.5 8.4-8.1 12zm-11.8-11.9c2.5-2.5 4.4-5 5.7-7.6 1.3-2.6 2.1-5.2 2.3-7.8.2-2.6-.2-5.1-1.3-7.6-1-2.5-2.6-4.8-4.8-7-2.2-2.2-4.6-3.9-7.1-4.9s-5-1.4-7.6-1.3c-2.6.2-5.2.9-7.8 2.3-2.6 1.3-5.2 3.2-7.6 5.7-2.5 2.5-4.4 5-5.7 7.7-1.3 2.6-2.1 5.2-2.3 7.8s.3 5.1 1.3 7.6 2.7 4.8 4.9 7.1c2.2 2.2 4.6 3.8 7 4.9s5 1.4 7.5 1.3c2.6-.2 5.2-.9 7.8-2.3 2.6-1.5 5.2-3.4 7.7-5.9zm20.7 37.3l-16.7 16.7-11.6-11.6 50-50 17.6 17.6c3.5 3.5 6.1 7 7.8 10.3 1.7 3.4 2.6 6.6 2.8 9.7.2 3.1-.3 6-1.6 8.8-1.2 2.8-3 5.3-5.3 7.6-2.5 2.5-5.2 4.4-8.1 5.7-2.9 1.3-5.9 1.8-9 1.7-3.1-.2-6.4-1.1-9.7-2.8-3.4-1.7-6.8-4.3-10.2-7.7l-6-6zm8.7-8.7l6 6c3 3 5.9 4.5 8.7 4.4 2.8-.1 5.4-1.5 8-4 1.1-1.1 2-2.4 2.6-3.6.6-1.3.9-2.6.9-4s-.4-2.8-1.1-4.2c-.7-1.4-1.8-2.9-3.2-4.3l-6-6-15.9 15.7zm36.7 69.2c1.6 1.6 3.2 2.7 4.9 3.4 1.7.7 3.5 1 5.3.9s3.6-.6 5.5-1.6c1.8-.9 3.6-2.3 5.4-4l29.6-29.6 11.6 11.6-29.6 29.6c-3.1 3.1-6.4 5.4-9.9 6.9-3.6 1.6-7.2 2.3-10.9 2.3s-7.4-.8-11.1-2.4-7.2-4.1-10.5-7.4-5.8-6.8-7.4-10.5-2.4-7.4-2.4-11.1.8-7.3 2.4-10.9c1.6-3.5 3.9-6.8 7-9.9l29.6-29.6 11.6 11.6-29.6 29.6c-1.8 1.8-3.1 3.6-4 5.4s-1.5 3.7-1.6 5.5.2 3.6.9 5.3c.5 1.7 1.6 3.4 3.2 4.9zm40.7 40.5l18.5 18.5-9.3 9.3-30.1-30.1 50-50 11.6 11.6-40.7 40.7zm61.3 79.8l-9-9c-1-1-1.6-2.1-1.8-3.2-.2-1.1 0-2.2.4-3.2l5.8-11.7-19-19-11.7 5.8c-.9.4-1.9.5-3.1.4s-2.2-.7-3.2-1.7l-9.1-9.1 69.3-30.6 11.9 11.9-30.5 69.4zm-13-51.2l13.7 13.7 9.1-18.3c.6-1.2 1.2-2.5 2-4.1s1.7-3.2 2.6-5c-1.8 1-3.4 1.9-5 2.7-1.6.8-3 1.5-4.2 2l-18.2 9zm47.1 48.4l-18.5 18.5-11.6-11.6 50-50 16.3 16.3c3.6 3.6 6.3 7.1 8.1 10.4s2.9 6.4 3.1 9.3c.3 2.9-.1 5.7-1.2 8.2-1.1 2.5-2.7 4.9-4.8 7-1.6 1.6-3.4 2.9-5.2 3.9-1.9 1-3.9 1.7-5.9 2.1-2.1.4-4.2.4-6.4.1s-4.4-.9-6.7-1.9c.4 1.2.6 2.4.7 3.6s0 2.5-.3 3.9l-6.8 28-10.5-10.5c-1.9-1.9-2.6-4.1-2-6.4l6.2-22.8c.3-1 .3-1.9.1-2.7s-.8-1.6-1.7-2.5l-2.9-2.9zm8-8l4.7 4.7c1.6 1.6 3.1 2.7 4.6 3.4 1.5.7 3 1.1 4.4 1.1s2.8-.3 4-.9c1.3-.6 2.5-1.5 3.6-2.6 2.2-2.2 3.2-4.6 3-7.3s-1.8-5.5-4.8-8.5l-4.7-4.7-14.8 14.8z" fill="#FFF"/></svg>