<svg xmlns="http://www.w3.org/2000/svg" xmlns:xlink="http://www.w3.org/1999/xlink" width="100" height="100"><path fill="#34495E" d="M50 0c27.613 0 50 22.386 50 50s-22.387 50-50 50C22.386 100 0 77.614 0 50S22.386 0 50 0z"/><defs><circle id="a" cx="50" cy="50" r="50"/></defs><clipPath id="b"><use xlink:href="#a" overflow="visible"/></clipPath><g clip-path="url(#b)"><path fill="#1ABC9C" d="M20 66h60v64H20V66z"/><path fill="#17A085" d="M20 71h30v59H20V71z"/><path fill="#FFF55C" d="M50 86c12.15 0 22 9.85 22 22s-9.85 22-22 22-22-9.85-22-22 9.85-22 22-22z"/><path fill="#E5DC52" d="M50 86c.008.023-.005 44.037 0 44-12.15 0-22-9.85-22-22s9.85-22 22-22z"/><path fill="#687786" d="M34 24h32a4 4 0 0 1 4 4v21a4 4 0 0 1-4 4H34a4 4 0 0 1-4-4V28a4 4 0 0 1 4-4z"/><path fill="#fff" d="M45 34h10a4 4 0 0 1 4 4v16a4 4 0 0 1-4 4H45a4 4 0 0 1-4-4V38a4 4 0 0 1 4-4z"/><path fill="#EBEDEE" d="M40 48h20c11.046 0 20 8.954 20 20H20c0-11.046 8.954-20 20-20z"/><path fill="#BDC3C7" d="M20 67h60a2 2 0 0 1 0 4H20a2 2 0 0 1 0-4zm11-19h38c2.016 0 3 4 3 4H28s.954-4 3-4z"/><path fill="#AAAFB3" d="M20 67a2 2 0 0 0 0 4h30v-4H20z"/><path fill="#D3D5D6" d="M50 67V52H28.036c-4.619 3.46-7.681 8.859-7.986 15H50z"/><path fill="#AAAFB3" d="M31 48c-2.046 0-3 4-3 4h22v-4H31z"/><path fill="#E5E5E5" d="M50 34h-5a4 4 0 0 0-4 4v10h9V34z"/><path fill="#E74C3C" d="M50 39a3 3 0 1 1 0 6 3 3 0 0 1 0-6z"/></g></svg>