<svg xmlns="http://www.w3.org/2000/svg" xmlns:xlink="http://www.w3.org/1999/xlink" width="100" height="100"><path fill="#EBEEEF" d="M50 0c27.613 0 50 22.386 50 50s-22.387 50-50 50C22.386 100 0 77.614 0 50S22.386 0 50 0z"/><defs><circle id="a" cx="50" cy="50" r="50"/></defs><clipPath id="b"><use xlink:href="#a" overflow="visible"/></clipPath><g clip-path="url(#b)"><path fill="#F1C40E" d="M45 61h10c11.046 0 20 8.954 20 20v8c0 11.046-8.954 20.001-20 20.001H45c-11.046 0-20-8.955-20-20.001v-8c0-11.046 8.954-20 20-20z"/><path fill="#FFF55C" d="M49.865 79.994c-2.042 0-3.863 1.538-3.863 3.152 0 .685.51 1.19 1.24 1.19.847 0 1.152-.504 1.38-.985.244-.519.439-.963 1.335-.963.793 0 1.398.377 1.398 1.061 0 .588-.701.798-1.318 1.267-.72.546-1.535 1.166-1.535 2.226 0 .606.429 1.223 1.224 1.223.889 0 1.088-.49 1.25-.907.061-.157.116-.308.207-.438.125-.178.436-.396.764-.625.867-.608 2.057-1.441 2.057-2.938 0-2.409-2.231-3.263-4.139-3.263zm-.1 9.126c-.78 0-1.412.646-1.412 1.438 0 .797.632 1.439 1.412 1.439.78 0 1.411-.646 1.411-1.439s-.631-1.438-1.411-1.438zM51 53c7.732 0 14 4.479 14 10.001C65 68.521 58.732 73 51 73s-14-4.479-14-9.999C37 57.479 43.268 53 51 53z"/><path fill="#4D301A" d="M33 47.001h36A2 2 0 0 1 71 49v11a2 2 0 0 1-2 2H33a2 2 0 0 1-2-2V49a2 2 0 0 1 2-1.999z"/><path fill="#DF9274" d="M51 19c11.046 0 20 11.193 20 25 0 13.809-8.954 25-20 25S31 57.809 31 44c0-13.807 8.954-25 20-25z"/><path fill="#fff" d="M43.5 43a3.5 3.5 0 1 1 0 7 3.5 3.5 0 0 1 0-7z"/><path fill="#3498DB" d="M43.5 45a1.5 1.5 0 1 1 0 3 1.5 1.5 0 0 1 0-3z"/><path fill="#fff" d="M57.5 43a3.5 3.5 0 1 1 0 7 3.5 3.5 0 0 1 0-7z"/><path fill="#3498DB" d="M57.5 45a1.5 1.5 0 1 1-.002 3.002A1.5 1.5 0 0 1 57.5 45z"/><path fill="#4D301A" d="M70.619 39.143C68.811 27.661 60.716 19 51 19c-10.006 0-18.296 9.186-19.768 21.179 1.559.524 11.375 3.339 23.859-5.729 2.589 2.925 7.729 7.181 15.528 4.693z"/><path fill="#C0392C" d="M70.027 37c-1.202.008-.996 3.358-.996 7.5 0 .835-.012 1.637-.02 2.388-1.045 1.618-3.777 5.537-7.025 7.566-2.707 1.692-6.332 2.837-8.23 3.364A3 3 0 1 0 51 62a2.995 2.995 0 0 0 2.891-2.236c1.27-.306 5.731-1.474 8.916-3.463 2.562-1.603 4.854-4.363 6.262-6.294.1 1.233.353 1.993.958 1.993C73.326 52 76 48.642 76 44.5s-2.674-7.522-5.973-7.5zM32 37c-3.313-.022-6 3.358-6 7.5s2.687 7.5 6 7.5c1.283 0 1-3.358 1-7.5s.207-7.492-1-7.5z"/></g></svg>