<svg xmlns="http://www.w3.org/2000/svg" width="100" height="100"><path fill-rule="evenodd" clip-rule="evenodd" fill="#F1C40F" d="M78.993 26h21l.007 74H39.865v-.004l-.355.004C17.682 100-.011 94.27-.011 87.199L-.007 13h79v13z"/><path fill="#F39C12" d="M40 13h39v13H40z"/><ellipse fill="#E67E22" cx="39.5" cy="13" rx="39.5" ry="13"/><ellipse opacity=".2" cx="40.334" cy="12.812" rx="16" ry="4.5"/><path fill-rule="evenodd" clip-rule="evenodd" fill="#F39C12" d="M40.668 93a2 2 0 1 0 0 4 2 2 0 0 0 0-4zm0-8a2 2 0 1 0 0 4 2 2 0 0 0 0-4zm0-8a2 2 0 1 0 0 4 2 2 0 0 0 0-4zm0-8a2 2 0 1 0 0 4 2 2 0 0 0 0-4zm0-16a2 2 0 1 0 0 4 2 2 0 0 0 0-4zm0-8a2 2 0 1 0 0 4 2 2 0 0 0 0-4zm0-12a2 2 0 1 0 0-3.998 2 2 0 0 0 0 3.998zm0 4a2 2 0 1 0 0 4 2 2 0 0 0 0-4zm0 24a2 2 0 1 0 0 4 2 2 0 0 0 0-4z"/></svg>