<svg xmlns="http://www.w3.org/2000/svg" width="100" height="100"><path fill-rule="evenodd" clip-rule="evenodd" fill="#E64C3C" d="M87.549 15.63L11.911 91.009a6.93 6.93 0 0 1-9.868 0c-2.725-2.752-2.725-7.214 0-9.965l2.559-2.584c.584-.59 1.53-.59 2.115 0 .584.59.584 1.546 0 2.136L4.158 83.18a4.056 4.056 0 0 0 0 5.695 3.96 3.96 0 0 0 5.639 0l75.638-75.379c.584-.59 1.53-.59 2.114 0a1.519 1.519 0 0 1 0 2.134z"/><path fill-rule="evenodd" clip-rule="evenodd" fill="#3B97D3" d="M90.859 91.004c-4.45-11.3-13.109-20-25.062-24.58-4.451-11.788-21.309-28.732-33.023-33.212C27.94 20.448 19.236 12.963 10.166 8.778A58.39 58.39 0 0 1 41.03 0C73.598 0 100 26.553 100 59.308a59.237 59.237 0 0 1-9.141 31.696z"/><path clip-rule="evenodd" d="M383.894 632.447c0-32.568-26.553-58.97-59.307-58.97s-59.308 26.401-59.308 58.97c0 32.568 26.553 58.97 59.308 58.97s59.307-26.402 59.307-58.97z" fill="none"/><path opacity=".15" fill-rule="evenodd" clip-rule="evenodd" fill="#fff" d="M83.306 17.981c.204 1.989.309 4.007.309 6.049 0 16.544-6.781 31.685-17.818 42.395 11.953 4.58 20.612 13.28 25.062 24.58A59.243 59.243 0 0 0 100 59.308c0-16.074-6.368-30.645-16.694-41.327z"/><path opacity=".15" fill-rule="evenodd" clip-rule="evenodd" d="M32.77 33.201C43.361 23.167 57.653 17 73.394 17c3.325 0 6.581.288 9.756.816C72.447 6.827 57.534 0 41.03 0a58.39 58.39 0 0 0-30.864 8.778c9.067 4.183 17.769 11.666 22.604 24.423z"/></svg>