<svg xmlns="http://www.w3.org/2000/svg" xmlns:xlink="http://www.w3.org/1999/xlink" width="100" height="92.027"><path fill="#F1C40E" d="M96 28.027h-92c-2.209 0-4 1.791-4 4v6c0 2.209 1.791 4 4 4h1v46c0 2.209 1.791 4 4 4h82c2.209 0 4-1.791 4-4v-46h1c2.209 0 4-1.791 4-4v-6c0-2.209-1.791-4-4-4z"/><path fill="#B5930C" d="M14 50.027c-1.657 0-2 1.344-2 3v9c0 1.657.343 3 2 3s2-1.343 2-3v-9c0-1.657-.343-3-2-3zm0 20c-1.657 0-2 1.344-2 3v9c0 1.657.343 3 2 3s2-1.343 2-3v-9c0-1.657-.343-3-2-3zm8-20c-1.657 0-2 1.344-2 3v9c0 1.657.343 3 2 3s2-1.343 2-3v-9c0-1.657-.343-3-2-3zm0 20c-1.657 0-2 1.344-2 3v9c0 1.657.343 3 2 3s2-1.343 2-3v-9c0-1.657-.343-3-2-3zm8-20c-1.657 0-2 1.344-2 3v9c0 1.657.343 3 2 3s2-1.343 2-3v-9c0-1.657-.343-3-2-3zm0 20c-1.657 0-2 1.344-2 3v9c0 1.657.343 3 2 3s2-1.343 2-3v-9c0-1.657-.343-3-2-3zm8-20c-1.657 0-2 1.344-2 3v9c0 1.657.343 3 2 3s2-1.343 2-3v-9c0-1.657-.343-3-2-3zm0 20c-1.657 0-2 1.344-2 3v9c0 1.657.343 3 2 3s2-1.343 2-3v-9c0-1.657-.343-3-2-3zm8-20c-1.657 0-2 1.344-2 3v9c0 1.657.343 3 2 3s2-1.343 2-3v-9c0-1.657-.343-3-2-3zm0 20c-1.657 0-2 1.344-2 3v9c0 1.657.343 3 2 3s2-1.343 2-3v-9c0-1.657-.343-3-2-3zm8-20c-1.657 0-2 1.344-2 3v9c0 1.657.343 3 2 3s2-1.343 2-3v-9c0-1.657-.343-3-2-3zm0 20c-1.657 0-2 1.344-2 3v9c0 1.657.343 3 2 3s2-1.343 2-3v-9c0-1.657-.343-3-2-3zm8-20c-1.657 0-2 1.344-2 3v9c0 1.657.343 3 2 3s2-1.343 2-3v-9c0-1.657-.343-3-2-3zm0 20c-1.657 0-2 1.344-2 3v9c0 1.657.343 3 2 3s2-1.343 2-3v-9c0-1.657-.343-3-2-3zm8-20c-1.657 0-2 1.344-2 3v9c0 1.657.343 3 2 3s2-1.343 2-3v-9c0-1.657-.343-3-2-3zm0 20c-1.657 0-2 1.344-2 3v9c0 1.657.343 3 2 3s2-1.343 2-3v-9c0-1.657-.343-3-2-3zm8-20c-1.657 0-2 1.344-2 3v9c0 1.657.343 3 2 3s2-1.343 2-3v-9c0-1.657-.343-3-2-3zm0 20c-1.657 0-2 1.344-2 3v9c0 1.657.343 3 2 3s2-1.343 2-3v-9c0-1.657-.343-3-2-3zm8-20c-1.657 0-2 1.344-2 3v9c0 1.657.343 3 2 3s2-1.343 2-3v-9c0-1.657-.343-3-2-3zm0 20c-1.657 0-2 1.344-2 3v9c0 1.657.343 3 2 3s2-1.343 2-3v-9c0-1.657-.343-3-2-3z"/><path fill="#D8B00C" d="M5 88.027c0 2.209 1.791 4 4 4h39.961l46.039-46v-4h-90v46z"/><path fill="#34495E" d="M87 32.027c-1.657 0-3 1.344-3 3 0 1.657 1.343 3 3 3s3-1.343 3-3-1.343-3-3-3zm-74 0c-1.657 0-3 1.344-3 3 0 1.657 1.343 3 3 3s3-1.343 3-3-1.343-3-3-3z"/><path fill="#34495E" d="M76.521 28.027h11.018l-26.887-26.886c-1.521-1.521-3.986-1.521-5.508 0-1.521 1.521-1.521 3.986 0 5.509l21.377 21.377zm-53.042 0l21.376-21.377c1.521-1.521 1.521-3.987 0-5.509-1.521-1.522-3.988-1.521-5.509 0l-26.885 26.886h11.018z"/><defs><path id="a" d="M5 88.027c0 2.209 1.791 4 4 4h39.961l46.039-46v-4h-90v46z"/></defs><clipPath id="b"><use xlink:href="#a" overflow="visible"/></clipPath><path clip-path="url(#b)" fill="#A3840B" d="M14 50.027c-1.657 0-2 1.344-2 3v9c0 1.657.343 3 2 3s2-1.343 2-3v-9c0-1.657-.343-3-2-3zm0 20c-1.657 0-2 1.344-2 3v9c0 1.657.343 3 2 3s2-1.343 2-3v-9c0-1.657-.343-3-2-3zm8-20c-1.657 0-2 1.344-2 3v9c0 1.657.343 3 2 3s2-1.343 2-3v-9c0-1.657-.343-3-2-3zm0 20c-1.657 0-2 1.344-2 3v9c0 1.657.343 3 2 3s2-1.343 2-3v-9c0-1.657-.343-3-2-3zm8-20c-1.657 0-2 1.344-2 3v9c0 1.657.343 3 2 3s2-1.343 2-3v-9c0-1.657-.343-3-2-3zm0 20c-1.657 0-2 1.344-2 3v9c0 1.657.343 3 2 3s2-1.343 2-3v-9c0-1.657-.343-3-2-3zm8-20c-1.657 0-2 1.344-2 3v9c0 1.657.343 3 2 3s2-1.343 2-3v-9c0-1.657-.343-3-2-3zm0 20c-1.657 0-2 1.344-2 3v9c0 1.657.343 3 2 3s2-1.343 2-3v-9c0-1.657-.343-3-2-3zm8-20c-1.657 0-2 1.344-2 3v9c0 1.657.343 3 2 3s2-1.343 2-3v-9c0-1.657-.343-3-2-3zm0 20c-1.657 0-2 1.344-2 3v9c0 1.657.343 3 2 3s2-1.343 2-3v-9c0-1.657-.343-3-2-3zm8-20c-1.657 0-2 1.344-2 3v9c0 1.657.343 3 2 3s2-1.343 2-3v-9c0-1.657-.343-3-2-3zm0 20c-1.657 0-2 1.344-2 3v9c0 1.657.343 3 2 3s2-1.343 2-3v-9c0-1.657-.343-3-2-3zm8-20c-1.657 0-2 1.344-2 3v9c0 1.657.343 3 2 3s2-1.343 2-3v-9c0-1.657-.343-3-2-3zm0 20c-1.657 0-2 1.344-2 3v9c0 1.657.343 3 2 3s2-1.343 2-3v-9c0-1.657-.343-3-2-3zm8-20c-1.657 0-2 1.344-2 3v9c0 1.657.343 3 2 3s2-1.343 2-3v-9c0-1.657-.343-3-2-3zm0 20c-1.657 0-2 1.344-2 3v9c0 1.657.343 3 2 3s2-1.343 2-3v-9c0-1.657-.343-3-2-3zm8-20c-1.657 0-2 1.344-2 3v9c0 1.657.343 3 2 3s2-1.343 2-3v-9c0-1.657-.343-3-2-3zm0 20c-1.657 0-2 1.344-2 3v9c0 1.657.343 3 2 3s2-1.343 2-3v-9c0-1.657-.343-3-2-3zm8-20c-1.657 0-2 1.344-2 3v9c0 1.657.343 3 2 3s2-1.343 2-3v-9c0-1.657-.343-3-2-3zm0 20c-1.657 0-2 1.344-2 3v9c0 1.657.343 3 2 3s2-1.343 2-3v-9c0-1.657-.343-3-2-3z"/></svg>