<svg xmlns="http://www.w3.org/2000/svg" xmlns:xlink="http://www.w3.org/1999/xlink" width="89.008" height="100"><path fill="#334D5C" d="M41.494 17.018c22.916 0 41.494 18.576 41.494 41.491s-18.578 41.491-41.494 41.491-41.494-18.576-41.494-41.491 18.578-41.491 41.494-41.491z"/><path fill="#243641" d="M36.469 26.301c2.066.803 3.084 3.113 2.274 5.161s-3.142 3.057-5.208 2.254c-2.066-.804-3.084-3.114-2.274-5.162.811-2.047 3.142-3.056 5.208-2.253z"/><path fill="#243641" d="M54.439 33.254c2.057.807 3.067 3.128 2.262 5.185-.805 2.057-3.127 3.069-5.184 2.264-2.058-.807-3.072-3.128-2.265-5.185s3.131-3.071 5.187-2.264z"/><path fill="#243641" d="M39.469 44.283c2.066.807 3.084 3.128 2.273 5.185-.81 2.058-3.142 3.07-5.208 2.265-2.066-.807-3.084-3.128-2.274-5.186.811-2.057 3.143-3.069 5.209-2.264z"/><path fill="#2E4553" d="M46.494 92c-22.916 0-41.494-18.576-41.494-41.491 0-6.368 1.439-12.398 4.002-17.791-5.629 7.083-9.002 16.04-9.002 25.791 0 22.915 18.578 41.491 41.494 41.491 16.549 0 30.83-9.688 37.492-23.7-7.601 9.561-19.326 15.7-32.492 15.7z"/><path fill="#ECF0F1" d="M89.008 70.879c0-10.431-2.002-17.898-6.938-27.025-3.639-6.637-4.818-13.985-3.402-21.214l2.348-12.207c.113-.543.117-.863.117-1.661 0-4.856-3.881-8.772-8.692-8.772-4.709 0-8.582 3.916-8.582 8.772 0 .626.039 1.161.121 1.661l2.348 12.089c1.291 7.229.234 14.696-3.402 21.216-4.588 8.294-6.938 17.657-6.938 27.141 0 9.477 2.35 18.844 6.938 27.141h.062c.898 1.13 4.817 1.98 9.512 1.98 5.115 0 9.299-1.01 9.67-2.291 4.859-9.037 6.838-16.475 6.838-26.83z"/><path fill="#DBDFE0" d="M64.988 98.02h-.062c-4.588-8.297-6.938-17.664-6.938-27.141 0-9.484 2.35-18.847 6.938-27.141 3.637-6.52 4.693-13.986 3.402-21.216l-2.348-12.088c-.082-.5-.121-1.035-.121-1.661 0-4.511 3.344-8.205 7.592-8.709-.33-.039-.666-.064-1.01-.064-4.709 0-8.582 3.916-8.582 8.772 0 .626.039 1.161.121 1.661l2.348 12.089c1.291 7.229.234 14.696-3.402 21.216-4.588 8.294-6.938 17.657-6.938 27.141 0 9.477 2.35 18.844 6.938 27.141h.062c.899 1.13 4.817 1.98 9.512 1.98.342 0 .678-.005 1.01-.014-4.248-.11-7.686-.918-8.522-1.966z"/><defs><path id="a" d="M89.008 70.879c0-10.431-2.002-17.898-6.938-27.025-3.639-6.637-4.818-13.985-3.402-21.214l2.348-12.207c.113-.543.117-.863.117-1.661 0-4.856-3.881-8.772-8.692-8.772-4.709 0-8.582 3.916-8.582 8.772 0 .626.039 1.161.121 1.661l2.348 12.089c1.291 7.229.234 14.696-3.402 21.216-4.588 8.294-6.938 17.657-6.938 27.141 0 9.477 2.35 18.844 6.938 27.141h.062c.898 1.13 4.817 1.98 9.512 1.98 5.115 0 9.299-1.01 9.67-2.291 4.859-9.037 6.838-16.475 6.838-26.83z"/></defs><clipPath id="b"><use xlink:href="#a" overflow="visible"/></clipPath><path clip-path="url(#b)" fill="#E74C3C" d="M59 38h27v-6h-27v6zm0-16v6h27v-6h-27z"/><path fill="#D74737" d="M66.328 22.522c.324 1.817.5 3.649.525 5.478h2c-.025-1.828-.201-3.66-.525-5.478l-.101-.522h-2l.101.522zm.332 9.478c-.225 2.031-.65 4.039-1.27 6h2c.618-1.961 1.045-3.969 1.27-6h-2z"/></svg>