<svg xmlns="http://www.w3.org/2000/svg" xmlns:xlink="http://www.w3.org/1999/xlink" width="100" height="100"><path fill="#ECF0F1" d="M50 0c27.613 0 50 22.386 50 50s-22.387 50-50 50c-27.614 0-50-22.386-50-50s22.386-50 50-50z"/><path fill="#DF9274" d="M21.99 66.896c-2.277-.464-3.99-2.48-3.99-4.896 0-.717.004-1.373.01-2h-.01v-19c0-1.657-1.343-3-3-3h-4c-1.657 0-3 1.343-3 3v19h-.01c.006.627.01 1.283.01 2 0 2.416-1.713 4.432-3.99 4.896-2.352.454-4.01 2.643-4.01 5.104v2c0 2.762 2.239 5 5 5h16c2.761 0 5-2.238 5-5v-2c0-2.461-1.658-4.65-4.01-5.104zm-8.99-21.896c-1.104 0-2-.896-2-2s.896-2 2-2 2 .896 2 2-.896 2-2 2z"/><path fill="#C88368" d="M4 66.9c-2.297.447-3.919 2.553-3.987 4.947.068 3.49 1.751 6.378 3.987 7.051v-11.998z"/><rect y="83" fill="#2C3E50" width="26" height="17"/><path fill="#283848" d="M2 100h2v-17h-2v17zm4 0h2v-17h-2v17zm4 0h2v-17h-2v17zm4 0h2v-17h-2v17zm4 0h2v-17h-2v17zm4-17v17h2v-17h-2z"/><path fill="#95A5A6" d="M0 71h26v11h-26v-11z"/><path fill="#BDC3C7" d="M0 81h26v2h-26v-2z"/><path fill="#BDC3C7" d="M0 71h26v2h-26v-2z"/><path fill="#C0392C" d="M8 41v7h10v-7c0-1.657-1.343-3-3-3h-4c-1.657 0-3 1.343-3 3zm5 0c1.104 0 2 .896 2 2s-.896 2-2 2-2-.896-2-2 .896-2 2-2z"/><rect y="71" fill="#869495" width="4" height="11"/><rect y="71" fill="#AAAFB3" width="4" height="2"/><rect y="81" fill="#AAAFB3" width="4" height="2"/><defs><circle id="a" cx="50" cy="50" r="50"/></defs><clipPath id="b"><use xlink:href="#a" overflow="visible"/></clipPath><g clip-path="url(#b)"><path fill="#7F8C8D" d="M120 44h-3.447c0-19.578-15.725-36.007-35.053-36.007s-35.552 16.429-35.552 36.007h-2.948c0-21.505 17.271-39 38.5-39s38.5 17.495 38.5 39z"/><path fill="#2C3E50" d="M39 44h79v82h-79v-82z"/><path fill="#F1C40E" d="M39 68h79v20h-79v-20z"/><path fill="#253544" d="M77 44h-20v14.5c0 3.037 2.463 5.5 5.5 5.5s5.5-2.463 5.5-5.5v-4c0-2.484 2.016-4.5 4.5-4.5s4.5 2.016 4.5 4.5v-.5c0 2.209 1.791 4 4 4s4-1.791 4-4v-10h-8z"/><path fill="#F1C40E" d="M79 44h-20v12.5c0 3.038 2.463 5.5 5.5 5.5s5.5-2.462 5.5-5.5v-4c0-2.485 2.016-4.5 4.5-4.5s4.5 2.015 4.5 4.5v-.5c0 2.209 1.791 4 4 4s4-1.791 4-4v-8h-8z"/><path fill="#283848" d="M39 44h10v68h-10v-68z"/><rect x="39" y="68" fill="#D8B00C" width="10" height="20"/></g></svg>