<svg xmlns="http://www.w3.org/2000/svg" width="100" height="100"><circle fill="#F0C419" cx="50" cy="50" r="50"/><clipPath id="a"><circle cx="50" cy="50" r="50"/></clipPath><g fill-rule="evenodd" clip-rule="evenodd" clip-path="url(#a)"><path fill="#FCF062" d="M7.619 21.663l42.38 28.337-28.31-42.406-14.07 14.069zm84.775.019l-14.065-14.075-28.329 42.393-49.995-9.961-.005 19.901 50-9.94-42.394 28.319 14.065 14.075 28.329-42.393-9.958 50.01 19.895.004-9.937-50.014 28.31 42.406 14.071-14.07-42.381-28.337 42.394-28.318zm7.606 18.379l-50 9.939 49.996 9.962.004-19.901zm-59.937-40.075l9.937 50.013 9.958-50.009-19.895-.004z"/><path fill-rule="evenodd" clip-rule="evenodd" fill="#FCF062" stroke="#F29C1F" stroke-width="4" stroke-miterlimit="10" d="M60 93h-20c0-7.575-3.487-17.565-7.99-21.324-6.119-5.159-10.01-12.898-10.01-21.551 0-15.533 12.536-28.125 28-28.125s28 12.592 28 28.125c0 8.667-4.156 16.13-10.04 21.576-4.769 4.769-7.96 13.765-7.96 21.299z"/><path fill-rule="evenodd" clip-rule="evenodd" fill="#F29C1F" d="M53 95c-.553 0-1-.447-1-1v-33h-4v33c0 .553-.448 1-1 1h-2c-.552 0-1-.447-1-1v-33h-2.5c-3.584 0-6.5-2.916-6.5-6.5s2.916-6.5 6.5-6.5c3.309 0 6.041 2.427 6.446 5.684.035.099.054.206.054.316v3h4v-3c0-.115.02-.226.056-.329.41-3.25 3.14-5.671 6.444-5.671 3.584 0 6.5 2.916 6.5 6.5s-2.916 6.5-6.5 6.5h-2.5v33c0 .553-.447 1-1 1h-2zm5.5-38c1.379 0 2.5-1.121 2.5-2.5s-1.121-2.501-2.5-2.501c-1.226 0-2.283.922-2.459 2.144l-.041.173v2.684h2.5zm-17-5.001c-1.378 0-2.5 1.122-2.5 2.501s1.122 2.5 2.5 2.5h2.5v-2.692l-.04-.165c-.176-1.222-1.234-2.144-2.46-2.144z"/><path fill-rule="evenodd" clip-rule="evenodd" fill="#E57E25" d="M38 91h24v9h-24v-9z"/><path fill-rule="evenodd" clip-rule="evenodd" fill="#E57E25" d="M44 64h4v-3h-4v3zm8-3v3h4v-3h-4z"/></g></svg>