<svg xmlns="http://www.w3.org/2000/svg" width="100" height="99"><rect x="2" y="32" fill="#C0392C" width="96" height="51"/><path fill="#2C3E50" d="M75 85.999h4c1.104 0 2 .896 2 2v4c0 1.104-.896 2-2 2h-4c-1.104 0-2-.896-2-2v-4c0-1.103.896-2 2-2z"/><path fill="#23475F" d="M93 89v7.999c0 1.105-.896 2.001-2 2.001h-12c-1.104 0-2-.896-2-2.001v-7.999c.02-.004 15.994.021 16 0z"/><path fill="#1D3D51" d="M79.917 99h2v-10h-2v10zm4.166 0h1.834v-10h-1.834v10zm4-10v10h1.834v-10h-1.834z"/><path fill="#2C3E50" d="M21 85.999h4c1.104 0 2 .896 2 2v4c0 1.104-.896 2-2 2h-4c-1.104 0-2-.896-2-2v-4c0-1.103.896-2 2-2z"/><path fill="#23475F" d="M23 89v7.999c0 1.105-.896 2.001-2 2.001h-12c-1.104 0-2-.896-2-2.001v-7.999c.019-.004 15.995.021 16 0z"/><path fill="#1D3D51" d="M9.917 99h2v-10h-2v10zm4.166 0h1.833v-10h-1.833v10zm4-10v10h1.833v-10h-1.833z"/><path fill="#EBEEEF" d="M88 0h-76c-5.523 0-10 4.478-10 10v22s21.903 7.903 33.854 19.855c12.048 12.047 14.146 24.144 14.146 24.144s2.055-12.054 14.081-24.08c11.974-11.973 33.919-19.919 33.919-19.919v-22c0-5.523-4.479-10-10-10z"/><path fill="#fff" d="M58 29c-2.205 0-4-1.794-4-4v-11c0-2.206 1.795-4 4-4h26c2.206 0 4 1.794 4 4v11c0 2.206-1.794 4-4 4h-26z"/><path fill="#EBEEEF" d="M58 29h4l19-19h-23c-2.205 0-4 1.794-4 4v11c0 2.205 1.795 4 4 4z"/><polygon fill="#E5E5E5" points="87,11 55,11 55,16 72,16 72,28 79,28 79,16 87,16"/><path fill="#fff" d="M16 29c-2.206 0-4-1.794-4-4v-11c0-2.206 1.794-4 4-4h26c2.205 0 4 1.794 4 4v11c0 2.206-1.795 4-4 4h-26z"/><polygon fill="#E5E5E5" points="45,11 13,11 13,16 21,16 21,28 28,28 28,16 45,16"/><path fill="#D4D7DA" d="M2 83h96c1.104 0 2 .896 2 1.999v2c0 1.105-.896 2.001-2 2.001h-96c-1.104 0-2-.896-2-2.001v-2c0-1.103.896-1.999 2-1.999z"/><path fill="#fff" d="M79 56c4.971 0 9 4.029 9 9s-4.029 9-9 9-9-4.029-9-9 4.029-9 9-9z"/><path fill="#F39C12" d="M79 59c3.312 0 6 2.688 6 6s-2.688 6-6 6-6-2.688-6-6 2.688-6 6-6z"/><path fill="#fff" d="M21 56c4.971 0 9 4.029 9 9s-4.029 9-9 9-9-4.029-9-9 4.029-9 9-9z"/><path fill="#F39C12" d="M21 59c3.313 0 6 2.688 6 6s-2.687 6-6 6-6-2.688-6-6 2.687-6 6-6z"/><path fill="#C8CBCB" d="M52.986 37.986c-2.162-2.162-5.986-.986-5.986-.986l-13.058 13.057c.658.59 1.301 1.188 1.912 1.799 3.479 3.479 6.125 6.961 8.134 10.155l14.012-14.011s.713-3.287-.98-4.981c-1.243-1.242-2.702-3.701-4.034-5.033z"/><path fill="#fff" d="M50 36c-4.971 0-9 4.029-9 9s4.029 8.999 9 8.999 9-4.028 9-8.999-4.029-9-9-9zm0 3c1.551 0 2.961.594 4.025 1.561l-4.025 4.025-4.025-4.026c1.064-.967 2.474-1.56 4.025-1.56zm0 12c-3.313 0-6-2.687-6-6 0-1.037.263-2.011.725-2.861l5.275 5.275 5.275-5.275c.461.85.725 1.824.725 2.861 0 3.313-2.688 6-6 6z"/><path fill="#D3D6D7" d="M72 19l8-8h-24.617c-.137.119-.264.246-.383.382v4.618h17v3z"/><path fill="#BDC3C7" d="M84 11c1.654 0 3 1.346 3 3v11c0 1.654-1.346 3-3 3h-26c-1.654 0-3-1.346-3-3v-11c0-1.654 1.346-3 3-3h26m0-2h-26c-2.762 0-5 2.239-5 5v11c0 2.762 2.238 5 5 5h26c2.762 0 5-2.238 5-5v-11c0-2.762-2.238-5-5-5z"/><path fill="#EBEEEF" d="M16 29h4l19-19h-23c-2.206 0-4 1.794-4 4v11c0 2.205 1.794 4 4 4z"/><path fill="#D3D6D7" d="M28 21v-5h5l5-5h-24.618c-.136.119-.263.246-.382.382v4.618h8v12l7-7z"/><path fill="#BDC3C7" d="M42 11c1.654 0 3 1.346 3 3v11c0 1.654-1.346 3-3 3h-26c-1.654 0-3-1.346-3-3v-11c0-1.654 1.346-3 3-3h26m0-2h-26c-2.761 0-5 2.239-5 5v11c0 2.762 2.239 5 5 5h26c2.762 0 5-2.238 5-5v-11c0-2.762-2.238-5-5-5z"/></svg>