<svg xmlns="http://www.w3.org/2000/svg" width="100" height="100"><circle fill="#F2F2F2" cx="50" cy="50" r="50"/><clipPath id="a"><circle cx="50" cy="50" r="50"/></clipPath><g fill-rule="evenodd" clip-rule="evenodd" clip-path="url(#a)"><path fill="#E74C3C" d="M-19 18h90c2.762 0 5 2.239 5 5v54c0 2.762-2.238 5-5 5h-90c-2.761 0-5-2.238-5-5v-54c0-2.761 2.239-5 5-5z"/><path fill="#2C3E50" d="M-24 24h100v13h-100v-13z"/><rect x="-16" y="43" fill="#ECF0F1" width="62" height="14"/><path fill="#ECF0F1" d="M55 43h14c1.657 0 3 1.344 3 3v8c0 1.657-1.343 3-3 3h-14c-1.657 0-3-1.343-3-3v-8c0-1.656 1.343-3 3-3z"/><path fill="#fff" d="M70.948 43.736l-17.896 12.528c.525.453 1.2.736 1.948.736h14c1.657 0 3-1.343 3-3v-8c0-.909-.413-1.714-1.052-2.264z"/><path fill="#C0392B" d="M31.5 72h38c1.381 0 2.5 1.119 2.5 2.5s-1.119 2.5-2.5 2.5h-38c-1.381 0-2.5-1.119-2.5-2.5s1.119-2.5 2.5-2.5z"/></g></svg>