<svg xmlns="http://www.w3.org/2000/svg" width="100" height="52"><path fill="#E45136" d="M71.585 28.924c-15.455-.959-27.796-13.414-28.547-28.924h-40.038v44h68.585v-15.076z"/><path fill="#D4D8DB" d="M2 44h96c1.104 0 2 .896 2 2v4c0 1.105-.896 2-2 2h-96c-1.104 0-2-.895-2-2v-4c0-1.105.896-2 2-2z"/><path fill="#BDC3C7" d="M4 52h4v-6h-4v6zm8 0h4v-6h-4v6zm8 0h4v-6h-4v6zm8 0h4v-6h-4v6zm8 0h4v-6h-4v6zm8 0h4v-6h-4v6zm8 0h4v-6h-4v6zm8 0h4v-6h-4v6zm8 0h4v-6h-4v6zm8 0h4v-6h-4v6zm8 0h4v-6h-4v6zm8-6v6h4v-6h-4z"/><path fill="#EBEDEE" d="M21 10c5.523 0 10 4.479 10 10 0 5.523-4.477 10-10 10s-10-4.477-10-10 4.477-10 10-10z"/><path fill="#F39C12" d="M21 14l1.978 3.457 4.022.745-2.8 2.881.508 3.917-3.708-1.676-3.708 1.676.508-3.917-2.799-2.881 4.021-.745 1.978-3.457"/><path fill="#EBEDEE" d="M44.233 11.096l1.037-1.037c-.564-1.375-1.029-2.801-1.389-4.269l-2.477 2.478c-.781.781-.781 2.048 0 2.828.781.783 2.047.783 2.829 0zm3.171 14c.781.78 2.047.78 2.829 0l3.433-3.434c-1.014-.867-1.967-1.805-2.859-2.798l-3.402 3.401c-.782.784-.782 2.05-.001 2.831zm15.258 1.914l-1.258 1.258c-.781.781-.781 2.049 0 2.83.779.781 2.047.781 2.828 0l2.793-2.795c-1.498-.324-2.955-.758-4.363-1.293zm-19.258-7.914c.781.78 2.047.78 2.829 0l2.627-2.627c-.805-1.103-1.536-2.262-2.189-3.469l-3.267 3.268c-.781.781-.781 2.047 0 2.828zm10 10c.779.78 2.047.78 2.828 0l3.42-3.42c-1.229-.629-2.41-1.338-3.535-2.121l-2.713 2.713c-.781.781-.781 2.046 0 2.828z"/><path fill="#2C3E51" d="M43.038 0h-40.038v4h40.504c-.238-1.307-.4-2.641-.466-4z"/><path fill="#EBEDEE" d="M96.787 38.704c-.924-4.962-4.848-8.86-9.821-9.753h-15.381v15.049h25.204v-5.296h-.002z"/><path fill="#2C3E51" d="M98 44h-96c-1.104 0-2 .896-2 2h100c0-1.105-.896-2-2-2z"/></svg>