<svg xmlns="http://www.w3.org/2000/svg" width="100" height="89.014" viewBox="0 -0.283 100 89.014" enable-background="new 0 -0.283 100 89.014"><path fill="#EBEDEE" d="M86.5 33.731c-2.357 0-4.57.607-6.5 1.669v-3.669h-80v20c0 14.282 8.56 26.56 20.824 32h-20.824s1.113 5 4.5 5h71c3.529 0 4.5-5 4.5-5h-20.824c9.59-4.255 16.893-12.696 19.633-23.002l7.691.002c7.455 0 13.5-6.044 13.5-13.5s-6.045-13.5-13.5-13.5zm0 22l-6.75-.003c.148-1.312.25-2.644.25-3.997v-9.973c1.561-1.851 3.891-3.027 6.5-3.027 4.693 0 8.5 3.808 8.5 8.5 0 4.693-3.805 8.5-8.5 8.5z"/><path fill="#DFE1E2" d="M0 31.731v20c0 14.282 8.56 26.56 20.824 32h-20.824s1.113 5 4.5 5h35.5v-57h-40z"/><path fill="#D3D5D6" d="M64.57 80.731h-49.117c1.694 1.146 3.482 2.162 5.371 3h38.352c1.894-.84 3.695-1.851 5.394-3z"/><path fill="#C8CACB" d="M40 80.731h-24.547c1.694 1.146 3.482 2.162 5.371 3h19.176v-3z"/><path fill="#C8CACB" d="M12 47.731l-11.415 10.274c1.165 6.426 4.064 12.244 8.225 16.933l17.19-15.207-10-11-4-1z"/><path fill="#B3B9BD" d="M18 31.731h2v12h-2v-12z"/><polygon fill="#34495E" points="22,43.731 16,43.731 12,47.731 12,59.731 26,59.731 26,47.731"/><path fill="#34495E" d="M32.347 2.869c.7-.738.682-1.915-.042-2.63-.726-.715-1.88-.69-2.58.044-3.444 3.634-3.628 8.317-.514 13.196 1.771 2.771 1.47 5.789-.801 8.069-.718.722-.726 1.897-.018 2.63.354.369.825.554 1.297.554.464 0 .925-.178 1.282-.534 3.491-3.508 4.001-8.513 1.295-12.747-3.239-5.079-.74-7.718.081-8.582zm10 0c.7-.738.683-1.915-.042-2.63-.727-.715-1.88-.69-2.58.044-3.444 3.634-3.628 8.317-.514 13.196 1.771 2.771 1.47 5.789-.801 8.069-.718.722-.726 1.897-.018 2.63.354.369.825.554 1.297.554.464 0 .924-.178 1.282-.534 3.491-3.508 4.001-8.513 1.295-12.747-3.239-5.079-.741-7.718.081-8.582zm9.921 8.581c-3.24-5.079-.74-7.718.08-8.582.699-.738.682-1.915-.043-2.631-.727-.714-1.88-.689-2.58.045-3.443 3.634-3.628 8.317-.514 13.196 1.771 2.771 1.471 5.789-.801 8.069-.719.722-.727 1.897-.019 2.63.354.369.825.554 1.298.554.463 0 .924-.178 1.282-.535 3.492-3.506 4.002-8.51 1.297-12.746z"/><polygon fill="#F5D657" points="20.938,46.566 17.062,46.566 14.481,49.149 14.481,56.896 23.52,56.896 23.52,49.149"/></svg>