<svg xmlns="http://www.w3.org/2000/svg" width="99.987" height="100"><path fill="#EAB39C" d="M49.978 0c-27.62 0-49.978 22.39-49.978 50.008 0 27.619 22.358 49.992 49.978 49.992s50.009-22.373 50.009-49.993c-.001-27.617-22.39-50.007-50.009-50.007zm.023 68.006c-9.94 0-18-8.059-18-18s8.06-18 18-18c9.941 0 18 8.059 18 18s-8.059 18-18 18z"/><path fill="#955BA5" d="M93.061 37.116c-3.145-2.781-5.727-8.514-5.76-12.726-.031-4.212-3.447-8.183-7.573-8.812-4.14-.631-9.393-4.035-11.679-7.568-2.294-3.533-7.281-5.013-11.104-3.283-3.817 1.722-10.065 1.722-13.883 0-3.817-1.73-8.814-.25-11.101 3.283-2.286 3.533-7.543 6.938-11.682 7.568-4.134.63-7.543 4.6-7.575 8.812s-2.626 9.945-5.767 12.726c-3.141 2.789-3.882 7.989-1.648 11.546 2.241 3.565 3.131 9.799 1.981 13.858-1.151 4.05 1.014 8.82 4.808 10.607 3.79 1.779 7.884 6.541 9.091 10.576 1.207 4.034 5.59 6.873 9.732 6.307s10.138 1.205 13.322 3.945c3.18 2.732 8.385 2.732 11.564 0 3.18-2.742 9.175-4.512 13.321-3.945 4.146.566 8.524-2.271 9.737-6.307 1.202-4.035 5.297-8.797 9.083-10.576 3.802-1.787 5.967-6.558 4.812-10.607-1.155-4.059-.257-10.293 1.973-13.858 2.23-3.558 1.492-8.757-1.652-11.546zm-43.059 28.754c-8.691 0-15.737-7.104-15.737-15.866s7.046-15.865 15.737-15.865c8.692 0 15.739 7.103 15.739 15.865s-7.046 15.866-15.739 15.866z"/><path fill="#F29C1F" d="M34.791 32.163l-4.737-3.681c-.654-.508-1.597-.39-2.104.264-.508.654-.39 1.596.264 2.105l4.738 3.681c.654.508 1.597.39 2.105-.264.506-.654.388-1.597-.266-2.105zm46.605 27.898c-.634-.533-1.581-.45-2.113.184l-3.859 4.596c-.532.634-.449 1.58.185 2.113.635.532 1.581.45 2.114-.185l3.857-4.595c.532-.634.45-1.58-.184-2.113zm-1.517-30.513c.192-.806-.306-1.615-1.111-1.806l-5.837-1.388c-.807-.191-1.615.307-1.807 1.112-.19.806.308 1.615 1.112 1.806l5.837 1.388c.806.192 1.615-.306 1.806-1.112zm-46.564 46.134l-5.962.67c-.823.092-1.416.835-1.323 1.658.092.822.834 1.416 1.658 1.322l5.962-.67c.823-.093 1.416-.834 1.323-1.658-.092-.822-.834-1.416-1.658-1.322z"/><path fill="#FFC60A" d="M17.001 53.006c-1.104 0-2 .896-2 2s.896 2 2 2 2-.895 2-2c0-1.104-.895-2-2-2zm69-2.999c-1.104 0-2 .896-2 2s.896 2 2 2 2-.896 2-2-.895-2-2-2z"/><path fill="#56C1A6" d="M79.811 43.458c-.562-.609-1.511-.648-2.12-.087l-4.413 4.065c-.609.562-.648 1.511-.087 2.12.562.609 1.51.648 2.12.087l4.413-4.065c.609-.562.649-1.511.087-2.12zm-61.692-8.435c-.825.07-1.438.796-1.367 1.622l.511 5.979c.069.825.797 1.437 1.621 1.367.826-.071 1.438-.797 1.367-1.622l-.51-5.979c-.07-.825-.796-1.437-1.622-1.367zm21.882 45.983c-1.104 0-2 .896-2 2s.896 2 2 2 2-.896 2-2c0-1.103-.895-2-2-2zm4-58.999c-1.104 0-2 .896-2 2s.896 2 2 2 2-.896 2-2-.895-2-2-2z"/><path fill="#FBF063" d="M25.282 61.245l-3.859 4.596c-.532.634-.449 1.58.185 2.113.635.532 1.581.449 2.114-.185l3.857-4.595c.533-.635.45-1.582-.184-2.113-.635-.532-1.58-.45-2.113.184zm27.751-41.018c.685-.466.862-1.399.396-2.083l-3.376-4.96c-.467-.685-1.399-.862-2.085-.396-.685.466-.861 1.399-.396 2.084l3.375 4.96c.469.684 1.402.861 2.086.395zm-1.032 60.779c-1.104 0-2 .896-2 2 0 1.105.896 2 2 2s2-.896 2-2-.895-2-2-2zm-18-15c-1.104 0-2 .896-2 2s.896 2 2 2 2-.896 2-2c0-1.103-.895-2-2-2zm-1-45.999c0-1.104-.896-2-2-2s-2 .896-2 2 .896 2 2 2 2-.895 2-2zm40 15c-1.104 0-2 .896-2 2s.896 2 2 2 2-.896 2-2-.895-2-2-2z"/><path fill="#F57E20" d="M73.001 76.006c-1.104 0-2 .896-2 2s.896 2 2 2 2-.896 2-2c0-1.103-.895-2-2-2zm-13-51.999c-1.104 0-2 .895-2 2s.896 2 2 2 2-.896 2-2c0-1.105-.895-2-2-2z"/><path fill="#6AC9F2" d="M62.458 74.104c-.166-.822-.967-1.332-1.79-1.141-.822.193-1.354 1.015-1.188 1.836l1.202 5.951c.166.822.967 1.334 1.79 1.142.822-.192 1.354-1.015 1.188-1.835l-1.202-5.953zm7.543-12.098c-1.104 0-2 .896-2 2s.896 2 2 2 2-.896 2-2-.895-2-2-2zm-44-15.999c-1.104 0-2 .896-2 2s.896 2 2 2 2-.895 2-2-.895-2-2-2zm20 26.999c-1.104 0-2 .896-2 2s.896 2 2 2 2-.895 2-2c0-1.104-.895-2-2-2zm19-57.999c-1.104 0-2 .896-2 2s.896 2 2 2 2-.896 2-2-.895-2-2-2zm21 23c-1.104 0-2 .896-2 2 0 1.105.896 2 2 2s2-.896 2-2c0-1.105-.895-2-2-2z"/><path fill="#D3896D" d="M51.978 98c-27.62 0-49.978-22.373-49.978-49.992 0-13.309 5.202-25.395 13.673-34.355-9.647 9.118-15.673 22.028-15.673 36.355 0 27.619 22.358 49.992 49.978 49.992 14.322 0 27.229-6.026 36.347-15.672-8.96 8.471-21.042 13.672-34.347 13.672z"/><path fill="#854D9B" d="M66.741 49.004c0-8.762-7.046-15.865-15.739-15.865-4.578 0-8.687 1.983-11.562 5.128 2.794-2.557 6.492-4.128 10.562-4.128 8.692 0 15.739 7.103 15.739 15.865 0 4.147-1.591 7.911-4.175 10.737 3.171-2.903 5.175-7.078 5.175-11.737zm-58.801-12.888c3.14-2.781 5.733-8.514 5.767-12.726.017-2.104.874-4.147 2.244-5.744-1.938 1.686-3.225 4.167-3.244 6.744-.028 3.801-2.146 8.834-4.867 11.825l.1-.099zm25.023-29.107c.188-.29.399-.561.622-.823-.624.525-1.175 1.133-1.622 1.823-.374.579-.834 1.152-1.351 1.712.939-.864 1.75-1.783 2.351-2.712zm55.965 65.118c-1.67.785-3.397 2.149-4.912 3.775 1.253-1.179 2.6-2.158 3.912-2.775 1.085-.51 2.029-1.269 2.81-2.178-.551.468-1.154.87-1.81 1.178zm-18.82 16.883c-4.146-.566-10.143 1.205-13.321 3.945-3.18 2.732-8.385 2.732-11.564 0-3.185-2.742-9.18-4.512-13.322-3.945s-8.525-2.271-9.732-6.307-5.301-8.797-9.091-10.576c-3.794-1.787-5.96-6.557-4.808-10.607 1.15-4.059.26-10.293-1.978-13.858-2.059-3.278-1.584-7.948.96-10.843l-.312.297c-3.141 2.789-3.882 7.989-1.648 11.546 2.238 3.565 3.128 9.799 1.978 13.858-1.151 4.05 1.014 8.82 4.808 10.607 3.79 1.779 7.884 6.541 9.091 10.576 1.207 4.034 5.59 6.873 9.732 6.307s10.138 1.205 13.322 3.945c3.18 2.732 8.385 2.732 11.564 0 3.18-2.742 9.175-4.512 13.321-3.945 2.971.404 6.054-.941 8.013-3.219-1.924 1.656-4.509 2.561-7.013 2.219z"/></svg>