<svg xmlns="http://www.w3.org/2000/svg" width="100" height="100"><circle opacity=".6" fill="#5FCCFF" cx="50" cy="50" r="50"/><path fill-rule="evenodd" clip-rule="evenodd" fill="#D35400" d="M74 62h-48c-2.761 0-5-2.238-5-5v-18c0-3.866 3.134-6 7-6h44c3.866 0 7 2.134 7 6v18c0 2.762-2.238 5-5 5z"/><path fill-rule="evenodd" clip-rule="evenodd" fill="#DF9274" d="M50 17c14.359 0 26 11.641 26 26v21c0 14.359-11.641 26-26 26s-26-11.641-26-26v-21c0-14.359 11.641-26 26-26z"/><path fill="#3498DB" d="M40 55.5c-2.481 0-4.5-2.019-4.5-4.5s2.019-4.5 4.5-4.5 4.5 2.019 4.5 4.5-2.019 4.5-4.5 4.5z"/><path fill="#fff" d="M40 48c1.654 0 3 1.346 3 3s-1.346 3-3 3-3-1.346-3-3 1.346-3 3-3m0-3c-3.313 0-6 2.687-6 6s2.687 6 6 6 6-2.687 6-6-2.687-6-6-6z"/><path fill="#3498DB" d="M60 55.5c-2.481 0-4.5-2.019-4.5-4.5s2.019-4.5 4.5-4.5 4.5 2.019 4.5 4.5-2.019 4.5-4.5 4.5z"/><path fill="#fff" d="M60 48c1.654 0 3 1.346 3 3s-1.346 3-3 3-3-1.346-3-3 1.346-3 3-3m0-3c-3.313 0-6 2.687-6 6s2.687 6 6 6 6-2.687 6-6-2.687-6-6-6z"/><path fill-rule="evenodd" clip-rule="evenodd" fill="#fff" stroke="#C27A5E" stroke-width="2" stroke-miterlimit="10" d="M61 70c0 5.523-4.925 10-11 10s-11-4.477-11-10h22z"/><path fill-rule="evenodd" clip-rule="evenodd" fill="#D35400" d="M50 9c16.016 0 29 13.984 29 30-7.438 0-16-13-16-13s-23.384 13-42 13c0-16.016 12.984-30 29-30z"/></svg>