<svg xmlns="http://www.w3.org/2000/svg" width="100" height="100"><circle fill="#6BC9F2" cx="50" cy="50" r="50"/><clipPath id="a"><circle cx="50" cy="50" r="50"/></clipPath><path fill="#fff" d="M29 99c0 1.381-1.119 2.5-2.5 2.5s-2.5-1.119-2.5-2.5v-81.5c0-1.381 1.119-2.5 2.5-2.5s2.5 1.119 2.5 2.5v81.5z" fill-rule="evenodd" clip-rule="evenodd" clip-path="url(#a)"/><polygon fill="#F29C1F" points="100,73 60,73 60,25 100,25 93,49"/><path fill-rule="evenodd" clip-rule="evenodd" fill="#E57E25" d="M60 73v-46l9-8v46l-9 8z"/><path opacity=".6" fill="#fff" d="M77.017 43.501l-10.791 3.625-.293 10.874-6.962-8.633-10.971 3.096 6.488-8.962-6.488-8.962 10.972 3.096 6.961-8.635.293 10.875 10.791 3.626z"/><rect x="29" y="17" fill="#F0C419" width="40" height="48"/><polygon fill="#fff" points="69,30.157 62.972,37.635 52,34.539 58.488,43.501 52,52.463 62.972,49.366 69,56.843"/></svg>