<svg xmlns="http://www.w3.org/2000/svg" xmlns:xlink="http://www.w3.org/1999/xlink" width="100" height="100"><path fill="#EDF0F1" d="M50 0c27.613 0 50 22.386 50 50s-22.387 50-50 50c-27.614 0-50-22.386-50-50s22.386-50 50-50z"/><defs><circle id="a" cx="50" cy="50" r="50"/></defs><clipPath id="b"><use xlink:href="#a" overflow="visible"/></clipPath><g clip-path="url(#b)"><path fill="#25AE5F" d="M72.964 65.034s-6.233-2.373-8.61 0l-3.588 3.58c-2.1 2.096-2.339 5.338-.729 7.702l-8.037 7.461v-28.777h-4v66h4v-34.492l9.432-8.758c2.385 1.789 5.774 1.623 7.944-.543l3.588-3.58c2.378-2.373 0-8.593 0-8.593z"/><path fill="#C03A2B" d="M30 33h20l-10-12-10 12zm30-12l-10 12h20l-10-12z"/><path fill="#1F8B4D" d="M48 57h4v4h-4v-4z"/><path fill="#1F8B4D" d="M64.354 65.034l-3.588 3.58c-2.1 2.096-2.339 5.338-.729 7.702l-.018.016.844.803 12.101-12.101s-6.234-2.373-8.61 0z"/><path fill="#E64B3C" d="M70 21v17c0 11.046-8.954 20-20 20s-20-8.954-20-20v-17l9.958 10 10.018-10 9.965 10 10.059-10z"/><path fill="#EB675A" d="M50 21.023v36.977c11.046 0 20-8.954 20-20v-17l-10.059 10-9.941-9.977z"/></g></svg>