<svg xmlns="http://www.w3.org/2000/svg" width="100" height="100.026"><path fill="#35495E" d="M50 0c27.613 0 50 22.386 50 50 0 27.615-22.387 50-50 50-27.614 0-50-22.385-50-50s22.386-50 50-50z"/><path fill="#F0C419" d="M54 20c-14.359 0-26 11.64-26 26 0 3.887.859 7.568 2.388 10.882l-3.534 3.533c-.913.913-.86 5.54-.867 5.608-.04.041-4.297-.443-5.235.494l-1.879 1.961c-1.196 1.197-.924 5.596-.945 5.521l-.005.006c.014.003-4.301-.357-5.217.557l-2.111 2.112c-.936.937-.696 5.353-.682 5.343.005-.006-4.482-.14-4.953.291-2.965 2.713-4.96 4.962-4.96 4.962l.018 12.756c0 .008 12.712-.023 12.712-.023l30.388-30.391c3.311 1.529 6.995 2.388 10.882 2.388 14.359 0 26-11.643 26-26 0-14.359-11.641-26-26-26zm6.741 13.481c3.19 0 5.778 2.587 5.778 5.778 0 2.766-1.945 5.075-4.541 5.642-1.842.302-3.795-.244-5.215-1.665-1.418-1.419-1.967-3.373-1.664-5.213.567-2.597 2.876-4.542 5.642-4.542z"/><path fill="#F29C1F" d="M66.652 33.314c-3.131-3.13-8.207-3.13-11.338 0-3.129 3.131-3.129 8.207 0 11.337 3.133 3.132 8.207 3.132 11.338 0 3.131-3.13 3.131-8.206 0-11.337zm-2.152 9.185c-1.95 1.95-5.111 1.95-7.062 0s-1.951-5.113 0-7.064c1.951-1.951 5.112-1.951 7.062 0 1.952 1.95 1.952 5.113 0 7.064z"/><path fill="#F29C1F" d="M37.864 66.378c-.786-.623-1.54-1.285-2.249-1.994l-35.597 35.596v.043c0 .002 1.887 0 4.206-.006l33.64-33.639z"/><path fill="#EBECED" d="M75.967 0c-11.912 0-21.793 8.682-23.673 20.061.565-.036 1.132-.061 1.706-.061 1.089 0 2.159.075 3.212.206 1.763-8.75 9.488-15.34 18.755-15.34 10.567 0 19.135 8.565 19.135 19.134 0 10.567-8.564 19.134-19.135 19.134-6.839 0-12.822-3.6-16.207-8.996-.85.212-1.658.632-2.324 1.296-.621.621-1.021 1.37-1.246 2.158 4.328 6.285 11.57 10.408 19.777 10.408 13.254 0 24-10.745 24-24 0-13.254-10.744-24-24-24z"/><path fill="#C8C9CB" d="M61.104 36.017c-.481-.599-.934-1.225-1.344-1.879-.212.053-.421.119-.627.198l-.006.002c-.189.074-.376.162-.559.259l-.287.177-.262.168c-.188.14-.371.29-.543.458l-.074.073c-.161.166-.307.342-.44.523l-.183.276-.141.229c-.191.348-.344.713-.449 1.088.451.655.938 1.28 1.453 1.886l3.462-3.458z"/></svg>