<svg xmlns="http://www.w3.org/2000/svg" width="88" height="99.998" viewBox="0 -0.001 88 99.998" enable-background="new 0 -0.001 88 99.998"><path fill="#F1C40E" d="M4 39.996h80c2.209 0 4 1.791 4 4v52c0 2.209-1.791 4-4 4h-80c-2.209 0-4-1.791-4-4v-52c0-2.209 1.791-4 4-4z"/><path fill="#FFF55C" d="M4 35.996h80c2.209 0 4 1.791 4 4v5c0 2.209-1.791 4-4 4h-80c-2.209 0-4-1.791-4-4v-5c0-2.209 1.791-4 4-4z"/><path fill="#364B5E" d="M73 38.996c-4.418 0-8 1.567-8 3.5 0 1.934 3.582 3.5 8 3.5s8-1.567 8-3.5-3.582-3.5-8-3.5zm-58 0c-4.418 0-8 1.567-8 3.5 0 1.934 3.582 3.5 8 3.5s8-1.567 8-3.5-3.582-3.5-8-3.5z"/><path fill="#EBEDEE" d="M44-.001c-19.299 0-35 14.709-35 34.019v7.978c0 .553 2.687 2 6 2s6-1.447 6-2l-.021-.071v-7.907c0-12.701 10.327-22.034 23.021-22.034 12.693 0 23.021 9.333 23.021 22.034v7.907l-.021.071c0 .553 2.688 2 6 2s6-1.447 6-2v-7.978c0-19.31-15.701-34.019-35-34.019z"/><path fill="#BDC3C7" d="M44 5.998c-15.99 0-29 13.091-29 29.183v8.815c3.313 0 6-1.447 6-2l-.021-.071v-7.907c0-12.701 10.327-22.034 23.021-22.034 12.693 0 23.021 9.333 23.021 22.034v7.907l-.021.071c0 .553 2.688 2 6 2v-8.815c0-16.091-13.01-29.183-29-29.183z"/><path fill="#D8B00C" d="M0 95.997c0 2.209 1.791 4 4 4h80c2.209 0 4-1.791 4-4v-3h-88v3z"/><path fill="#E5BA0D" d="M4 48.996c-1.861 0-3.413-1.278-3.858-3h-.142v50c0 2.209 1.791 4 4 4h40v-51h-40z"/><path fill="#CDA70C" d="M0 92.997v3c0 2.209 1.791 4 4 4h40v-7h-44z"/></svg>