<svg xmlns="http://www.w3.org/2000/svg" width="100" height="100"><path fill-rule="evenodd" clip-rule="evenodd" fill="#2C3E50" d="M10 62v-57c0-2.762 2.239-5 5-5h70c2.762 0 5 2.238 5 5v57h-80z"/><path fill-rule="evenodd" clip-rule="evenodd" fill="#35495E" d="M14 4h72v54h-72v-54z"/><path fill-rule="evenodd" clip-rule="evenodd" fill="#BDC3C7" d="M0 62h100v3c0 2.209-2.791 3-5 3h-90c-2.209 0-5-.791-5-3v-3z"/><path fill-rule="evenodd" clip-rule="evenodd" fill="#95A5A5" d="M59.95 62c-.232 1.141-1.24 2-2.45 2h-15c-1.209 0-2.218-.859-2.45-2h19.9z"/></svg>