<svg xmlns="http://www.w3.org/2000/svg" width="100" height="100"><circle fill="#2C3E50" cx="50" cy="50" r="50"/><path clip-rule="evenodd" d="M16.488 73.027l54.418-54.417c1.172-1.172 4.021-.222 6.364 2.121s3.293 5.193 2.121 6.364l-54.418 54.418-8.485-8.486z" fill="none"/><path fill-rule="evenodd" clip-rule="evenodd" fill="#ECF0F1" d="M64.906 29.609l-52.888 52.888c2.611 3.049 5.581 5.777 8.847 8.124l52.527-52.527c1.172-1.171.222-4.021-2.121-6.364-2.344-2.342-5.194-3.292-6.365-2.121z"/><path fill="#F0C419" d="M88.5 23.002c.767-6.901 4.6-10.735 11.5-11.501-6.9-.767-10.734-4.6-11.5-11.5-.767 6.9-4.6 10.734-11.5 11.5 6.899.766 10.733 4.6 11.5 11.501zm-57-23.002c-.5 4.5-3 7-7.501 7.501 4.5.5 7.001 3 7.501 7.5.5-4.5 3-7 7.501-7.5-4.501-.501-7.001-3.001-7.501-7.501zm60 46.001c-.5 4.5-3 7-7.501 7.501 4.5.5 7.001 3 7.501 7.5.5-4.5 3-7 7.501-7.5-4.501-.501-7.001-3.002-7.501-7.501z"/><path fill="#fff" d="M71.5 53c-.367 3.299-2.2 5.133-5.5 5.5 3.3.366 5.134 2.2 5.5 5.499.367-3.299 2.2-5.133 5.5-5.499-3.3-.367-5.134-2.202-5.5-5.5zm-25-31.001c-.367 3.3-2.2 5.134-5.5 5.501 3.3.367 5.134 2.199 5.5 5.5.367-3.301 2.2-5.133 5.5-5.5-3.3-.367-5.134-2.201-5.5-5.501zm12-18.999c-.367 3.298-2.2 5.133-5.5 5.5 3.3.366 5.134 2.2 5.5 5.499.366-3.299 2.2-5.133 5.5-5.499-3.3-.367-5.134-2.202-5.5-5.5z"/></svg>