<svg xmlns="http://www.w3.org/2000/svg" width="100" height="100"><clipPath id="a"><circle cx="50" cy="50" r="50"/></clipPath><g fill-rule="evenodd" clip-rule="evenodd" clip-path="url(#a)"><circle fill="#316EAC" cx="50" cy="50" r="50"/><path fill-rule="evenodd" clip-rule="evenodd" fill="#fff" d="M14.084 107.072c-1.095 0-1.987-.881-2-1.977l-.061-5.095h-5.023c-1.104 0-2-.896-2-2v-20c0-.323.078-.642.229-.928l11-21c.16-.306.396-.564.685-.751l16.375-10.596 6.791-23.285c.218-.747.848-1.299 1.617-1.417l.303-.023c.662 0 1.289.329 1.664.891l5.62 8.429 5.349 1.783c.452.151.837.459 1.082.869l13.971 23.285 8.285-4.971c.321-.194.676-.286 1.028-.286.61 0 1.211.279 1.601.8l12 16c.083.11.154.229.213.354l7 15c.397.852.148 1.865-.599 2.436l-28.916 22.072c-.349.266-.775.41-1.214.41h-55z"/><path fill-rule="evenodd" clip-rule="evenodd" fill="#fff" d="M69.084 105.073h-55l-.084-7.073h-7v-20l11-21 17-11 7-24 6 9 6 2 15 25 10-6 12 16 7 15-28.916 22.073z"/><path fill-rule="evenodd" clip-rule="evenodd" fill="#6BC8F2" d="M8 108c-1.104 0-2-.896-2-2v-30c0-.311.072-.617.211-.895l10-20c.16-.319.402-.591.703-.784l16.328-10.565 5.813-24.222c.216-.901 1.022-1.534 1.945-1.534h.039c.939.018 1.739.687 1.923 1.607l3 15c.038.196.048.395.028.593l-1 10c-.017.165-.054.328-.111.484l-4 11-4.81 13.468 2.891 14.456c.068.342.046.695-.063 1.025l-3.897 11.691v8.676c0 1.104-.896 2-2 2h-25zm62.998-25c-.337 0-.678-.085-.99-.264l-7-4c-.809-.462-1.19-1.42-.924-2.311l6-20c.15-.5.489-.921.944-1.174l9-5c.303-.167.638-.251.972-.251.351 0 .701.092 1.015.276.61.36.985 1.015.985 1.724v17c0 .395-.117.781-.336 1.109l-8 12c-.384.576-1.018.891-1.666.891z"/><path fill-rule="evenodd" clip-rule="evenodd" fill="#6BC8F2" d="M70 57l-6 20 7 4 8-12v-17l-9 5zm-35-12l-17 11-10 20v30h25v-9l4-12-3-15 5-14 4-11 1-10-3-15-6 25z"/><circle opacity=".2" fill-rule="evenodd" clip-rule="evenodd" fill="#fff" cx="76.5" cy="29.5" r="1.5"/><circle opacity=".1" fill-rule="evenodd" clip-rule="evenodd" fill="#fff" cx="14.5" cy="40.5" r="1.5"/><circle opacity=".43" fill-rule="evenodd" clip-rule="evenodd" fill="#fff" cx="56.5" cy="15.5" r="1.5"/></g></svg>