<svg xmlns="http://www.w3.org/2000/svg" width="100" height="69"><path fill="#23475F" d="M91 62v-57c0-2.761-2.238-5-5-5h-72c-2.762 0-5 2.239-5 5v57h-9v3c0 2.21 1.791 4 4 4h92c2.209 0 4-1.79 4-4v-3h-9z"/><path fill="#3498DB" d="M14 5h72v51h-72v-51z"/><path fill="#9ACCED" d="M58 19h-15v4h15v-4zm-25 8v2h35v-2h-35zm0 6h35v-2h-35v2zm0 4h35v-2h-35v2zm5 5.001h25v-2.001h-25v2.001z"/><path fill="#1C394C" d="M9 60h82v2h-82v-2z"/><path fill="#BCC4C8" d="M74.5 64c-.828 0-1.5.672-1.5 1.5 0 .829.672 1.5 1.5 1.5s1.5-.671 1.5-1.5c0-.828-.672-1.5-1.5-1.5zm5 0c-.828 0-1.5.672-1.5 1.5 0 .829.672 1.5 1.5 1.5s1.5-.671 1.5-1.5c0-.828-.672-1.5-1.5-1.5zm5 0c-.828 0-1.5.672-1.5 1.5 0 .829.672 1.5 1.5 1.5s1.5-.671 1.5-1.5c0-.828-.672-1.5-1.5-1.5z"/></svg>