<svg xmlns="http://www.w3.org/2000/svg" width="100" height="100"><circle fill="#F2F2F2" cx="50" cy="50" r="50"/><clipPath id="a"><circle cx="50" cy="50" r="50"/></clipPath><g fill-rule="evenodd" clip-rule="evenodd" clip-path="url(#a)"><path fill="#3B97D3" d="M28.016 74.252v20.66c6.636 3.255 14.095 5.088 21.984 5.088s15.348-1.833 21.984-5.088v-20.66l-21.983-42.239-21.985 42.239z"/><path opacity=".15" d="M40.001 98.998v-16.098c-7.061-1.658-11.912-5.016-11.995-8.9l-.005.005v20.899c3.76 1.846 7.782 3.238 12 4.094z"/><path opacity=".15" fill="#fff" d="M60 98.998v-16.098c7.061-1.658 11.912-5.016 11.995-8.9l.005.005v20.899c-3.76 1.846-7.782 3.238-12 4.094z"/><path fill-rule="evenodd" clip-rule="evenodd" fill="#F0C419" d="M71.982 73.894l-15.487-29.498c-1.942 1.02-4.148 1.604-6.494 1.604-2.352 0-4.564-.586-6.51-1.611l-15.491 29.505h.001c0 5.581 9.85 10.105 22 10.105s22-4.524 22-10.105h-.019z"/><g fill-rule="evenodd" clip-rule="evenodd"><path fill="#D4896C" d="M50 76c-12.15 0-22-4.925-22-10.999v-30.001c0-6.075 9.85-11 22-11s22 4.925 22 11v30.001c0 6.074-9.85 10.999-22 10.999z"/><ellipse fill="#DF9173" cx="50" cy="35" rx="22" ry="11"/><path fill="#F0C419" d="M50 86c-12.15 0-22-4.925-22-11v-20c0 6.075 9.85 11 22 11s22-4.925 22-11v20c0 6.075-9.85 11-22 11z"/></g></g></svg>