<svg xmlns="http://www.w3.org/2000/svg" width="100" height="72"><path fill="#E7F7FF" d="M0 0h100v44h-100v-44z"/><path fill="#3498DB" d="M84 69.199l13.938-13.938v-16.316c-1.109-.204-1.938-.995-1.938-1.944h-1c0 1.104-1.119 2-2.5 2s-2.5-.896-2.5-2h-1c0 1.104-1.119 2-2.5 2s-2.5-.896-2.5-2h-1c0 1.104-1.119 2-2.5 2s-2.5-.896-2.5-2h-1c0 1.104-1.119 2-2.5 2s-2.5-.896-2.5-2h-1c0 1.104-1.119 2-2.5 2s-2.5-.896-2.5-2h-1c0 1.104-1.119 2-2.5 2s-2.5-.896-2.5-2h-1c0 1.104-1.119 2-2.5 2s-2.5-.896-2.5-2h-1c0 1.104-1.119 2-2.5 2s-2.5-.896-2.5-2h-1c0 1.104-1.119 2-2.5 2s-2.5-.896-2.5-2h-1c0 1.104-1.119 2-2.5 2s-2.5-.896-2.5-2h-1c0 1.104-1.119 2-2.5 2s-2.5-.896-2.5-2h-1c0 1.104-1.119 2-2.5 2s-2.5-.896-2.5-2h-1c0 1.104-1.119 2-2.5 2s-2.5-.896-2.5-2h-1c0 1.104-1.119 2-2.5 2s-2.5-.896-2.5-2h-1c0 1.104-1.119 2-2.5 2s-2.5-.896-2.5-2h-1c0 1.104-1.119 2-2.5 2s-2.5-.896-2.5-2v32.199l84-.001z"/><path fill="#2F89C5" d="M65 46v2h34v-2h-34zm2 6h32v-2h-32v2zm-2 4h31v-2h-31v2zm6 4h18v-2h-18v2z"/><polygon fill="#2C81BA" points="70.801,69.199 84,69.199 84,56"/><path fill="#F39C12" d="M15.726 57.883c1.529 0 2.768-.99 2.768-2.215h1.107c0 1.225 1.239 2.215 2.768 2.215 1.529 0 2.768-.99 2.768-2.215h1.107c0 1.225 1.239 2.215 2.768 2.215 1.529 0 2.769-.99 2.769-2.215h1.106c0 1.225 1.24 2.215 2.769 2.215 1.529 0 2.769-.99 2.769-2.215h1.105c0 1.225 1.238 2.215 2.768 2.215.342 0 .668-.057.969-.146l9.736-9.734s-35.977-.004-36 0h-4v7.997c.197 1.062 1.336 1.883 2.723 1.883z"/><path fill="#34495E" d="M20 38h3v10h-3v-10z"/><path fill="#F1C40E" d="M20 45h25l-25-25v25z"/><polygon fill="#EBEDEE" points="0,0 0,72 84,72 88,67 5,67 5,5 95,5 95,60 100,56 100,0"/><path fill="#BDC3C7" d="M84 72v-16h16l-16 16z"/><path fill="#C3E4F8" d="M63.807 20.031c.119-.323.193-.667.193-1.031 0-1.656-1.343-3-3-3-.382 0-.744.078-1.08.209-.367-1.83-1.982-3.209-3.92-3.209h-1c-2.209 0-4 1.791-4 4v1c0 .798.24 1.537.643 2.16-.957.352-1.643 1.262-1.643 2.34 0 1.381 1.119 2.5 2.5 2.5h11c1.381 0 2.5-1.119 2.5-2.5 0-1.275-.959-2.316-2.193-2.469z"/><path fill="#fff" d="M71.357 23.16c.403-.623.643-1.362.643-2.16v-1c0-2.209-1.791-4-4-4h-1c-1.938 0-3.553 1.379-3.92 3.209-.336-.131-.697-.209-1.08-.209-1.656 0-3 1.345-3 3 0 .364.075.708.193 1.031-1.234.153-2.193 1.194-2.193 2.469 0 1.381 1.119 2.5 2.5 2.5h11c1.381 0 2.5-1.119 2.5-2.5 0-1.078-.686-1.989-1.643-2.34z"/><polygon fill="#DA8C11" points="53,48 52.896,48 17,48 13,48 13,50 51,50"/><polygon fill="#C8CACB" points="73,67 68,72 84,72 84,67"/><polygon fill="#2875A8" points="84,60 84,58 82,58 80,60"/></svg>