<svg xmlns="http://www.w3.org/2000/svg" xmlns:xlink="http://www.w3.org/1999/xlink" width="100" height="100"><path fill="#ECF0F1" d="M50 0c27.613 0 50 22.386 50 50s-22.387 50-50 50c-27.614 0-50-22.386-50-50s22.386-50 50-50z"/><defs><circle id="a" cx="50" cy="50" r="50"/></defs><clipPath id="b"><use xlink:href="#a" overflow="visible"/></clipPath><g clip-path="url(#b)"><path fill="#2C3E50" d="M44 71h6v44h-6v-44z"/><path fill="#34495E" d="M50 71h8v44h-8v-44z"/><rect x="44" y="75" fill="#2C3E50" width="14" height="7"/><rect x="44" y="75" fill="#253544" width="6" height="7"/></g><path fill="#C0392C" d="M59 11h-7c-2.209 0-4 1.791-4 4v19c0 1.104.896 2 2 2s4-.896 4-2v-11h5c2.209 0 4-1.791 4-4v-4c0-2.209-1.791-4-4-4z"/><path fill="#3498DB" d="M73 29c-.332 0-44.988.028-44.988.028s-.012 7.915-.012 16.972v23h.101c-.066.323-.101.657-.101 1 0 2.762 2.238 5 5 5h52c2.762 0 5-2.238 5-5v-24c0-9.389-7.611-17-17-17z"/><path fill="#2980B9" d="M27 29c-9.389 0-17 7.611-17 17v23l.101.003c-.066.322-.101.655-.101.997 0 2.762 2.238 5 5 5h24c2.762 0 5-2.238 5-5v-24c0-9.389-7.611-17-17-17z"/><path fill="#236D9D" d="M27 34c6.628 0 12 5.692 12 12.714v23.286h-24v-23.286c0-7.022 5.373-12.714 12-12.714z"/><path fill="#F1C40E" d="M24.908 44c.056.157.092.324.092.5 0 .828-.672 1.5-1.5 1.5s-1.5-.672-1.5-1.5c0-.176.036-.343.092-.5h-17.092v26h17.092c-.056-.157-.092-.323-.092-.5 0-.828.672-1.5 1.5-1.5s1.5.672 1.5 1.5c0 .177-.036.343-.092.5h14.092v-26h-14.092zm-1.408 22c-.828 0-1.5-.672-1.5-1.5s.672-1.5 1.5-1.5 1.5.672 1.5 1.5-.672 1.5-1.5 1.5zm0-5c-.828 0-1.5-.671-1.5-1.5 0-.828.672-1.5 1.5-1.5s1.5.672 1.5 1.5c0 .829-.672 1.5-1.5 1.5zm0-5c-.828 0-1.5-.672-1.5-1.5s.672-1.5 1.5-1.5 1.5.672 1.5 1.5-.672 1.5-1.5 1.5zm0-5c-.828 0-1.5-.671-1.5-1.5 0-.828.672-1.5 1.5-1.5s1.5.672 1.5 1.5c0 .829-.672 1.5-1.5 1.5z"/><path fill="#B5930C" d="M9 67h3v-19h-3v19zm6-19v19h3v-19h-3z"/><path fill="#B5930C" d="M29 48h3v19h-3v-19z"/><path fill="#fff" d="M59.549 60.902c-1.96 0-3.549 1.59-3.549 3.55 0 1.959 1.589 3.548 3.549 3.548 1.959 0 3.549-1.589 3.549-3.548 0-1.96-1.59-3.55-3.549-3.55zm-1.216-7.81c-1.284 0-2.326 1.043-2.326 2.33s1.042 2.33 2.326 2.33c4.36 0 7.909 3.553 7.909 7.921 0 1.287 1.042 2.33 2.326 2.33 1.285 0 2.326-1.043 2.326-2.33.001-6.937-5.634-12.581-12.561-12.581zm-.074-7.091c-1.249 0-2.261 1.012-2.261 2.261 0 1.248 1.012 2.259 2.261 2.259 8.392 0 15.22 6.828 15.22 15.222 0 1.248 1.013 2.26 2.262 2.26 1.248 0 2.261-1.012 2.261-2.26-.002-10.888-8.857-19.742-19.743-19.742z"/><path fill="#C19D0B" d="M35 44h4v26h-4v-26z"/><path fill="#3498DB" d="M5 70h39v5h-44l5-5z"/></svg>