<svg xmlns="http://www.w3.org/2000/svg" width="100" height="100"><path fill-rule="evenodd" clip-rule="evenodd" fill="#2C3E50" d="M39.241 64.758c-2.352-2.352-6.166-2.352-8.519 0l-21.958 21.959c-2.352 2.353-2.352 6.166 0 8.519 2.352 2.353 6.166 2.353 8.519 0l21.958-21.958c2.353-2.353 2.353-6.167 0-8.52z"/><path fill-rule="evenodd" clip-rule="evenodd" fill="#BDC2C7" d="M50.11 53.883c-1.177-1.177-3.086-1.177-4.263 0l-10.964 10.965c-1.177 1.177-1.177 3.085 0 4.263 1.177 1.177 3.086 1.177 4.263 0l10.964-10.965c1.178-1.177 1.178-3.086 0-4.263z"/><path fill="#BDC2C7" d="M100 35.895c0 4.913-3.983 8.895-8.895 8.895h-82.21c-4.912.001-8.895-3.982-8.895-8.895 0-4.912 3.983-8.895 8.895-8.895h82.209c4.913 0 8.896 3.983 8.896 8.895z"/><circle fill="#D4D7DA" cx="9" cy="36" r="4"/><path fill="#ECF0F1" d="M68 65c-16.542 0-30-13.458-30-30s13.458-30 30-30 30 13.458 30 30-13.458 30-30 30z"/><path fill="#2C3E50" d="M68 7c15.439 0 28 12.561 28 28s-12.561 28-28 28-28-12.561-28-28 12.561-28 28-28m0-4c-17.673 0-32 14.327-32 32s14.327 32 32 32 32-14.327 32-32-14.327-32-32-32z"/><path clip-rule="evenodd" stroke="#fff" stroke-width="4" stroke-linecap="round" stroke-linejoin="round" stroke-miterlimit="10" stroke-dasharray="0,9,0" d="M68 13c12.15 0 22 9.85 22 22" fill="none"/></svg>