<svg xmlns="http://www.w3.org/2000/svg" width="100" height="100"><path fill-rule="evenodd" clip-rule="evenodd" fill="#ECF0F1" d="M83.005 65.265c-11.065 21.743-33.005 34.735-33.005 34.735s-21.94-12.992-33.005-34.735c-11.429-22.459-11.995-49.481-11.995-49.481l45-15.784 45 15.784s-.566 27.022-11.995 49.481z"/><path fill-rule="evenodd" clip-rule="evenodd" fill="#E64C3C" d="M49.99 87c-6.456-4.8-17.698-14.432-24.241-27.342-6.672-13.166-9.255-28.423-10.243-37.38l34.494-12.149 34.494 12.149c-.987 8.95-3.569 24.21-10.243 37.379-6.51 12.848-17.803 22.527-24.261 27.343z"/><path fill-rule="evenodd" clip-rule="evenodd" fill="#fff" d="M62.789 46.041c2.944-2.984 2.942-7.819 0-10.803-1.504-1.523-3.486-2.268-5.457-2.236-2.757.047-7.304 3.746-7.304 3.746s-4.675-3.751-7.5-3.747c-1.925.004-3.848.75-5.317 2.237-2.942 2.984-2.944 7.819 0 10.803l12.789 12.959 12.789-12.959z"/><path opacity=".08" fill-rule="evenodd" clip-rule="evenodd" d="M50 0l-45 15.784s.566 27.022 11.995 49.481c11.065 21.743 33.005 34.735 33.005 34.735v-100z"/></svg>