<svg xmlns="http://www.w3.org/2000/svg" width="100.208" height="83"><path fill="#3B97D3" d="M86.786 28.939c.145-.945.243-1.904.243-2.888 0-10.47-8.489-18.958-18.957-18.958-3.696 0-7.131 1.075-10.046 2.904-4.561-6.007-11.77-9.889-19.888-9.889-13.777 0-24.945 11.168-24.945 24.945 0 1.314.104 2.604.299 3.864-7.691 2.417-13.27 9.601-13.27 18.089 0 10.471 8.488 18.957 18.953 18.957h61.863c10.475 0 18.963-8.486 18.963-18.957-.001-8.467-5.551-15.633-13.215-18.067z"/><path fill="#66B5E4" d="M21.109 53h57.784v30h-57.784v-30z"/><path fill="#53A4DB" d="M34.035 69h32l-14 14h-30.894l-.032-.968 12.926-13.032z"/><path fill="#6BC9F2" d="M67.993 41.99l10.9 11.01h-57.784l10.887-10.992 35.997-.018z"/><path fill="#EBECED" d="M29.003 26h41.955l.045 7.986v16.014h-42v-24z"/><g fill="#2880BA"><circle cx="65.502" cy="68" r="3"/><circle cx="34.502" cy="68" r="3"/></g><path fill="#BDC2C7" d="M39.003 33v2h22v-2h-22zm0 6h22v-2h-22v2zm0 4h22v-2h-22v2z"/><path fill="#DADADB" d="M29.003 50v-2h42v2h-42z"/><path fill="#EBECED" d="M36.003 66h28c1.104 0 2 .896 2 2s-.896 2-2 2h-28c-1.104 0-2-.896-2-2s.896-2 2-2z"/><path fill="#DADADB" d="M66.002 68h-32c0 1.104.896 2 2 2h28c1.105 0 2-.896 2-2z"/></svg>