<svg xmlns="http://www.w3.org/2000/svg" width="100" height="100"><clipPath id="a"><circle cx="50" cy="50" r="50"/></clipPath><g fill-rule="evenodd" clip-rule="evenodd" clip-path="url(#a)"><path fill="#34495E" d="M100 50c0 6.67-1.306 13.093-3.676 18.999-34.824 0-63.824.001-92.647.001-2.371-5.906-3.677-12.33-3.677-19 0-27.614 22.386-50 50-50 27.613 0 50 22.386 50 50z"/><rect x="-1" y="70" fill="#D7DBDE" width="102" height="31"/><path fill="#fff" d="M100 71v29h-100v-29h100m2-2h-104v33h104v-33z"/><g fill-rule="evenodd" clip-rule="evenodd"><path fill="#DF9274" d="M-22.758-33.75c8.363-8.362 21.921-8.362 30.284 0l66.203 66.203c8.362 8.363 8.362 21.921 0 30.284-4.034 4.033-9.441 6.262-14.729 6.262-5.673 0-11.227-1.934-15.556-6.262l-66.202-66.202c-8.363-8.363-8.363-21.922 0-30.285z"/><path opacity=".3" fill="#fff" d="M61.215 19.844l12.5 12.5c6.195 6.195 7.804 15.227 4.856 22.91l-17.296-17.296c-4.999-4.999-5.016-13.088-.06-18.114z"/><path opacity=".2" d="M46.456 14.131c-.391.391-1.023.391-1.414 0-.391-.39-.391-1.022 0-1.415l4.502-4.5 1.414 1.414-4.502 4.501zm-7 2.001c-.391.391-1.023.391-1.414 0s-.391-1.024 0-1.414l9.002-9.002 1.414 1.414-9.002 9.002z"/></g></g></svg>