<svg xmlns="http://www.w3.org/2000/svg" xmlns:xlink="http://www.w3.org/1999/xlink" width="100" height="100"><path fill="#3498DB" d="M50 0c27.613 0 50 22.386 50 50 0 27.615-22.387 50-50 50-27.614 0-50-22.385-50-50 0-27.614 22.386-50 50-50z"/><defs><circle id="a" cx="50" cy="50" r="50"/></defs><clipPath id="b"><use xlink:href="#a" overflow="visible"/></clipPath><polygon clip-path="url(#b)" fill="#2980B9" points="0,100 31,100 20,49 0,69"/><defs><circle id="c" cx="50" cy="50" r="50"/></defs><clipPath id="d"><use xlink:href="#c" overflow="visible"/></clipPath><polygon clip-path="url(#d)" fill="#EBEDEE" points="74.736,100 80,50 20,50 25.263,100"/><defs><circle id="e" cx="50" cy="50" r="50"/></defs><clipPath id="f"><use xlink:href="#e" overflow="visible"/></clipPath><polygon clip-path="url(#f)" fill="#C3C9CD" points="50,100 50,50 20,50 25.172,100"/><defs><circle id="g" cx="50" cy="50" r="50"/></defs><clipPath id="h"><use xlink:href="#g" overflow="visible"/></clipPath><g clip-path="url(#h)"><path fill="#95A5A6" d="M79.982 50.801l-.26.004c-1.966 2.933-14.519 5.195-29.722 5.195-15.15 0-27.67-2.246-29.704-5.164h-.285c-.055-.002-.011 3.109-.011 3.164 0 3.314 13.432 6 30 6 16.568 0 30-2.686 30-6 0-.066.038-3.238-.018-3.199z"/><path fill="#7F8C8D" d="M50.078 60h-.357c-16.44-.029-29.721-2.705-29.721-6 0-.055-.044-3.166.011-3.164.01 0 15.013 0 30.009-.005.024.009.08 9.185.058 9.169z"/><path fill="#EBEDEE" d="M50 44c16.568 0 30 2.687 30 6 0 3.314-13.432 6-30 6-16.568 0-30-2.686-30-6 0-3.313 13.432-6 30-6z"/><path fill="#F1C40E" d="M50 56c7.678 0 14.678-.577 19.98-1.525l-9.48-9.479-11.005 11.002.505.002z"/><path fill="#fff" d="M50 56c4.227 0 8.247-.175 11.895-.49l-15.895-15.895-15.022 15.024c5.176.849 11.798 1.361 19.022 1.361z"/></g><defs><circle id="i" cx="50" cy="50" r="50"/></defs><clipPath id="j"><use xlink:href="#i" overflow="visible"/></clipPath><path clip-path="url(#j)" fill="#95A5A6" d="M33.628 100l-1.628-35c0-1.104-.896-2-2-2s-2 .896-2 2l1.628 35h4z"/><defs><circle id="k" cx="50" cy="50" r="50"/></defs><clipPath id="l"><use xlink:href="#k" overflow="visible"/></clipPath><path clip-path="url(#l)" fill="#BDC3C7" d="M69.372 100l1.628-35c0-1.104-.896-2-2-2s-2 .896-2 2l-1.628 35h4z"/><defs><circle id="m" cx="50" cy="50" r="50"/></defs><clipPath id="n"><use xlink:href="#m" overflow="visible"/></clipPath><path clip-path="url(#n)" fill="#BDC3C7" d="M59.21 100l.79-34c0-1.104-.896-2-2-2s-2 .896-2 2l-.79 34h4z"/><defs><circle id="o" cx="50" cy="50" r="50"/></defs><clipPath id="p"><use xlink:href="#o" overflow="visible"/></clipPath><path clip-path="url(#p)" fill="#95A5A6" d="M43.791 100l-.791-34c0-1.104-.896-2-2-2s-2 .896-2 2l.791 34h4z"/></svg>