<svg xmlns="http://www.w3.org/2000/svg" width="100" height="100"><path fill-rule="evenodd" clip-rule="evenodd" fill="#E64C3C" d="M20 88.5c-1.93 0-3.5-1.57-3.5-3.5v-43c0-1.93 1.57-3.5 3.5-3.5h60c1.93 0 3.5 1.57 3.5 3.5v43c0 1.93-1.57 3.5-3.5 3.5h-60z"/><path fill="#C03A2B" d="M80 40c1.103 0 2 .897 2 2v43c0 1.103-.897 2-2 2h-60c-1.103 0-2-.897-2-2v-43c0-1.103.897-2 2-2h60m0-3h-60c-2.761 0-5 2.239-5 5v43c0 2.761 2.239 5 5 5h60c2.761 0 5-2.239 5-5v-43c0-2.761-2.239-5-5-5z"/><path fill-rule="evenodd" clip-rule="evenodd" fill="#2C3E50" d="M23 89.999c-2.761 0-5 2.238-5 5s2.238 5.001 5 5.001c2.761 0 5-2.239 5-5.001v-5h-5z"/><circle fill-rule="evenodd" clip-rule="evenodd" fill="#495E74" cx="23" cy="95" r="3"/><path fill-rule="evenodd" clip-rule="evenodd" fill="#2C3E50" d="M77 89.999c2.761 0 5 2.238 5 5s-2.238 5.001-5 5.001c-2.761 0-5-2.239-5-5.001v-5h5z"/><circle fill-rule="evenodd" clip-rule="evenodd" fill="#495E74" cx="77" cy="95" r="3"/><path fill-rule="evenodd" clip-rule="evenodd" fill="#495E74" d="M63 37v-30c0-1.657-1.343-3-3-3h-20c-1.657 0-3 1.343-3 3v30h-4v-32c0-2.761 2.239-5 5-5h24c2.761 0 5 2.239 5 5v32h-4z"/><path fill-rule="evenodd" clip-rule="evenodd" fill="#2C3E50" d="M66.958 6v-1.414c-.213-2.564-2.338-4.586-4.958-4.586h-24c-2.761 0-5 2.239-5 5v4c0 1.105.895 2 2 2s2-.895 2-2v-2c0-1.657 1.343-3 3-3h20c1.657 0 3 1.343 3 3v2c0 1.105.895 2 2 2s2-.895 2-2v-3h-.042z"/><path fill-rule="evenodd" clip-rule="evenodd" fill="#EBECED" d="M63.042 37h8.018l5.94 5.94-18.069 18.069-9.949-9.949 14.06-14.06z"/><rect x="33" y="37" fill-rule="evenodd" clip-rule="evenodd" fill="#C03A2B" width="4" height="47"/><rect x="63" y="37" fill-rule="evenodd" clip-rule="evenodd" fill="#C03A2B" width="4" height="47"/><path fill-rule="evenodd" clip-rule="evenodd" fill="#F0C419" d="M37 61h-4c-1.105 0-2 .896-2 2v4c0 1.105.895 2 2 2h4c1.104 0 2-.896 2-2v-4c0-1.105-.896-2-2-2zm0 6h-4v-4h4v4z"/><path fill-rule="evenodd" clip-rule="evenodd" fill="#90241D" d="M65 80l-2-2v12h4v-12l-2 2zm-32-2v12h4v-12l-2 2-2-2zm2-17c.552 0 1-.448 1-.999 0-.553-.448-1-1-1s-1 .447-1 1c0 .551.448.999 1 .999zm0-5c.552 0 1-.448 1-1s-.448-1-1-1-1 .447-1 1c0 .552.448 1 1 1zm0-5c.552 0 1-.448 1-1s-.448-1-1-1-1 .447-1 1c0 .552.448 1 1 1zm0-5c.552 0 1-.448 1-1s-.448-1-1-1-1 .447-1 1 .448 1 1 1zm30 15c.552 0 1-.448 1-.999 0-.553-.448-1-1-1s-1 .447-1 1c0 .551.448.999 1 .999zm0-5c.552 0 1-.448 1-1s-.448-1-1-1-1 .447-1 1c0 .552.448 1 1 1zm0-5c.552 0 1-.448 1-1s-.448-1-1-1-1 .447-1 1c0 .552.448 1 1 1zm0-5c.552 0 1-.448 1-1s-.448-1-1-1-1 .447-1 1 .448 1 1 1zm-30 20c.552 0 1-.448 1-1s-.448-1-1-1-1 .447-1 1c0 .552.448 1 1 1zm30 0c.552 0 1-.448 1-1s-.448-1-1-1-1 .447-1 1c0 .552.448 1 1 1z"/><path fill-rule="evenodd" clip-rule="evenodd" fill="#FCF062" d="M37 63v4h-4l-1.414 1.414c.362.362.862.586 1.414.586h4c1.104 0 2-.896 2-2v-4c0-.552-.224-1.052-.586-1.414l-1.414 1.414z"/><path fill-rule="evenodd" clip-rule="evenodd" fill="#F0C419" d="M67 61h-4c-1.105 0-2 .896-2 2v4c0 1.105.895 2 2 2h4c1.104 0 2-.896 2-2v-4c0-1.105-.896-2-2-2zm0 6h-4v-4h4v4z"/><path fill-rule="evenodd" clip-rule="evenodd" fill="#FCF062" d="M67 63v4h-4l-1.414 1.414c.362.362.862.586 1.414.586h4c1.104 0 2-.896 2-2v-4c0-.552-.224-1.052-.586-1.414l-1.414 1.414z"/></svg>