<svg xmlns="http://www.w3.org/2000/svg" width="80" height="100"><path fill="#BDC3C7" d="M6 44.045v15.973c.081.01 9.988-.004 10 0v-17.969c-.04-.048-8 0-8 0-1.104 0-2 .894-2 1.996z"/><path fill="#95A5A6" d="M16 54.027h-10v1.998h10v-1.998zm0-3.992h-10v1.996h10v-1.996zm-10-3.993v1.997h10v-1.997h-10z"/><path fill="#95A5A6" d="M16 42.018h-6v-42h6v42z"/><path fill="#C0392C" d="M62 16.018h-44c-1.104 0-2 .895-2 2v29c0-3.313 2.687-6 6-6h36c3.312 0 6 2.686 6 6v-29c0-1.105-.896-2-2-2z"/><path fill="#fff" d="M23 21.018h34c1.104 0 2 .895 2 2v18c0 1.104-.896 2-2 2h-34c-1.104 0-2-.896-2-2v-18c0-1.105.896-2 2-2z"/><path fill="#EBF0F1" d="M23 43.018h17v-22h-17c-1.104 0-2 .895-2 2v18c0 1.105.896 2 2 2z"/><path fill="#BDC3C7" d="M72 42.049s-7.96-.048-8 0v17.969c.012-.004 9.919.01 10 0v-15.973c0-1.102-.896-1.996-2-1.996z"/><path fill="#95A5A6" d="M64 56.025h10v-1.998h-10v1.998zm0-3.994h10v-1.996h-10v1.996zm0-5.989v1.997h10v-1.997h-10z"/><path fill="#1C3C50" d="M18 83.018h5c1.104 0 2 .896 2 2v6c0 1.104-.896 2-2 2h-5c-1.104 0-2-.896-2-2v-6c0-1.105.896-2 2-2z"/><path fill="#23475F" d="M21 88.018v10c0 1.104-.896 2-2 2h-10c-1.104 0-2-.896-2-2v-10c.019-.002 13.994.021 14 0z"/><path fill="#1C3C50" d="M9.917 100.018h3v-12h-3v12zm5-12v12h3v-12h-3z"/><path fill="#1C3C50" d="M62 83.018h-5c-1.104 0-2 .896-2 2v6c0 1.104.896 2 2 2h5c1.104 0 2-.896 2-2v-6c0-1.105-.896-2-2-2z"/><path fill="#23475F" d="M59 88.018v10c0 1.104.896 2 2 2h10c1.104 0 2-.896 2-2v-10c-.02-.002-13.994.021-14 0z"/><path fill="#1C3C50" d="M67.083 88.018v12h3v-12h-3zm-5 12h3v-12h-3v12z"/><path fill="#BDC3C7" d="M80 76.018v8c0 2.209-1.791 4-4 4h-72c-2.209 0-4-1.791-4-4v-8c0-.1 80-.067 80 0z"/><path fill="#C0392C" d="M17 73.986v-14.977c-.065-.001-13 .009-13 .009-2.209 0-4 1.787-4 3.991v11.077c0 .1 17-.033 17-.1z"/><path fill="#F1C40E" d="M6 63.018h5c1.104 0 2 .896 2 2v3c0 1.105-.896 2-2 2h-5c-1.104 0-2-.895-2-2v-3c0-1.104.896-2 2-2z"/><path fill="#C0392C" d="M63 74.986v-15.946c.252-.077 13 .009 13 .009 2.209 0 4 1.775 4 3.965v12.006c0-.028-16.992-.036-17-.034z"/><path fill="#F1C40E" d="M74 63.021h-5c-1.104 0-2 .891-2 1.984v2.987c0 1.097.896 1.983 2 1.983h5c1.104 0 2-.89 2-1.983v-2.987c0-1.093-.896-1.984-2-1.984z"/><path fill="#D9D9D9" d="M21 39.018h38v2h-38v-2z"/><path fill="#E74C3C" d="M22 41.018h36c3.312 0 6 2.686 6 6v27c.044.027-47.686.013-48 0v-27c0-3.314 2.687-6 6-6z"/><path fill="#95A5A6" d="M64 .018h6v42h-6v-42z"/><path fill="#ECF0F1" d="M27 46.018h26c3.312 0 5 1.687 5 5v19c.004.013-35.686.013-36 0v-19c0-3.314 1.687-5 5-5z"/><path fill="#7F8C8D" d="M53.5 54.018h-27c-.828 0-1.5.672-1.5 1.5s.672 1.5 1.5 1.5h27c.828 0 1.5-.672 1.5-1.5s-.672-1.5-1.5-1.5zm-27-2h27c.828 0 1.5-.672 1.5-1.5s-.672-1.5-1.5-1.5h-27c-.828 0-1.5.672-1.5 1.5s.672 1.5 1.5 1.5zm27 7h-27c-.828 0-1.5.672-1.5 1.5s.672 1.5 1.5 1.5h27c.828 0 1.5-.672 1.5-1.5s-.672-1.5-1.5-1.5zm0 5h-27c-.828 0-1.5.672-1.5 1.5s.672 1.5 1.5 1.5h27c.828 0 1.5-.672 1.5-1.5s-.672-1.5-1.5-1.5z"/><rect x="21" y="39.018" fill="#C8CCCD" width="19" height="2"/><path fill="#1F4055" d="M21 90.018v-2c-.006.021-13.981-.002-14 0v2h14z"/><path fill="#1F4055" d="M59 88.018v2h14v-2c-.02-.002-13.994.021-14 0z"/><path fill="#193648" d="M17.917 88.025h-3v1.992h3v-1.992zm-8 1.993h3v-1.994l-3-.004v1.998z"/><path fill="#193648" d="M70.083 88.02l-3 .004v1.994h3v-1.998zm-8 .005v1.992h3v-1.992h-3z"/><path fill="#2C3E50" d="M0 74.018h80v2h-80v-2z"/></svg>