<svg xmlns="http://www.w3.org/2000/svg" width="100" height="100"><path fill="#EBEDEE" d="M4 0h92c2.209 0 4 1.791 4 4v92c0 2.209-1.791 4-4 4h-92c-2.209 0-4-1.791-4-4v-92c0-2.209 1.791-4 4-4z"/><path fill="#fff" d="M10 20h80v70h-80v-70z"/><path fill="#E74C3C" d="M13 7c1.657 0 3 1.344 3 3 0 1.657-1.343 3-3 3s-3-1.343-3-3c0-1.656 1.343-3 3-3z"/><path fill="#F39C12" d="M23 7c1.657 0 3 1.344 3 3 0 1.657-1.343 3-3 3s-3-1.343-3-3c0-1.656 1.343-3 3-3z"/><path fill="#17A085" d="M33 7c1.657 0 3 1.344 3 3 0 1.657-1.343 3-3 3s-3-1.343-3-3c0-1.656 1.343-3 3-3z"/><path fill="#fff" d="M45 7h45v6h-45v-6z"/><path fill="#BDC3C7" d="M20 45v5h25v-5h-25zm0 15h25v-5h-25v5zm0 10h25v-5h-25v5zm0 10h25v-5h-25v5z"/><path fill="#1ABC9C" d="M20 30h60v10h-60v-10z"/><path fill="#BDC3C7" d="M50 45v15h30v-15h-30zm0 35h30v-15h-30v15z"/></svg>