<svg xmlns="http://www.w3.org/2000/svg" xmlns:xlink="http://www.w3.org/1999/xlink" width="99.5" height="100"><path fill="#CAA40B" d="M45.087 11.319c1.61-.203 3.247-.319 4.913-.319 2.033 0 4.029.156 5.979.456l-5.479-11.456-5.413 11.319zm-45.087 38.181l11.318 5.413c-.203-1.61-.318-3.247-.318-4.913 0-2.033.156-4.03.456-5.979l-11.456 5.479zm19.082-23.26c2.223-2.888 4.834-5.455 7.766-7.621l-11.703-3.976 3.937 11.597zm62.104.34l4.67-11.937-11.846 4.636c2.698 2.112 5.115 4.563 7.176 7.301zm-7.133 54.108l10.803 3.669-3.701-10.897c-2.044 2.706-4.434 5.134-7.102 7.228zm-54.971-6.928l-3.938 11.597 10.869-4.614c-2.592-2.029-4.922-4.374-6.931-6.983zm26.005 14.921l5.413 11.319 5.479-11.456c-1.95.3-3.946.456-5.979.456-1.666 0-3.303-.116-4.913-.319z"/><path fill="#CAA40B" d="M45.087 11.319c1.61-.203 3.247-.319 4.913-.319 2.033 0 4.029.156 5.979.456l-5.479-11.456-5.413 11.319zm-45.087 38.181l11.318 5.413c-.203-1.61-.318-3.247-.318-4.913 0-2.033.156-4.03.456-5.979l-11.456 5.479zm19.082-23.26c2.223-2.888 4.834-5.455 7.766-7.621l-11.703-3.976 3.937 11.597zm62.104.34l4.67-11.937-11.846 4.636c2.698 2.112 5.115 4.563 7.176 7.301zm-7.133 54.108l10.803 3.669-3.701-10.897c-2.044 2.706-4.434 5.134-7.102 7.228zm-54.971-6.928l-3.938 11.597 10.869-4.614c-2.592-2.029-4.922-4.374-6.931-6.983zm26.005 14.921l5.413 11.319 5.479-11.456c-1.95.3-3.946.456-5.979.456-1.666 0-3.303-.116-4.913-.319z"/><path fill="#F1C411" d="M33.104 7.324l-.438 7.739c2.064-1.026 4.232-1.872 6.484-2.522l-6.046-5.217zm-20.065 30.235c.701-2.082 1.564-4.089 2.591-5.997l-7.634.477 5.043 5.52zm55.522-30.545l-6.457 5.911c2.455.801 4.803 1.839 7.018 3.088l-.561-8.999zm-60 61.121l6.852-.12c-.873-1.673-1.627-3.416-2.254-5.22l-4.598 5.34zm25.291 24.879l5.885-5.388c-2.205-.601-4.334-1.386-6.365-2.346l.48 7.734zm34.945-1.518l.428-7.568c-1.904 1.082-3.906 2.015-5.994 2.768l5.566 4.8z"/><path fill="#F1C411" d="M33.104 7.324l-.438 7.739c2.064-1.026 4.232-1.872 6.484-2.522l-6.046-5.217zm-20.065 30.235c.701-2.082 1.564-4.089 2.591-5.997l-7.634.477 5.043 5.52zm55.522-30.545l-6.457 5.911c2.455.801 4.803 1.839 7.018 3.088l-.561-8.999zm-60 61.121l6.852-.12c-.873-1.673-1.627-3.416-2.254-5.22l-4.598 5.34zm25.291 24.879l5.885-5.388c-2.205-.601-4.334-1.386-6.365-2.346l.48 7.734zm34.945-1.518l.428-7.568c-1.904 1.082-3.906 2.015-5.994 2.768l5.566 4.8z"/><path fill="#F6D759" d="M50 14c19.882 0 36 16.117 36 36 0 19.882-16.118 36-36 36-19.883 0-36-16.118-36-36 0-19.883 16.117-36 36-36z"/><path fill="#DDC14E" d="M54 82c-19.882 0-36-16.118-36-36 0-8.923 3.253-17.081 8.629-23.371-7.727 6.603-12.629 16.412-12.629 27.371 0 19.882 16.118 36 36 36 10.973 0 20.781-4.917 27.387-12.655-6.293 5.387-14.453 8.655-23.387 8.655z"/><path fill="#C5AE47" d="M77.387 73.345c-6.293 5.388-14.453 8.655-23.388 8.655-13.017 0-24.417-6.909-30.741-17.259l-4 4c6.324 10.35 17.724 17.259 30.741 17.259 10.972 0 20.782-4.917 27.388-12.655z"/><defs><circle id="a" cx="50" cy="50" r="36"/></defs><clipPath id="b"><use xlink:href="#a" overflow="visible"/></clipPath><polygon clip-path="url(#b)" fill="#DCC050" points="47,41 2,86 86,86 86,41"/><path fill="#fff" d="M95.584 49.709c.582-1.63.916-3.379.916-5.209 0-8.561-6.939-15.5-15.5-15.5-6.523 0-12.096 4.034-14.382 9.74-2.347-2.312-5.563-3.74-9.118-3.74-7.18 0-13 5.82-13 13 0 3.062 1.064 5.872 2.838 8.094-3.865.564-6.838 3.884-6.838 7.906 0 4.418 3.582 8 8 8h38c7.18 0 13-5.82 13-13 0-3.643-1.502-6.931-3.916-9.291z"/><path fill="#fff" d="M95.584 49.709c.582-1.63.916-3.379.916-5.209 0-8.561-6.939-15.5-15.5-15.5-6.523 0-12.096 4.034-14.382 9.74-2.347-2.312-5.563-3.74-9.118-3.74-7.18 0-13 5.82-13 13 0 3.062 1.064 5.872 2.838 8.094-3.865.564-6.838 3.884-6.838 7.906 0 4.418 3.582 8 8 8h38c7.18 0 13-5.82 13-13 0-3.643-1.502-6.931-3.916-9.291z"/></svg>