<svg xmlns="http://www.w3.org/2000/svg" width="100" height="100"><circle fill-rule="evenodd" clip-rule="evenodd" fill="#F3F3F3" cx="50" cy="50" r="50"/><clipPath id="a"><circle cx="50" cy="50" r="50"/></clipPath><g fill-rule="evenodd" clip-rule="evenodd" clip-path="url(#a)"><path fill-rule="evenodd" clip-rule="evenodd" fill="#27B99A" d="M67 112.75c0 1.381-1.119 2.5-2.5 2.5h-43c-1.381 0-2.5-1.119-2.5-2.5v-54c0-22.5 17-37.733 17-56.75v-22c-.883-.386-2-1.225-2-2.25v-6.25c0-1.381 1.119-2.5 2.5-2.5h13c1.381 0 2.5 1.119 2.5 2.5v6.25c0 1.025-1.117 1.864-2 2.25v22c0 19.007 17 34.25 17 56.75v54z"/><path fill-rule="evenodd" clip-rule="evenodd" fill="#56C1A7" d="M22 61h12c1.657 0 3 1.343 3 3v33c0 1.657-1.343 3-3 3h-12c-1.657 0-3-1.343-3-3v-33c0-1.657 1.343-3 3-3z"/><path fill-rule="evenodd" clip-rule="evenodd" fill="#BDC2C7" d="M69 96v19h14v3h-32v-3h14v-19c0-15.094-14-14.359-14-37 0-13.082 3-23 3-23h26s3 9.918 3 23c0 22.641-14 21.906-14 37z"/><path fill-rule="evenodd" clip-rule="evenodd" fill="#EBECED" d="M65 100v-4c0-15.094-14-14.359-14-37 0-13.082 3-23 3-23h7.22c3.171 7.246 5.78 14.941 5.78 23.75v40.25h-2z"/><path fill-rule="evenodd" clip-rule="evenodd" fill="#FBF063" d="M79.517 49c.29 2.904.483 6.138.483 9.494 0 12.009-3.787 16.68-7.798 21.769-2.336 2.338-7.899 2.372-10.404-.136-4.011-5.088-7.798-9.623-7.798-21.633 0-3.357.193-6.59.483-9.494h25.034z"/><path fill-rule="evenodd" clip-rule="evenodd" fill="#F0C419" d="M72.202 80.263c-1.18 1.181-3.185 1.772-5.202 1.746v-22.259c0-3.771-.485-7.335-1.28-10.75h13.798c.289 2.904.482 6.138.482 9.494 0 12.01-3.787 16.68-7.798 21.769z"/><path opacity=".6" fill="#fff" d="M59.5 55c-.828 0-1.5.672-1.5 1.5s.672 1.5 1.5 1.5 1.5-.672 1.5-1.5-.672-1.5-1.5-1.5zm12 8c-.828 0-1.5.672-1.5 1.5s.672 1.5 1.5 1.5 1.5-.672 1.5-1.5-.672-1.5-1.5-1.5zm-1 12c-.828 0-1.5.672-1.5 1.5s.672 1.5 1.5 1.5 1.5-.672 1.5-1.5-.672-1.5-1.5-1.5z"/></g></svg>